STARTFONT 2.1
COMMENT "$Id: 10x20.bdf,v 1.91 2009-04-06 19:10:19+01 mgk25 Rel $"
COMMENT "Send bug reports to Markus Kuhn <http://www.cl.cam.ac.uk/~mgk25/>"
FONT -Misc-Fixed-Medium-R-Normal--20-200-75-75-C-100-ISO10646-1
SIZE 24 75 75
FONTBOUNDINGBOX 12 24 0 -5
STARTPROPERTIES 22
FONTNAME_REGISTRY ""
FOUNDRY "Misc"
FAMILY_NAME "Fixed"
WEIGHT_NAME "Medium"
SLANT "R"
SETWIDTH_NAME "Normal"
ADD_STYLE_NAME ""
PIXEL_SIZE 24
POINT_SIZE 240
RESOLUTION_X 75
RESOLUTION_Y 75
SPACING "C"
AVERAGE_WIDTH 120
CHARSET_REGISTRY "ISO10646"
CHARSET_ENCODING "1"
DEFAULT_CHAR 0
FONT_DESCENT 5
FONT_ASCENT 19
X_HEIGHT 8
CAP_HEIGHT 13
COPYRIGHT "Public domain font.  Share and enjoy."
_GBDFED_INFO "Edited with gbdfed 1.3."
ENDPROPERTIES
CHARS 5206
STARTCHAR char0
ENCODING 0
SWIDTH 576 0
DWIDTH 12 0
BBX 12 24 0 -5
BITMAP
0000
0000
0000
0000
38E0
2020
2020
2020
0000
0000
2020
2020
2020
2020
0000
0000
2020
2020
38E0
38E0
0000
0000
0000
0000
ENDCHAR
STARTCHAR space
ENCODING 32
SWIDTH 576 0
DWIDTH 12 0
BBX 12 24 0 -5
BITMAP
0000
0000
0000
0000
0000
0000
0000
0000
0000
0000
0000
0000
0000
0000
0000
0000
0000
0000
0000
0000
0000
0000
0000
0000
ENDCHAR
STARTCHAR exclam
ENCODING 33
SWIDTH 576 0
DWIDTH 12 0
BBX 12 24 0 -5
BITMAP
0000
0000
0000
0000
0700
0700
0700
0700
0700
0700
0700
0700
0700
0700
0700
0700
0000
0700
0700
0700
0000
0000
0000
0000
ENDCHAR
STARTCHAR quotedbl
ENCODING 34
SWIDTH 576 0
DWIDTH 12 0
BBX 12 24 0 -5
BITMAP
0000
0000
0000
0000
18C0
18C0
18C0
18C0
0880
0000
0000
0000
0000
0000
0000
0000
0000
0000
0000
0000
0000
0000
0000
0000
ENDCHAR
STARTCHAR numbersign
ENCODING 35
SWIDTH 576 0
DWIDTH 12 0
BBX 12 24 0 -5
BITMAP
0000
0000
0000
0000
0000
0760
0760
0760
0760
1FF0
0CC0
0CC0
0CC0
0CC0
3FE0
1B80
1B80
1B80
0000
0000
0000
0000
0000
0000
ENDCHAR
STARTCHAR dollar
ENCODING 36
SWIDTH 576 0
DWIDTH 12 0
BBX 12 24 0 -5
BITMAP
0000
0000
0000
0000
0700
1FC0
3760
3760
3700
3700
3700
1FC0
0760
0760
0760
0760
3760
1FC0
0700
0700
0000
0000
0000
0000
ENDCHAR
STARTCHAR percent
ENCODING 37
SWIDTH 576 0
DWIDTH 12 0
BBX 12 24 0 -5
BITMAP
0000
0000
0000
0000
0000
1C60
3760
3760
37C0
1CC0
0380
0380
0700
0700
0700
0CE0
0FB0
1BB0
18E0
18E0
0000
0000
0000
0000
ENDCHAR
STARTCHAR ampersand
ENCODING 38
SWIDTH 576 0
DWIDTH 12 0
BBX 12 24 0 -5
BITMAP
0000
0000
0000
0000
0F00
1B80
1B80
1B80
1B80
1F00
0C00
1C00
3700
3700
33B0
30E0
30C0
3BE0
1F30
1F30
0000
0000
0000
0000
ENDCHAR
STARTCHAR quotesingle
ENCODING 39
SWIDTH 576 0
DWIDTH 12 0
BBX 12 24 0 -5
BITMAP
0000
0000
0000
0000
0700
0700
0700
0700
0700
0400
0000
0000
0000
0000
0000
0000
0000
0000
0000
0000
0000
0000
0000
0000
ENDCHAR
STARTCHAR parenleft
ENCODING 40
SWIDTH 576 0
DWIDTH 12 0
BBX 12 24 0 -5
BITMAP
0000
0000
0000
0000
00C0
0380
0700
0700
0700
0C00
0C00
0C00
0C00
0C00
0C00
0700
0700
0380
00C0
00C0
0000
0000
0000
0000
ENDCHAR
STARTCHAR parenright
ENCODING 41
SWIDTH 576 0
DWIDTH 12 0
BBX 12 24 0 -5
BITMAP
0000
0000
0000
0000
1800
0C00
0700
0700
0700
0380
0380
0380
0380
0380
0380
0700
0700
0C00
1800
1800
0000
0000
0000
0000
ENDCHAR
STARTCHAR asterisk
ENCODING 42
SWIDTH 576 0
DWIDTH 12 0
BBX 12 24 0 -5
BITMAP
0000
0000
0000
0000
0000
0000
0000
0000
18C0
18C0
0F80
3FE0
0F80
0F80
18C0
18C0
0000
0000
0000
0000
0000
0000
0000
0000
ENDCHAR
STARTCHAR plus
ENCODING 43
SWIDTH 576 0
DWIDTH 12 0
BBX 12 24 0 -5
BITMAP
0000
0000
0000
0000
0000
0000
0000
0000
0700
0700
0700
3FE0
0700
0700
0700
0700
0000
0000
0000
0000
0000
0000
0000
0000
ENDCHAR
STARTCHAR comma
ENCODING 44
SWIDTH 576 0
DWIDTH 12 0
BBX 12 24 0 -5
BITMAP
0000
0000
0000
0000
0000
0000
0000
0000
0000
0000
0000
0000
0000
0000
0000
0000
0000
0780
0780
0780
0F00
0000
0000
0000
ENDCHAR
STARTCHAR hyphen
ENCODING 45
SWIDTH 576 0
DWIDTH 12 0
BBX 12 24 0 -5
BITMAP
0000
0000
0000
0000
0000
0000
0000
0000
0000
0000
0000
3FE0
0000
0000
0000
0000
0000
0000
0000
0000
0000
0000
0000
0000
ENDCHAR
STARTCHAR period
ENCODING 46
SWIDTH 576 0
DWIDTH 12 0
BBX 12 24 0 -5
BITMAP
0000
0000
0000
0000
0000
0000
0000
0000
0000
0000
0000
0000
0000
0000
0000
0000
0780
0780
0780
0780
0000
0000
0000
0000
ENDCHAR
STARTCHAR slash
ENCODING 47
SWIDTH 576 0
DWIDTH 12 0
BBX 12 24 0 -5
BITMAP
0000
0000
0000
0000
0000
0060
0060
0060
00C0
00C0
0380
0380
0700
0700
0700
0C00
0C00
1800
1800
1800
0000
0000
0000
0000
ENDCHAR
STARTCHAR zero
ENCODING 48
SWIDTH 576 0
DWIDTH 12 0
BBX 12 24 0 -5
BITMAP
0000
0000
0000
0000
0700
0F80
18C0
18C0
18C0
3060
3060
3060
3060
3060
3060
18C0
18C0
0F80
0700
0700
0000
0000
0000
0000
ENDCHAR
STARTCHAR one
ENCODING 49
SWIDTH 576 0
DWIDTH 12 0
BBX 12 24 0 -5
BITMAP
0000
0000
0000
0000
0700
0F00
1F00
1F00
3700
0700
0700
0700
0700
0700
0700
0700
0700
0700
3FE0
3FE0
0000
0000
0000
0000
ENDCHAR
STARTCHAR two
ENCODING 50
SWIDTH 576 0
DWIDTH 12 0
BBX 12 24 0 -5
BITMAP
0000
0000
0000
0000
0F80
18C0
3060
3060
3060
0060
0060
00C0
0780
0780
0C00
1800
3000
3000
3FE0
3FE0
0000
0000
0000
0000
ENDCHAR
STARTCHAR three
ENCODING 51
SWIDTH 576 0
DWIDTH 12 0
BBX 12 24 0 -5
BITMAP
0000
0000
0000
0000
0F80
18C0
3060
3060
3060
0060
00C0
0780
00C0
00C0
0060
3060
3060
18C0
0F80
0F80
0000
0000
0000
0000
ENDCHAR
STARTCHAR four
ENCODING 52
SWIDTH 576 0
DWIDTH 12 0
BBX 12 24 0 -5
BITMAP
0000
0000
0000
0000
0040
00C0
03C0
03C0
07C0
0CC0
18C0
30C0
30C0
30C0
3FE0
00C0
00C0
00C0
00C0
00C0
0000
0000
0000
0000
ENDCHAR
STARTCHAR five
ENCODING 53
SWIDTH 576 0
DWIDTH 12 0
BBX 12 24 0 -5
BITMAP
0000
0000
0000
0000
3FE0
3000
3000
3000
3000
3000
3780
38C0
0060
0060
0060
0060
3060
18C0
0F80
0F80
0000
0000
0000
0000
ENDCHAR
STARTCHAR six
ENCODING 54
SWIDTH 576 0
DWIDTH 12 0
BBX 12 24 0 -5
BITMAP
0000
0000
0000
0000
0F80
18C0
3040
3040
3000
3000
3780
38C0
3060
3060
3060
3060
3060
18C0
0F80
0F80
0000
0000
0000
0000
ENDCHAR
STARTCHAR seven
ENCODING 55
SWIDTH 576 0
DWIDTH 12 0
BBX 12 24 0 -5
BITMAP
0000
0000
0000
0000
3FE0
0060
0060
0060
00C0
00C0
0380
0380
0700
0700
0700
0C00
0C00
1800
1800
1800
0000
0000
0000
0000
ENDCHAR
STARTCHAR eight
ENCODING 56
SWIDTH 576 0
DWIDTH 12 0
BBX 12 24 0 -5
BITMAP
0000
0000
0000
0000
0F80
18C0
3060
3060
3060
3060
18C0
0F80
18C0
18C0
3060
3060
3060
18C0
0F80
0F80
0000
0000
0000
0000
ENDCHAR
STARTCHAR nine
ENCODING 57
SWIDTH 576 0
DWIDTH 12 0
BBX 12 24 0 -5
BITMAP
0000
0000
0000
0000
0F80
18C0
3060
3060
3060
3060
3060
18E0
0F60
0F60
0060
0060
1060
18C0
0F80
0F80
0000
0000
0000
0000
ENDCHAR
STARTCHAR colon
ENCODING 58
SWIDTH 576 0
DWIDTH 12 0
BBX 12 24 0 -5
BITMAP
0000
0000
0000
0000
0000
0000
0000
0000
0000
0000
0780
0780
0000
0000
0000
0000
0000
0780
0780
0780
0000
0000
0000
0000
ENDCHAR
STARTCHAR semicolon
ENCODING 59
SWIDTH 576 0
DWIDTH 12 0
BBX 12 24 0 -5
BITMAP
0000
0000
0000
0000
0000
0000
0000
0000
0000
0000
0780
0780
0000
0000
0000
0000
0000
0780
0780
0780
0F00
0000
0000
0000
ENDCHAR
STARTCHAR less
ENCODING 60
SWIDTH 576 0
DWIDTH 12 0
BBX 12 24 0 -5
BITMAP
0000
0000
0000
0000
0040
00C0
0380
0380
0700
0C00
1800
3000
1800
1800
0C00
0700
0380
00C0
0040
0040
0000
0000
0000
0000
ENDCHAR
STARTCHAR equal
ENCODING 61
SWIDTH 576 0
DWIDTH 12 0
BBX 12 24 0 -5
BITMAP
0000
0000
0000
0000
0000
0000
0000
0000
0000
3FE0
0000
0000
0000
0000
0000
3FE0
0000
0000
0000
0000
0000
0000
0000
0000
ENDCHAR
STARTCHAR greater
ENCODING 62
SWIDTH 576 0
DWIDTH 12 0
BBX 12 24 0 -5
BITMAP
0000
0000
0000
0000
1000
1800
0C00
0C00
0700
0380
00C0
0060
00C0
00C0
0380
0700
0C00
1800
1000
1000
0000
0000
0000
0000
ENDCHAR
STARTCHAR question
ENCODING 63
SWIDTH 576 0
DWIDTH 12 0
BBX 12 24 0 -5
BITMAP
0000
0000
0000
0000
0F80
18C0
3060
3060
3060
3060
00C0
0380
0700
0700
0700
0700
0000
0700
0700
0700
0000
0000
0000
0000
ENDCHAR
STARTCHAR at
ENCODING 64
SWIDTH 576 0
DWIDTH 12 0
BBX 12 24 0 -5
BITMAP
0000
0000
0000
0000
0F80
18C0
3060
3060
33E0
37E0
3760
3760
3760
3760
37C0
3380
3000
1860
0FC0
0FC0
0000
0000
0000
0000
ENDCHAR
STARTCHAR A
ENCODING 65
SWIDTH 576 0
DWIDTH 12 0
BBX 12 24 0 -5
BITMAP
0000
0000
0000
0000
0700
0F80
18C0
18C0
18C0
3060
3060
3060
3FE0
3FE0
3060
3060
3060
3060
3060
3060
0000
0000
0000
0000
ENDCHAR
STARTCHAR B
ENCODING 66
SWIDTH 576 0
DWIDTH 12 0
BBX 12 24 0 -5
BITMAP
0000
0000
0000
0000
3F00
3380
30C0
30C0
30C0
30C0
3380
3F80
30C0
30C0
3060
3060
3060
30C0
3F80
3F80
0000
0000
0000
0000
ENDCHAR
STARTCHAR C
ENCODING 67
SWIDTH 576 0
DWIDTH 12 0
BBX 12 24 0 -5
BITMAP
0000
0000
0000
0000
0F80
18C0
3060
3060
3000
3000
3000
3000
3000
3000
3000
3000
3060
18C0
0F80
0F80
0000
0000
0000
0000
ENDCHAR
STARTCHAR D
ENCODING 68
SWIDTH 576 0
DWIDTH 12 0
BBX 12 24 0 -5
BITMAP
0000
0000
0000
0000
3F80
30C0
3060
3060
3060
3060
3060
3060
3060
3060
3060
3060
3060
30C0
3F80
3F80
0000
0000
0000
0000
ENDCHAR
STARTCHAR E
ENCODING 69
SWIDTH 576 0
DWIDTH 12 0
BBX 12 24 0 -5
BITMAP
0000
0000
0000
0000
3FE0
3000
3000
3000
3000
3000
3000
3F80
3000
3000
3000
3000
3000
3000
3FE0
3FE0
0000
0000
0000
0000
ENDCHAR
STARTCHAR F
ENCODING 70
SWIDTH 576 0
DWIDTH 12 0
BBX 12 24 0 -5
BITMAP
0000
0000
0000
0000
3FE0
3000
3000
3000
3000
3000
3000
3F80
3000
3000
3000
3000
3000
3000
3000
3000
0000
0000
0000
0000
ENDCHAR
STARTCHAR G
ENCODING 71
SWIDTH 576 0
DWIDTH 12 0
BBX 12 24 0 -5
BITMAP
0000
0000
0000
0000
0F80
18C0
3060
3060
3000
3000
3000
33E0
3060
3060
3060
3060
3060
18E0
0FA0
0FA0
0000
0000
0000
0000
ENDCHAR
STARTCHAR H
ENCODING 72
SWIDTH 576 0
DWIDTH 12 0
BBX 12 24 0 -5
BITMAP
0000
0000
0000
0000
3060
3060
3060
3060
3060
3060
3060
3FE0
3060
3060
3060
3060
3060
3060
3060
3060
0000
0000
0000
0000
ENDCHAR
STARTCHAR I
ENCODING 73
SWIDTH 576 0
DWIDTH 12 0
BBX 12 24 0 -5
BITMAP
0000
0000
0000
0000
3FE0
0700
0700
0700
0700
0700
0700
0700
0700
0700
0700
0700
0700
0700
3FE0
3FE0
0000
0000
0000
0000
ENDCHAR
STARTCHAR J
ENCODING 74
SWIDTH 576 0
DWIDTH 12 0
BBX 12 24 0 -5
BITMAP
0000
0000
0000
0000
07F0
00C0
00C0
00C0
00C0
00C0
00C0
00C0
00C0
00C0
00C0
30C0
30C0
1B80
0F00
0F00
0000
0000
0000
0000
ENDCHAR
STARTCHAR K
ENCODING 75
SWIDTH 576 0
DWIDTH 12 0
BBX 12 24 0 -5
BITMAP
0000
0000
0000
0000
3060
3060
30C0
30C0
30C0
3380
3380
3F00
3380
3380
3380
30C0
30C0
3060
3060
3060
0000
0000
0000
0000
ENDCHAR
STARTCHAR L
ENCODING 76
SWIDTH 576 0
DWIDTH 12 0
BBX 12 24 0 -5
BITMAP
0000
0000
0000
0000
3000
3000
3000
3000
3000
3000
3000
3000
3000
3000
3000
3000
3000
3000
3FE0
3FE0
0000
0000
0000
0000
ENDCHAR
STARTCHAR M
ENCODING 77
SWIDTH 576 0
DWIDTH 12 0
BBX 12 24 0 -5
BITMAP
0000
0000
0000
0000
3060
3060
38E0
38E0
38E0
3FE0
3760
3760
3760
3760
3760
3060
3060
3060
3060
3060
0000
0000
0000
0000
ENDCHAR
STARTCHAR N
ENCODING 78
SWIDTH 576 0
DWIDTH 12 0
BBX 12 24 0 -5
BITMAP
0000
0000
0000
0000
3060
3860
3860
3860
3C60
3C60
3760
3760
33E0
33E0
33E0
30E0
30E0
3060
3060
3060
0000
0000
0000
0000
ENDCHAR
STARTCHAR O
ENCODING 79
SWIDTH 576 0
DWIDTH 12 0
BBX 12 24 0 -5
BITMAP
0000
0000
0000
0000
0F80
18C0
3060
3060
3060
3060
3060
3060
3060
3060
3060
3060
3060
18C0
0F80
0F80
0000
0000
0000
0000
ENDCHAR
STARTCHAR P
ENCODING 80
SWIDTH 576 0
DWIDTH 12 0
BBX 12 24 0 -5
BITMAP
0000
0000
0000
0000
3F80
30C0
3060
3060
3060
3060
3060
30C0
3F80
3F80
3000
3000
3000
3000
3000
3000
0000
0000
0000
0000
ENDCHAR
STARTCHAR Q
ENCODING 81
SWIDTH 576 0
DWIDTH 12 0
BBX 12 24 0 -5
BITMAP
0000
0000
0000
0000
0F80
18C0
3060
3060
3060
3060
3060
3060
3060
3060
3060
3760
33E0
18C0
0FC0
0FC0
0060
0000
0000
0000
ENDCHAR
STARTCHAR R
ENCODING 82
SWIDTH 576 0
DWIDTH 12 0
BBX 12 24 0 -5
BITMAP
0000
0000
0000
0000
3F80
30C0
3060
3060
3060
3060
3060
30C0
3F80
3F80
3380
30C0
30C0
3060
3060
3060
0000
0000
0000
0000
ENDCHAR
STARTCHAR S
ENCODING 83
SWIDTH 576 0
DWIDTH 12 0
BBX 12 24 0 -5
BITMAP
0000
0000
0000
0000
0F80
18C0
3060
3060
3000
3000
1800
0F80
00C0
00C0
0060
0060
3060
18C0
0F80
0F80
0000
0000
0000
0000
ENDCHAR
STARTCHAR T
ENCODING 84
SWIDTH 576 0
DWIDTH 12 0
BBX 12 24 0 -5
BITMAP
0000
0000
0000
0000
3FE0
0700
0700
0700
0700
0700
0700
0700
0700
0700
0700
0700
0700
0700
0700
0700
0000
0000
0000
0000
ENDCHAR
STARTCHAR U
ENCODING 85
SWIDTH 576 0
DWIDTH 12 0
BBX 12 24 0 -5
BITMAP
0000
0000
0000
0000
3060
3060
3060
3060
3060
3060
3060
3060
3060
3060
3060
3060
3060
18C0
0F80
0F80
0000
0000
0000
0000
ENDCHAR
STARTCHAR V
ENCODING 86
SWIDTH 576 0
DWIDTH 12 0
BBX 12 24 0 -5
BITMAP
0000
0000
0000
0000
3060
3060
3060
3060
3060
18C0
18C0
18C0
0F80
0F80
0F80
0F80
0700
0700
0700
0700
0000
0000
0000
0000
ENDCHAR
STARTCHAR W
ENCODING 87
SWIDTH 576 0
DWIDTH 12 0
BBX 12 24 0 -5
BITMAP
0000
0000
0000
0000
3060
3060
3060
3060
3060
3060
3760
3760
3760
3760
3760
38E0
38E0
3060
3060
3060
0000
0000
0000
0000
ENDCHAR
STARTCHAR X
ENCODING 88
SWIDTH 576 0
DWIDTH 12 0
BBX 12 24 0 -5
BITMAP
0000
0000
0000
0000
3060
3060
18C0
18C0
18C0
0F80
0F80
0700
0F80
0F80
0F80
18C0
18C0
3060
3060
3060
0000
0000
0000
0000
ENDCHAR
STARTCHAR Y
ENCODING 89
SWIDTH 576 0
DWIDTH 12 0
BBX 12 24 0 -5
BITMAP
0000
0000
0000
0000
3060
3060
18C0
18C0
18C0
0F80
0F80
0700
0700
0700
0700
0700
0700
0700
0700
0700
0000
0000
0000
0000
ENDCHAR
STARTCHAR Z
ENCODING 90
SWIDTH 576 0
DWIDTH 12 0
BBX 12 24 0 -5
BITMAP
0000
0000
0000
0000
3FE0
0060
0060
0060
00C0
0380
0380
0700
0C00
0C00
0C00
1800
3000
3000
3FE0
3FE0
0000
0000
0000
0000
ENDCHAR
STARTCHAR bracketleft
ENCODING 91
SWIDTH 576 0
DWIDTH 12 0
BBX 12 24 0 -5
BITMAP
0000
0000
0000
0000
1FC0
1800
1800
1800
1800
1800
1800
1800
1800
1800
1800
1800
1800
1800
1FC0
1FC0
0000
0000
0000
0000
ENDCHAR
STARTCHAR backslash
ENCODING 92
SWIDTH 576 0
DWIDTH 12 0
BBX 12 24 0 -5
BITMAP
0000
0000
0000
0000
0000
1800
1800
1800
0C00
0C00
0700
0700
0380
0380
0380
00C0
00C0
0060
0060
0060
0000
0000
0000
0000
ENDCHAR
STARTCHAR bracketright
ENCODING 93
SWIDTH 576 0
DWIDTH 12 0
BBX 12 24 0 -5
BITMAP
0000
0000
0000
0000
1FC0
00C0
00C0
00C0
00C0
00C0
00C0
00C0
00C0
00C0
00C0
00C0
00C0
00C0
1FC0
1FC0
0000
0000
0000
0000
ENDCHAR
STARTCHAR asciicircum
ENCODING 94
SWIDTH 576 0
DWIDTH 12 0
BBX 12 24 0 -5
BITMAP
0000
0000
0000
0000
0700
0F80
18C0
18C0
3060
0000
0000
0000
0000
0000
0000
0000
0000
0000
0000
0000
0000
0000
0000
0000
ENDCHAR
STARTCHAR underscore
ENCODING 95
SWIDTH 576 0
DWIDTH 12 0
BBX 12 24 0 -5
BITMAP
0000
0000
0000
0000
0000
0000
0000
0000
0000
0000
0000
0000
0000
0000
0000
0000
0000
0000
0000
0000
3FF0
0000
0000
0000
ENDCHAR
STARTCHAR grave
ENCODING 96
SWIDTH 576 0
DWIDTH 12 0
BBX 12 24 0 -5
BITMAP
0000
0000
0000
0000
0C00
0700
0380
0380
0000
0000
0000
0000
0000
0000
0000
0000
0000
0000
0000
0000
0000
0000
0000
0000
ENDCHAR
STARTCHAR a
ENCODING 97
SWIDTH 576 0
DWIDTH 12 0
BBX 12 24 0 -5
BITMAP
0000
0000
0000
0000
0000
0000
0000
0000
0000
0000
0FC0
1860
0060
0060
1FE0
3060
3060
3060
1FA0
1FA0
0000
0000
0000
0000
ENDCHAR
STARTCHAR b
ENCODING 98
SWIDTH 576 0
DWIDTH 12 0
BBX 12 24 0 -5
BITMAP
0000
0000
0000
0000
3000
3000
3000
3000
3000
3000
3780
38C0
3060
3060
3060
3060
3060
38C0
3780
3780
0000
0000
0000
0000
ENDCHAR
STARTCHAR c
ENCODING 99
SWIDTH 576 0
DWIDTH 12 0
BBX 12 24 0 -5
BITMAP
0000
0000
0000
0000
0000
0000
0000
0000
0000
0000
0FC0
1860
3000
3000
3000
3000
3000
1860
0FC0
0FC0
0000
0000
0000
0000
ENDCHAR
STARTCHAR d
ENCODING 100
SWIDTH 576 0
DWIDTH 12 0
BBX 12 24 0 -5
BITMAP
0000
0000
0000
0000
0060
0060
0060
0060
0060
0060
0F60
18E0
3060
3060
3060
3060
3060
18E0
0F60
0F60
0000
0000
0000
0000
ENDCHAR
STARTCHAR e
ENCODING 101
SWIDTH 576 0
DWIDTH 12 0
BBX 12 24 0 -5
BITMAP
0000
0000
0000
0000
0000
0000
0000
0000
0000
0000
0F80
18C0
3060
3060
3FE0
3000
3000
1860
0FC0
0FC0
0000
0000
0000
0000
ENDCHAR
STARTCHAR f
ENCODING 102
SWIDTH 576 0
DWIDTH 12 0
BBX 12 24 0 -5
BITMAP
0000
0000
0000
0000
07C0
0C60
0C60
0C60
0C00
0C00
3F80
0C00
0C00
0C00
0C00
0C00
0C00
0C00
0C00
0C00
0000
0000
0000
0000
ENDCHAR
STARTCHAR g
ENCODING 103
SWIDTH 576 0
DWIDTH 12 0
BBX 12 24 0 -5
BITMAP
0000
0000
0000
0000
0000
0000
0000
0000
0000
0000
1FA0
30E0
30C0
30C0
30C0
30C0
1F80
3000
1FC0
1FC0
3060
3060
3060
1FC0
ENDCHAR
STARTCHAR h
ENCODING 104
SWIDTH 576 0
DWIDTH 12 0
BBX 12 24 0 -5
BITMAP
0000
0000
0000
0000
3000
3000
3000
3000
3000
3000
3780
38C0
3060
3060
3060
3060
3060
3060
3060
3060
0000
0000
0000
0000
ENDCHAR
STARTCHAR i
ENCODING 105
SWIDTH 576 0
DWIDTH 12 0
BBX 12 24 0 -5
BITMAP
0000
0000
0000
0000
0000
0000
0700
0700
0700
0000
1F00
0700
0700
0700
0700
0700
0700
0700
3FE0
3FE0
0000
0000
0000
0000
ENDCHAR
STARTCHAR j
ENCODING 106
SWIDTH 576 0
DWIDTH 12 0
BBX 12 24 0 -5
BITMAP
0000
0000
0000
0000
0000
0000
0060
0060
0060
0000
03E0
0060
0060
0060
0060
0060
0060
0060
0060
0060
1860
1860
1860
0FC0
ENDCHAR
STARTCHAR k
ENCODING 107
SWIDTH 576 0
DWIDTH 12 0
BBX 12 24 0 -5
BITMAP
0000
0000
0000
0000
3000
3000
3000
3000
3000
3000
30C0
3380
3700
3700
3C00
3F00
3380
30C0
3060
3060
0000
0000
0000
0000
ENDCHAR
STARTCHAR l
ENCODING 108
SWIDTH 576 0
DWIDTH 12 0
BBX 12 24 0 -5
BITMAP
0000
0000
0000
0000
1F00
0700
0700
0700
0700
0700
0700
0700
0700
0700
0700
0700
0700
0700
3FE0
3FE0
0000
0000
0000
0000
ENDCHAR
STARTCHAR m
ENCODING 109
SWIDTH 576 0
DWIDTH 12 0
BBX 12 24 0 -5
BITMAP
0000
0000
0000
0000
0000
0000
0000
0000
0000
0000
2CC0
3FE0
3760
3760
3760
3760
3760
3760
3760
3760
0000
0000
0000
0000
ENDCHAR
STARTCHAR n
ENCODING 110
SWIDTH 576 0
DWIDTH 12 0
BBX 12 24 0 -5
BITMAP
0000
0000
0000
0000
0000
0000
0000
0000
0000
0000
3780
38C0
3060
3060
3060
3060
3060
3060
3060
3060
0000
0000
0000
0000
ENDCHAR
STARTCHAR o
ENCODING 111
SWIDTH 576 0
DWIDTH 12 0
BBX 12 24 0 -5
BITMAP
0000
0000
0000
0000
0000
0000
0000
0000
0000
0000
0F80
18C0
3060
3060
3060
3060
3060
18C0
0F80
0F80
0000
0000
0000
0000
ENDCHAR
STARTCHAR p
ENCODING 112
SWIDTH 576 0
DWIDTH 12 0
BBX 12 24 0 -5
BITMAP
0000
0000
0000
0000
0000
0000
0000
0000
0000
0000
3780
38C0
3060
3060
3060
3060
3060
38C0
3780
3780
3000
3000
3000
3000
ENDCHAR
STARTCHAR q
ENCODING 113
SWIDTH 576 0
DWIDTH 12 0
BBX 12 24 0 -5
BITMAP
0000
0000
0000
0000
0000
0000
0000
0000
0000
0000
0F60
18E0
3060
3060
3060
3060
3060
18E0
0F60
0F60
0060
0060
0060
0060
ENDCHAR
STARTCHAR r
ENCODING 114
SWIDTH 576 0
DWIDTH 12 0
BBX 12 24 0 -5
BITMAP
0000
0000
0000
0000
0000
0000
0000
0000
0000
0000
37C0
1C60
1800
1800
1800
1800
1800
1800
1800
1800
0000
0000
0000
0000
ENDCHAR
STARTCHAR s
ENCODING 115
SWIDTH 576 0
DWIDTH 12 0
BBX 12 24 0 -5
BITMAP
0000
0000
0000
0000
0000
0000
0000
0000
0000
0000
1FC0
3060
3000
3000
1FC0
0060
0060
3060
1FC0
1FC0
0000
0000
0000
0000
ENDCHAR
STARTCHAR t
ENCODING 116
SWIDTH 576 0
DWIDTH 12 0
BBX 12 24 0 -5
BITMAP
0000
0000
0000
0000
0000
0000
0C00
0C00
0C00
0C00
3F80
0C00
0C00
0C00
0C00
0C00
0C00
0C60
07C0
07C0
0000
0000
0000
0000
ENDCHAR
STARTCHAR u
ENCODING 117
SWIDTH 576 0
DWIDTH 12 0
BBX 12 24 0 -5
BITMAP
0000
0000
0000
0000
0000
0000
0000
0000
0000
0000
3060
3060
3060
3060
3060
3060
3060
18E0
0F60
0F60
0000
0000
0000
0000
ENDCHAR
STARTCHAR v
ENCODING 118
SWIDTH 576 0
DWIDTH 12 0
BBX 12 24 0 -5
BITMAP
0000
0000
0000
0000
0000
0000
0000
0000
0000
0000
3060
3060
18C0
18C0
18C0
0F80
0F80
0700
0700
0700
0000
0000
0000
0000
ENDCHAR
STARTCHAR w
ENCODING 119
SWIDTH 576 0
DWIDTH 12 0
BBX 12 24 0 -5
BITMAP
0000
0000
0000
0000
0000
0000
0000
0000
0000
0000
3060
3060
3060
3060
3760
3760
3760
3FE0
18C0
18C0
0000
0000
0000
0000
ENDCHAR
STARTCHAR x
ENCODING 120
SWIDTH 576 0
DWIDTH 12 0
BBX 12 24 0 -5
BITMAP
0000
0000
0000
0000
0000
0000
0000
0000
0000
0000
3060
18C0
0F80
0F80
0700
0700
0F80
18C0
3060
3060
0000
0000
0000
0000
ENDCHAR
STARTCHAR y
ENCODING 121
SWIDTH 576 0
DWIDTH 12 0
BBX 12 24 0 -5
BITMAP
0000
0000
0000
0000
0000
0000
0000
0000
0000
0000
3060
3060
3060
3060
3060
3060
3060
18E0
0F60
0F60
0060
3060
18C0
0F80
ENDCHAR
STARTCHAR z
ENCODING 122
SWIDTH 576 0
DWIDTH 12 0
BBX 12 24 0 -5
BITMAP
0000
0000
0000
0000
0000
0000
0000
0000
0000
0000
1FE0
0060
00C0
00C0
0380
0700
0C00
1800
1FE0
1FE0
0000
0000
0000
0000
ENDCHAR
STARTCHAR braceleft
ENCODING 123
SWIDTH 576 0
DWIDTH 12 0
BBX 12 24 0 -5
BITMAP
0000
0000
0000
0000
03E0
0700
0700
0700
0700
0700
0700
3C00
0700
0700
0700
0700
0700
0700
03E0
03E0
0000
0000
0000
0000
ENDCHAR
STARTCHAR bar
ENCODING 124
SWIDTH 576 0
DWIDTH 12 0
BBX 12 24 0 -5
BITMAP
0000
0000
0000
0000
0700
0700
0700
0700
0700
0700
0700
0700
0700
0700
0700
0700
0700
0700
0700
0700
0000
0000
0000
0000
ENDCHAR
STARTCHAR braceright
ENCODING 125
SWIDTH 576 0
DWIDTH 12 0
BBX 12 24 0 -5
BITMAP
0000
0000
0000
0000
3C00
0700
0700
0700
0700
0700
0700
03E0
0700
0700
0700
0700
0700
0700
3C00
3C00
0000
0000
0000
0000
ENDCHAR
STARTCHAR asciitilde
ENCODING 126
SWIDTH 576 0
DWIDTH 12 0
BBX 12 24 0 -5
BITMAP
0000
0000
0000
0000
1C60
3760
33C0
33C0
0000
0000
0000
0000
0000
0000
0000
0000
0000
0000
0000
0000
0000
0000
0000
0000
ENDCHAR
STARTCHAR space
ENCODING 160
SWIDTH 576 0
DWIDTH 12 0
BBX 12 24 0 -5
BITMAP
0000
0000
0000
0000
0000
0000
0000
0000
0000
0000
0000
0000
0000
0000
0000
0000
0000
0000
0000
0000
0000
0000
0000
0000
ENDCHAR
STARTCHAR exclamdown
ENCODING 161
SWIDTH 576 0
DWIDTH 12 0
BBX 12 24 0 -5
BITMAP
0000
0000
0000
0000
0700
0700
0000
0000
0700
0700
0700
0700
0700
0700
0700
0700
0700
0700
0700
0700
0000
0000
0000
0000
ENDCHAR
STARTCHAR cent
ENCODING 162
SWIDTH 576 0
DWIDTH 12 0
BBX 12 24 0 -5
BITMAP
0000
0000
0000
0000
0000
0700
0700
0700
0F80
18C0
3040
3000
3000
3000
3040
18C0
0F80
0700
0700
0700
0000
0000
0000
0000
ENDCHAR
STARTCHAR sterling
ENCODING 163
SWIDTH 576 0
DWIDTH 12 0
BBX 12 24 0 -5
BITMAP
0000
0000
0000
0000
0000
07C0
0C60
0C60
0C60
0C00
0C00
3F80
0C00
0C00
0C00
0C00
3F00
2BB0
38E0
38E0
0000
0000
0000
0000
ENDCHAR
STARTCHAR currency
ENCODING 164
SWIDTH 576 0
DWIDTH 12 0
BBX 12 24 0 -5
BITMAP
0000
0000
0000
0000
0000
0000
0000
0000
C020
EF60
3FC0
30C0
30C0
30C0
30C0
3FC0
EF60
C020
0000
0000
0000
0000
0000
0000
ENDCHAR
STARTCHAR yen
ENCODING 165
SWIDTH 576 0
DWIDTH 12 0
BBX 12 24 0 -5
BITMAP
0000
0000
0000
0000
0000
0000
2020
2020
3060
18C0
0F80
1FC0
0700
0700
1FC0
0700
0700
0700
0700
0700
0000
0000
0000
0000
ENDCHAR
STARTCHAR brokenbar
ENCODING 166
SWIDTH 576 0
DWIDTH 12 0
BBX 12 24 0 -5
BITMAP
0000
0000
0000
0000
0700
0700
0700
0700
0700
0700
0000
0000
0000
0000
0700
0700
0700
0700
0700
0700
0000
0000
0000
0000
ENDCHAR
STARTCHAR section
ENCODING 167
SWIDTH 576 0
DWIDTH 12 0
BBX 12 24 0 -5
BITMAP
0000
0000
0000
0000
0F80
18C0
30C0
30C0
1800
1F00
3380
18C0
0C60
0C60
07C0
00C0
1860
18C0
0F80
0F80
0000
0000
0000
0000
ENDCHAR
STARTCHAR dieresis
ENCODING 168
SWIDTH 576 0
DWIDTH 12 0
BBX 12 24 0 -5
BITMAP
0000
0000
0000
0000
18C0
18C0
0000
0000
0000
0000
0000
0000
0000
0000
0000
0000
0000
0000
0000
0000
0000
0000
0000
0000
ENDCHAR
STARTCHAR copyright
ENCODING 169
SWIDTH 576 0
DWIDTH 12 0
BBX 12 24 0 -5
BITMAP
0000
0000
0000
0000
0000
0000
0F80
0F80
18C0
3060
2FA0
28A0
2820
2820
28A0
2FA0
3060
18C0
0F80
0F80
0000
0000
0000
0000
ENDCHAR
STARTCHAR ordfeminine
ENCODING 170
SWIDTH 576 0
DWIDTH 12 0
BBX 12 24 0 -5
BITMAP
0000
0000
0000
0000
0FC0
1060
0060
0060
1FE0
3060
3060
1FA0
0000
0000
3FE0
0000
0000
0000
0000
0000
0000
0000
0000
0000
ENDCHAR
STARTCHAR guillemotleft
ENCODING 171
SWIDTH 576 0
DWIDTH 12 0
BBX 12 24 0 -5
BITMAP
0000
0000
0000
0000
0000
0000
0320
0320
0760
0CC0
1B80
3700
EC00
EC00
3700
1B80
0CC0
0760
0320
0320
0000
0000
0000
0000
ENDCHAR
STARTCHAR logicalnot
ENCODING 172
SWIDTH 576 0
DWIDTH 12 0
BBX 12 24 0 -5
BITMAP
0000
0000
0000
0000
0000
0000
0000
0000
0000
0000
3FE0
3FE0
0060
0060
0060
0000
0000
0000
0000
0000
0000
0000
0000
0000
ENDCHAR
STARTCHAR hyphen
ENCODING 173
SWIDTH 576 0
DWIDTH 12 0
BBX 12 24 0 -5
BITMAP
0000
0000
0000
0000
0000
0000
0000
0000
0000
0000
0000
1FC0
0000
0000
0000
0000
0000
0000
0000
0000
0000
0000
0000
0000
ENDCHAR
STARTCHAR registered
ENCODING 174
SWIDTH 576 0
DWIDTH 12 0
BBX 12 24 0 -5
BITMAP
0000
0000
0000
0000
0000
0000
0F80
0F80
18C0
3060
2FA0
28A0
2FA0
2FA0
2B20
2BA0
3060
18C0
0F80
0F80
0000
0000
0000
0000
ENDCHAR
STARTCHAR macron
ENCODING 175
SWIDTH 576 0
DWIDTH 12 0
BBX 12 24 0 -5
BITMAP
0000
0000
0000
3FE0
0000
0000
0000
0000
0000
0000
0000
0000
0000
0000
0000
0000
0000
0000
0000
0000
0000
0000
0000
0000
ENDCHAR
STARTCHAR degree
ENCODING 176
SWIDTH 576 0
DWIDTH 12 0
BBX 12 24 0 -5
BITMAP
0000
0000
0000
0000
0700
0F80
18C0
18C0
18C0
0F80
0700
0000
0000
0000
0000
0000
0000
0000
0000
0000
0000
0000
0000
0000
ENDCHAR
STARTCHAR plusminus
ENCODING 177
SWIDTH 576 0
DWIDTH 12 0
BBX 12 24 0 -5
BITMAP
0000
0000
0000
0000
0000
0000
0000
0000
0000
0700
0700
3FE0
0700
0700
0700
0000
3FE0
0000
0000
0000
0000
0000
0000
0000
ENDCHAR
STARTCHAR twosuperior
ENCODING 178
SWIDTH 576 0
DWIDTH 12 0
BBX 12 24 0 -5
BITMAP
0000
0000
0000
0000
0F00
1B80
0380
0380
0700
0C00
1800
1F80
0000
0000
0000
0000
0000
0000
0000
0000
0000
0000
0000
0000
ENDCHAR
STARTCHAR threesuperior
ENCODING 179
SWIDTH 576 0
DWIDTH 12 0
BBX 12 24 0 -5
BITMAP
0000
0000
0000
0000
0F00
1B80
0380
0380
0700
0380
1B80
0F00
0000
0000
0000
0000
0000
0000
0000
0000
0000
0000
0000
0000
ENDCHAR
STARTCHAR acute
ENCODING 180
SWIDTH 576 0
DWIDTH 12 0
BBX 12 24 0 -5
BITMAP
0000
0000
0000
0000
0380
0700
0C00
0C00
0000
0000
0000
0000
0000
0000
0000
0000
0000
0000
0000
0000
0000
0000
0000
0000
ENDCHAR
STARTCHAR mu
ENCODING 181
SWIDTH 576 0
DWIDTH 12 0
BBX 12 24 0 -5
BITMAP
0000
0000
0000
0000
0000
0000
0000
0000
0000
0000
0000
30C0
30C0
30C0
30C0
30C0
30C0
3BC0
3F40
3F40
3000
3000
3000
0000
ENDCHAR
STARTCHAR paragraph
ENCODING 182
SWIDTH 576 0
DWIDTH 12 0
BBX 12 24 0 -5
BITMAP
0000
0000
0000
0000
1FE0
3FE0
3F60
3F60
3F60
3F60
1F60
0760
0760
0760
0760
0760
0760
0760
0760
0760
0000
0000
0000
0000
ENDCHAR
STARTCHAR periodcentered
ENCODING 183
SWIDTH 576 0
DWIDTH 12 0
BBX 12 24 0 -5
BITMAP
0000
0000
0000
0000
0000
0000
0000
0000
0000
0000
0780
0780
0780
0780
0000
0000
0000
0000
0000
0000
0000
0000
0000
0000
ENDCHAR
STARTCHAR cedilla
ENCODING 184
SWIDTH 576 0
DWIDTH 12 0
BBX 12 24 0 -5
BITMAP
0000
0000
0000
0000
0000
0000
0000
0000
0000
0000
0000
0000
0000
0000
0000
0000
0000
0000
0000
0000
0700
0380
1B80
0F00
ENDCHAR
STARTCHAR onesuperior
ENCODING 185
SWIDTH 576 0
DWIDTH 12 0
BBX 12 24 0 -5
BITMAP
0000
0000
0000
0000
0C00
1C00
0C00
0C00
0C00
0C00
0C00
1F00
0000
0000
0000
0000
0000
0000
0000
0000
0000
0000
0000
0000
ENDCHAR
STARTCHAR ordmasculine
ENCODING 186
SWIDTH 576 0
DWIDTH 12 0
BBX 12 24 0 -5
BITMAP
0000
0000
0000
0000
0F00
1B80
30C0
30C0
30C0
30C0
1B80
0F00
0000
0000
3FC0
0000
0000
0000
0000
0000
0000
0000
0000
0000
ENDCHAR
STARTCHAR guillemotright
ENCODING 187
SWIDTH 576 0
DWIDTH 12 0
BBX 12 24 0 -5
BITMAP
0000
0000
0000
0000
0000
0000
2400
2400
3700
1B80
0CC0
0760
03B0
03B0
0760
0CC0
1B80
3700
2400
2400
0000
0000
0000
0000
ENDCHAR
STARTCHAR onequarter
ENCODING 188
SWIDTH 576 0
DWIDTH 12 0
BBX 12 24 0 -5
BITMAP
0000
0000
0000
0000
1000
3000
1020
1020
1040
3880
0300
0440
08C0
08C0
1340
27C0
0040
0040
0000
0000
0000
0000
0000
0000
ENDCHAR
STARTCHAR onehalf
ENCODING 189
SWIDTH 576 0
DWIDTH 12 0
BBX 12 24 0 -5
BITMAP
0000
0000
0000
0000
1000
3000
1020
1020
1040
3880
0300
04C0
0B20
0B20
1020
2040
0080
03E0
0000
0000
0000
0000
0000
0000
ENDCHAR
STARTCHAR threequarters
ENCODING 190
SWIDTH 576 0
DWIDTH 12 0
BBX 12 24 0 -5
BITMAP
0000
0000
0000
0000
3800
0400
1820
1820
0440
3880
0300
0440
08C0
08C0
1340
27E0
0040
0040
0000
0000
0000
0000
0000
0000
ENDCHAR
STARTCHAR questiondown
ENCODING 191
SWIDTH 576 0
DWIDTH 12 0
BBX 12 24 0 -5
BITMAP
0000
0000
0000
0000
0700
0700
0000
0000
0700
0700
0700
0C00
1800
1800
3060
3060
3060
18C0
0F80
0F80
0000
0000
0000
0000
ENDCHAR
STARTCHAR Agrave
ENCODING 192
SWIDTH 576 0
DWIDTH 12 0
BBX 12 24 0 -5
BITMAP
0000
0000
1800
0C00
0700
0000
0700
0700
0F80
18C0
3060
3060
3060
3060
3FE0
3060
3060
3060
3060
3060
0000
0000
0000
0000
ENDCHAR
STARTCHAR Aacute
ENCODING 193
SWIDTH 576 0
DWIDTH 12 0
BBX 12 24 0 -5
BITMAP
0000
0000
00C0
0380
0700
0000
0700
0700
0F80
18C0
3060
3060
3060
3060
3FE0
3060
3060
3060
3060
3060
0000
0000
0000
0000
ENDCHAR
STARTCHAR Acircumflex
ENCODING 194
SWIDTH 576 0
DWIDTH 12 0
BBX 12 24 0 -5
BITMAP
0000
0000
0700
0F80
18C0
0000
0700
0700
0F80
18C0
3060
3060
3060
3060
3FE0
3060
3060
3060
3060
3060
0000
0000
0000
0000
ENDCHAR
STARTCHAR Atilde
ENCODING 195
SWIDTH 576 0
DWIDTH 12 0
BBX 12 24 0 -5
BITMAP
0000
0000
0C40
1FC0
1380
0000
0700
0700
0F80
18C0
3060
3060
3060
3060
3FE0
3060
3060
3060
3060
3060
0000
0000
0000
0000
ENDCHAR
STARTCHAR Adieresis
ENCODING 196
SWIDTH 576 0
DWIDTH 12 0
BBX 12 24 0 -5
BITMAP
0000
0000
18C0
18C0
0000
0700
0F80
0F80
18C0
18C0
3060
3060
3060
3060
3FE0
3060
3060
3060
3060
3060
0000
0000
0000
0000
ENDCHAR
STARTCHAR Aring
ENCODING 197
SWIDTH 576 0
DWIDTH 12 0
BBX 12 24 0 -5
BITMAP
0F80
0F80
18C0
18C0
0F80
0000
0700
0700
0F80
18C0
3060
3060
3060
3060
3FE0
3060
3060
3060
3060
3060
0000
0000
0000
0000
ENDCHAR
STARTCHAR AE
ENCODING 198
SWIDTH 576 0
DWIDTH 12 0
BBX 12 24 0 -5
BITMAP
0000
0000
0000
0000
07E0
0F80
1B80
1B80
1B80
3380
3380
3FE0
3380
3380
3380
3380
3380
3380
33E0
33E0
0000
0000
0000
0000
ENDCHAR
STARTCHAR Ccedilla
ENCODING 199
SWIDTH 576 0
DWIDTH 12 0
BBX 12 24 0 -5
BITMAP
0000
0000
0000
0000
0F80
18C0
3060
3060
3000
3000
3000
3000
3000
3000
3000
3000
3060
18C0
0F80
0F80
0700
0380
1B80
0F00
ENDCHAR
STARTCHAR Egrave
ENCODING 200
SWIDTH 576 0
DWIDTH 12 0
BBX 12 24 0 -5
BITMAP
0000
0000
1800
0C00
0700
0000
3FE0
3FE0
3000
3000
3000
3000
3F80
3F80
3000
3000
3000
3000
3FE0
3FE0
0000
0000
0000
0000
ENDCHAR
STARTCHAR Eacute
ENCODING 201
SWIDTH 576 0
DWIDTH 12 0
BBX 12 24 0 -5
BITMAP
0000
0000
0380
0700
0C00
0000
3FE0
3FE0
3000
3000
3000
3000
3F80
3F80
3000
3000
3000
3000
3FE0
3FE0
0000
0000
0000
0000
ENDCHAR
STARTCHAR Ecircumflex
ENCODING 202
SWIDTH 576 0
DWIDTH 12 0
BBX 12 24 0 -5
BITMAP
0000
0000
0700
0F80
18C0
0000
3FE0
3FE0
3000
3000
3000
3000
3F80
3F80
3000
3000
3000
3000
3FE0
3FE0
0000
0000
0000
0000
ENDCHAR
STARTCHAR Edieresis
ENCODING 203
SWIDTH 576 0
DWIDTH 12 0
BBX 12 24 0 -5
BITMAP
0000
0000
18C0
18C0
0000
0000
3FE0
3FE0
3000
3000
3000
3000
3F80
3F80
3000
3000
3000
3000
3FE0
3FE0
0000
0000
0000
0000
ENDCHAR
STARTCHAR Igrave
ENCODING 204
SWIDTH 576 0
DWIDTH 12 0
BBX 12 24 0 -5
BITMAP
0000
0000
0C00
0700
0380
0000
1FC0
1FC0
0700
0700
0700
0700
0700
0700
0700
0700
0700
0700
1FC0
1FC0
0000
0000
0000
0000
ENDCHAR
STARTCHAR Iacute
ENCODING 205
SWIDTH 576 0
DWIDTH 12 0
BBX 12 24 0 -5
BITMAP
0000
0000
0380
0700
0C00
0000
1FC0
1FC0
0700
0700
0700
0700
0700
0700
0700
0700
0700
0700
1FC0
1FC0
0000
0000
0000
0000
ENDCHAR
STARTCHAR Icircumflex
ENCODING 206
SWIDTH 576 0
DWIDTH 12 0
BBX 12 24 0 -5
BITMAP
0000
0000
0700
0F80
18C0
0000
1FC0
1FC0
0700
0700
0700
0700
0700
0700
0700
0700
0700
0700
1FC0
1FC0
0000
0000
0000
0000
ENDCHAR
STARTCHAR Idieresis
ENCODING 207
SWIDTH 576 0
DWIDTH 12 0
BBX 12 24 0 -5
BITMAP
0000
0000
18C0
18C0
0000
1FC0
0700
0700
0700
0700
0700
0700
0700
0700
0700
0700
0700
0700
1FC0
1FC0
0000
0000
0000
0000
ENDCHAR
STARTCHAR Eth
ENCODING 208
SWIDTH 576 0
DWIDTH 12 0
BBX 12 24 0 -5
BITMAP
0000
0000
0000
0000
3F80
30C0
3060
3060
3060
3060
3060
FC60
3060
3060
3060
3060
3060
30C0
3F80
3F80
0000
0000
0000
0000
ENDCHAR
STARTCHAR Ntilde
ENCODING 209
SWIDTH 576 0
DWIDTH 12 0
BBX 12 24 0 -5
BITMAP
0000
0000
0C40
1FC0
1380
0000
3060
3060
3860
3C60
3C60
3760
3760
3760
33E0
33E0
30E0
3060
3060
3060
0000
0000
0000
0000
ENDCHAR
STARTCHAR Ograve
ENCODING 210
SWIDTH 576 0
DWIDTH 12 0
BBX 12 24 0 -5
BITMAP
0000
0000
0C00
0700
0380
0000
0F80
0F80
18C0
3060
3060
3060
3060
3060
3060
3060
3060
18C0
0F80
0F80
0000
0000
0000
0000
ENDCHAR
STARTCHAR Oacute
ENCODING 211
SWIDTH 576 0
DWIDTH 12 0
BBX 12 24 0 -5
BITMAP
0000
0000
0380
0700
0C00
0000
0F80
0F80
18C0
3060
3060
3060
3060
3060
3060
3060
3060
18C0
0F80
0F80
0000
0000
0000
0000
ENDCHAR
STARTCHAR Ocircumflex
ENCODING 212
SWIDTH 576 0
DWIDTH 12 0
BBX 12 24 0 -5
BITMAP
0000
0000
0700
0F80
18C0
0000
0F80
0F80
18C0
3060
3060
3060
3060
3060
3060
3060
3060
18C0
0F80
0F80
0000
0000
0000
0000
ENDCHAR
STARTCHAR Otilde
ENCODING 213
SWIDTH 576 0
DWIDTH 12 0
BBX 12 24 0 -5
BITMAP
0000
0000
0C40
1FC0
1380
0000
0F80
0F80
18C0
3060
3060
3060
3060
3060
3060
3060
3060
18C0
0F80
0F80
0000
0000
0000
0000
ENDCHAR
STARTCHAR Odieresis
ENCODING 214
SWIDTH 576 0
DWIDTH 12 0
BBX 12 24 0 -5
BITMAP
0000
0000
18C0
18C0
0000
0F80
18C0
18C0
3060
3060
3060
3060
3060
3060
3060
3060
3060
18C0
0F80
0F80
0000
0000
0000
0000
ENDCHAR
STARTCHAR multiply
ENCODING 215
SWIDTH 576 0
DWIDTH 12 0
BBX 12 24 0 -5
BITMAP
0000
0000
0000
0000
0000
0000
0000
0000
0000
0000
2040
30C0
1B80
1B80
0F00
0F00
1B80
30C0
2040
2040
0000
0000
0000
0000
ENDCHAR
STARTCHAR Oslash
ENCODING 216
SWIDTH 576 0
DWIDTH 12 0
BBX 12 24 0 -5
BITMAP
0000
0000
0000
0020
0FC0
18C0
30E0
30E0
30E0
3360
3360
3360
3460
3460
3460
3460
3860
18C0
1F80
1F80
2000
0000
0000
0000
ENDCHAR
STARTCHAR Ugrave
ENCODING 217
SWIDTH 576 0
DWIDTH 12 0
BBX 12 24 0 -5
BITMAP
0000
0000
0C00
0700
0380
0000
3060
3060
3060
3060
3060
3060
3060
3060
3060
3060
3060
18C0
0F80
0F80
0000
0000
0000
0000
ENDCHAR
STARTCHAR Uacute
ENCODING 218
SWIDTH 576 0
DWIDTH 12 0
BBX 12 24 0 -5
BITMAP
0000
0000
0380
0700
0C00
0000
3060
3060
3060
3060
3060
3060
3060
3060
3060
3060
3060
18C0
0F80
0F80
0000
0000
0000
0000
ENDCHAR
STARTCHAR Ucircumflex
ENCODING 219
SWIDTH 576 0
DWIDTH 12 0
BBX 12 24 0 -5
BITMAP
0000
0000
0700
0F80
18C0
0000
3060
3060
3060
3060
3060
3060
3060
3060
3060
3060
3060
18C0
0F80
0F80
0000
0000
0000
0000
ENDCHAR
STARTCHAR Udieresis
ENCODING 220
SWIDTH 576 0
DWIDTH 12 0
BBX 12 24 0 -5
BITMAP
0000
0000
18C0
18C0
0000
3060
3060
3060
3060
3060
3060
3060
3060
3060
3060
3060
3060
18C0
0F80
0F80
0000
0000
0000
0000
ENDCHAR
STARTCHAR Yacute
ENCODING 221
SWIDTH 576 0
DWIDTH 12 0
BBX 12 24 0 -5
BITMAP
0000
0000
0380
0700
0C00
0000
3060
3060
3060
18C0
18C0
0F80
0F80
0F80
0700
0700
0700
0700
0700
0700
0000
0000
0000
0000
ENDCHAR
STARTCHAR Thorn
ENCODING 222
SWIDTH 576 0
DWIDTH 12 0
BBX 12 24 0 -5
BITMAP
0000
0000
0000
0000
1800
1800
1800
1800
1FC0
1860
1860
1860
1860
1860
1860
1FC0
1800
1800
1800
1800
0000
0000
0000
0000
ENDCHAR
STARTCHAR germandbls
ENCODING 223
SWIDTH 576 0
DWIDTH 12 0
BBX 12 24 0 -5
BITMAP
0000
0000
0000
0000
0780
0CC0
1860
1860
1860
18C0
3B80
1B80
18C0
18C0
1860
1860
1860
18C0
1B80
1B80
0000
0000
0000
0000
ENDCHAR
STARTCHAR agrave
ENCODING 224
SWIDTH 576 0
DWIDTH 12 0
BBX 12 24 0 -5
BITMAP
0000
0000
0000
0000
0000
0C00
0700
0700
0380
0000
1FC0
3060
0060
0060
1FE0
3060
3060
3060
1FA0
1FA0
0000
0000
0000
0000
ENDCHAR
STARTCHAR aacute
ENCODING 225
SWIDTH 576 0
DWIDTH 12 0
BBX 12 24 0 -5
BITMAP
0000
0000
0000
0000
0000
0380
0700
0700
0C00
0000
1FC0
3060
0060
0060
1FE0
3060
3060
3060
1FA0
1FA0
0000
0000
0000
0000
ENDCHAR
STARTCHAR acircumflex
ENCODING 226
SWIDTH 576 0
DWIDTH 12 0
BBX 12 24 0 -5
BITMAP
0000
0000
0000
0000
0000
0700
0F80
0F80
18C0
0000
1FC0
3060
0060
0060
1FE0
3060
3060
3060
1FA0
1FA0
0000
0000
0000
0000
ENDCHAR
STARTCHAR atilde
ENCODING 227
SWIDTH 576 0
DWIDTH 12 0
BBX 12 24 0 -5
BITMAP
0000
0000
0000
0000
0000
0C40
1FC0
1FC0
1380
0000
1FC0
3060
0060
0060
1FE0
3060
3060
3060
1FA0
1FA0
0000
0000
0000
0000
ENDCHAR
STARTCHAR adieresis
ENCODING 228
SWIDTH 576 0
DWIDTH 12 0
BBX 12 24 0 -5
BITMAP
0000
0000
0000
0000
0000
0000
18C0
18C0
18C0
0000
1FC0
3060
0060
0060
1FE0
3060
3060
3060
1FA0
1FA0
0000
0000
0000
0000
ENDCHAR
STARTCHAR aring
ENCODING 229
SWIDTH 576 0
DWIDTH 12 0
BBX 12 24 0 -5
BITMAP
0000
0000
0000
0000
0F80
18C0
18C0
18C0
0F80
0000
1FC0
3060
0060
0060
1FE0
3060
3060
3060
1FA0
1FA0
0000
0000
0000
0000
ENDCHAR
STARTCHAR ae
ENCODING 230
SWIDTH 576 0
DWIDTH 12 0
BBX 12 24 0 -5
BITMAP
0000
0000
0000
0000
0000
0000
0000
0000
0000
0000
1CC0
2760
0760
0760
07C0
1F00
3700
3720
1BC0
1BC0
0000
0000
0000
0000
ENDCHAR
STARTCHAR ccedilla
ENCODING 231
SWIDTH 576 0
DWIDTH 12 0
BBX 12 24 0 -5
BITMAP
0000
0000
0000
0000
0000
0000
0000
0000
0000
0000
0FC0
1860
3000
3000
3000
3000
3000
1860
0FC0
0FC0
0700
0380
1B80
0F00
ENDCHAR
STARTCHAR egrave
ENCODING 232
SWIDTH 576 0
DWIDTH 12 0
BBX 12 24 0 -5
BITMAP
0000
0000
0000
0000
0000
1800
0C00
0C00
0700
0000
0F80
18C0
3060
3060
3FE0
3000
3000
1860
0FC0
0FC0
0000
0000
0000
0000
ENDCHAR
STARTCHAR eacute
ENCODING 233
SWIDTH 576 0
DWIDTH 12 0
BBX 12 24 0 -5
BITMAP
0000
0000
0000
0000
0000
00C0
0380
0380
0700
0000
0F80
18C0
3060
3060
3FE0
3000
3000
1860
0FC0
0FC0
0000
0000
0000
0000
ENDCHAR
STARTCHAR ecircumflex
ENCODING 234
SWIDTH 576 0
DWIDTH 12 0
BBX 12 24 0 -5
BITMAP
0000
0000
0000
0000
0000
0700
0F80
0F80
18C0
0000
0F80
18C0
3060
3060
3FE0
3000
3000
1860
0FC0
0FC0
0000
0000
0000
0000
ENDCHAR
STARTCHAR edieresis
ENCODING 235
SWIDTH 576 0
DWIDTH 12 0
BBX 12 24 0 -5
BITMAP
0000
0000
0000
0000
0000
0000
18C0
18C0
18C0
0000
0F80
18C0
3060
3060
3FE0
3000
3000
1860
0FC0
0FC0
0000
0000
0000
0000
ENDCHAR
STARTCHAR igrave
ENCODING 236
SWIDTH 576 0
DWIDTH 12 0
BBX 12 24 0 -5
BITMAP
0000
0000
0000
0000
0000
1800
0C00
0C00
0700
0000
1F00
0700
0700
0700
0700
0700
0700
0700
3FE0
3FE0
0000
0000
0000
0000
ENDCHAR
STARTCHAR iacute
ENCODING 237
SWIDTH 576 0
DWIDTH 12 0
BBX 12 24 0 -5
BITMAP
0000
0000
0000
0000
0000
0380
0700
0700
0C00
0000
1F00
0700
0700
0700
0700
0700
0700
0700
3FE0
3FE0
0000
0000
0000
0000
ENDCHAR
STARTCHAR icircumflex
ENCODING 238
SWIDTH 576 0
DWIDTH 12 0
BBX 12 24 0 -5
BITMAP
0000
0000
0000
0000
0000
0700
0F80
0F80
18C0
0000
1F00
0700
0700
0700
0700
0700
0700
0700
3FE0
3FE0
0000
0000
0000
0000
ENDCHAR
STARTCHAR idieresis
ENCODING 239
SWIDTH 576 0
DWIDTH 12 0
BBX 12 24 0 -5
BITMAP
0000
0000
0000
0000
0000
0000
18C0
18C0
18C0
0000
1F00
0700
0700
0700
0700
0700
0700
0700
3FE0
3FE0
0000
0000
0000
0000
ENDCHAR
STARTCHAR eth
ENCODING 240
SWIDTH 576 0
DWIDTH 12 0
BBX 12 24 0 -5
BITMAP
0000
0000
0000
0000
2300
3700
1C00
1C00
1C00
3700
2380
0FC0
18E0
18E0
3060
3060
3060
18C0
0F80
0F80
0000
0000
0000
0000
ENDCHAR
STARTCHAR ntilde
ENCODING 241
SWIDTH 576 0
DWIDTH 12 0
BBX 12 24 0 -5
BITMAP
0000
0000
0000
0000
0000
0C40
1FC0
1FC0
1380
0000
3780
38C0
3060
3060
3060
3060
3060
3060
3060
3060
0000
0000
0000
0000
ENDCHAR
STARTCHAR ograve
ENCODING 242
SWIDTH 576 0
DWIDTH 12 0
BBX 12 24 0 -5
BITMAP
0000
0000
0000
0000
0000
1800
0C00
0C00
0700
0000
0F80
18C0
3060
3060
3060
3060
3060
18C0
0F80
0F80
0000
0000
0000
0000
ENDCHAR
STARTCHAR oacute
ENCODING 243
SWIDTH 576 0
DWIDTH 12 0
BBX 12 24 0 -5
BITMAP
0000
0000
0000
0000
0000
00C0
0380
0380
0700
0000
0F80
18C0
3060
3060
3060
3060
3060
18C0
0F80
0F80
0000
0000
0000
0000
ENDCHAR
STARTCHAR ocircumflex
ENCODING 244
SWIDTH 576 0
DWIDTH 12 0
BBX 12 24 0 -5
BITMAP
0000
0000
0000
0000
0000
0700
0F80
0F80
18C0
0000
0F80
18C0
3060
3060
3060
3060
3060
18C0
0F80
0F80
0000
0000
0000
0000
ENDCHAR
STARTCHAR otilde
ENCODING 245
SWIDTH 576 0
DWIDTH 12 0
BBX 12 24 0 -5
BITMAP
0000
0000
0000
0000
0000
0C40
1FC0
1FC0
1380
0000
0F80
18C0
3060
3060
3060
3060
3060
18C0
0F80
0F80
0000
0000
0000
0000
ENDCHAR
STARTCHAR odieresis
ENCODING 246
SWIDTH 576 0
DWIDTH 12 0
BBX 12 24 0 -5
BITMAP
0000
0000
0000
0000
0000
0000
18C0
18C0
18C0
0000
0F80
18C0
3060
3060
3060
3060
3060
18C0
0F80
0F80
0000
0000
0000
0000
ENDCHAR
STARTCHAR divide
ENCODING 247
SWIDTH 576 0
DWIDTH 12 0
BBX 12 24 0 -5
BITMAP
0000
0000
0000
0000
0000
0000
0700
0700
0700
0000
0000
3FE0
3FE0
3FE0
0000
0000
0700
0700
0000
0000
0000
0000
0000
0000
ENDCHAR
STARTCHAR oslash
ENCODING 248
SWIDTH 576 0
DWIDTH 12 0
BBX 12 24 0 -5
BITMAP
0000
0000
0000
0000
0000
0000
0000
0000
0000
0020
0FC0
18C0
3360
3360
3360
3460
3460
18C0
1F80
1F80
2000
0000
0000
0000
ENDCHAR
STARTCHAR ugrave
ENCODING 249
SWIDTH 576 0
DWIDTH 12 0
BBX 12 24 0 -5
BITMAP
0000
0000
0000
0000
0000
0C00
0700
0700
0380
0000
3060
3060
3060
3060
3060
3060
3060
18E0
0F60
0F60
0000
0000
0000
0000
ENDCHAR
STARTCHAR uacute
ENCODING 250
SWIDTH 576 0
DWIDTH 12 0
BBX 12 24 0 -5
BITMAP
0000
0000
0000
0000
0000
00C0
0380
0380
0700
0000
3060
3060
3060
3060
3060
3060
3060
18E0
0F60
0F60
0000
0000
0000
0000
ENDCHAR
STARTCHAR ucircumflex
ENCODING 251
SWIDTH 576 0
DWIDTH 12 0
BBX 12 24 0 -5
BITMAP
0000
0000
0000
0000
0000
0700
0F80
0F80
18C0
0000
3060
3060
3060
3060
3060
3060
3060
18E0
0F60
0F60
0000
0000
0000
0000
ENDCHAR
STARTCHAR udieresis
ENCODING 252
SWIDTH 576 0
DWIDTH 12 0
BBX 12 24 0 -5
BITMAP
0000
0000
0000
0000
0000
0000
18C0
18C0
18C0
0000
3060
3060
3060
3060
3060
3060
3060
18E0
0F60
0F60
0000
0000
0000
0000
ENDCHAR
STARTCHAR yacute
ENCODING 253
SWIDTH 576 0
DWIDTH 12 0
BBX 12 24 0 -5
BITMAP
0000
0000
0000
0000
0000
0380
0700
0700
0C00
0000
3060
3060
3060
3060
3060
3060
3060
18E0
0F60
0F60
0060
3060
18C0
0F80
ENDCHAR
STARTCHAR thorn
ENCODING 254
SWIDTH 576 0
DWIDTH 12 0
BBX 12 24 0 -5
BITMAP
0000
0000
0000
0000
1800
1800
1800
1800
1800
1800
1800
1F80
18C0
18C0
1860
1860
1860
18C0
1F80
1F80
1800
1800
1800
1800
ENDCHAR
STARTCHAR ydieresis
ENCODING 255
SWIDTH 576 0
DWIDTH 12 0
BBX 12 24 0 -5
BITMAP
0000
0000
0000
0000
0000
0000
18C0
18C0
18C0
0000
3060
3060
3060
3060
3060
3060
3060
18E0
0F60
0F60
0060
3060
18C0
0F80
ENDCHAR
STARTCHAR Amacron
ENCODING 256
SWIDTH 576 0
DWIDTH 12 0
BBX 12 24 0 -5
BITMAP
0000
0000
3FE0
0000
0700
0F80
18C0
18C0
18C0
3060
3060
3060
3FE0
3FE0
3060
3060
3060
3060
3060
3060
0000
0000
0000
0000
ENDCHAR
STARTCHAR amacron
ENCODING 257
SWIDTH 576 0
DWIDTH 12 0
BBX 12 24 0 -5
BITMAP
0000
0000
0000
0000
0000
0000
0000
0000
3FE0
0000
0FC0
1860
0060
0060
1FE0
3060
3060
3060
1FA0
1FA0
0000
0000
0000
0000
ENDCHAR
STARTCHAR Abreve
ENCODING 258
SWIDTH 576 0
DWIDTH 12 0
BBX 12 24 0 -5
BITMAP
0000
0000
1040
18C0
0F80
0000
0F80
0F80
18C0
18C0
3060
3060
3060
3060
3FE0
3060
3060
3060
3060
3060
0000
0000
0000
0000
ENDCHAR
STARTCHAR abreve
ENCODING 259
SWIDTH 576 0
DWIDTH 12 0
BBX 12 24 0 -5
BITMAP
0000
0000
0000
0000
0000
1040
18C0
18C0
0F80
0000
0FC0
1860
0060
0060
1FE0
3060
3060
3060
1FA0
1FA0
0000
0000
0000
0000
ENDCHAR
STARTCHAR Aogonek
ENCODING 260
SWIDTH 576 0
DWIDTH 12 0
BBX 12 24 0 -5
BITMAP
0000
0000
0000
0000
0700
0F80
18C0
18C0
18C0
3060
3060
3060
3FE0
3FE0
3060
3060
3060
3060
3060
3060
00E0
00C0
0070
0000
ENDCHAR
STARTCHAR aogonek
ENCODING 261
SWIDTH 576 0
DWIDTH 12 0
BBX 12 24 0 -5
BITMAP
0000
0000
0000
0000
0000
0000
0000
0000
0000
0000
0FC0
1860
0060
0060
1FE0
3060
3060
3060
1FA0
1FA0
0030
0070
0060
0030
ENDCHAR
STARTCHAR Cacute
ENCODING 262
SWIDTH 576 0
DWIDTH 12 0
BBX 12 24 0 -5
BITMAP
0000
0000
00C0
0380
0700
0000
0F80
0F80
18C0
3060
3000
3000
3000
3000
3000
3000
3060
18C0
0F80
0F80
0000
0000
0000
0000
ENDCHAR
STARTCHAR cacute
ENCODING 263
SWIDTH 576 0
DWIDTH 12 0
BBX 12 24 0 -5
BITMAP
0000
0000
0000
0000
0000
00C0
0380
0380
0700
0000
0FC0
1860
3000
3000
3000
3000
3000
1860
0FC0
0FC0
0000
0000
0000
0000
ENDCHAR
STARTCHAR Ccircumflex
ENCODING 264
SWIDTH 576 0
DWIDTH 12 0
BBX 12 24 0 -5
BITMAP
0000
0000
0700
0F80
18C0
0000
0F80
0F80
18C0
3060
3000
3000
3000
3000
3000
3000
3060
18C0
0F80
0F80
0000
0000
0000
0000
ENDCHAR
STARTCHAR ccircumflex
ENCODING 265
SWIDTH 576 0
DWIDTH 12 0
BBX 12 24 0 -5
BITMAP
0000
0000
0000
0000
0000
0700
0F80
0F80
18C0
0000
0FC0
1860
3000
3000
3000
3000
3000
1860
0FC0
0FC0
0000
0000
0000
0000
ENDCHAR
STARTCHAR Cdotaccent
ENCODING 266
SWIDTH 576 0
DWIDTH 12 0
BBX 12 24 0 -5
BITMAP
0000
0000
0700
0700
0000
0F80
18C0
18C0
3060
3000
3000
3000
3000
3000
3000
3000
3060
18C0
0F80
0F80
0000
0000
0000
0000
ENDCHAR
STARTCHAR cdotaccent
ENCODING 267
SWIDTH 576 0
DWIDTH 12 0
BBX 12 24 0 -5
BITMAP
0000
0000
0000
0000
0000
0000
0700
0700
0700
0000
0FC0
1860
3000
3000
3000
3000
3000
1860
0FC0
0FC0
0000
0000
0000
0000
ENDCHAR
STARTCHAR Ccaron
ENCODING 268
SWIDTH 576 0
DWIDTH 12 0
BBX 12 24 0 -5
BITMAP
0000
0000
18C0
0F80
0700
0000
0F80
0F80
18C0
3060
3000
3000
3000
3000
3000
3000
3060
18C0
0F80
0F80
0000
0000
0000
0000
ENDCHAR
STARTCHAR ccaron
ENCODING 269
SWIDTH 576 0
DWIDTH 12 0
BBX 12 24 0 -5
BITMAP
0000
0000
0000
0000
0000
18C0
0F80
0F80
0700
0000
0FC0
1860
3000
3000
3000
3000
3000
1860
0FC0
0FC0
0000
0000
0000
0000
ENDCHAR
STARTCHAR Dcaron
ENCODING 270
SWIDTH 576 0
DWIDTH 12 0
BBX 12 24 0 -5
BITMAP
0000
0000
18C0
0F80
0700
0000
3F80
3F80
30C0
3060
3060
3060
3060
3060
3060
3060
3060
30C0
3F80
3F80
0000
0000
0000
0000
ENDCHAR
STARTCHAR dcaron
ENCODING 271
SWIDTH 576 0
DWIDTH 12 0
BBX 12 24 0 -5
BITMAP
0000
0000
3380
1F00
0C60
0060
0060
0060
0060
0060
0F60
18E0
3060
3060
3060
3060
3060
18E0
0F60
0F60
0000
0000
0000
0000
ENDCHAR
STARTCHAR Dcroat
ENCODING 272
SWIDTH 576 0
DWIDTH 12 0
BBX 12 24 0 -5
BITMAP
0000
0000
0000
0000
3F80
30C0
3060
3060
3060
3060
3060
FC60
3060
3060
3060
3060
3060
30C0
3F80
3F80
0000
0000
0000
0000
ENDCHAR
STARTCHAR dcroat
ENCODING 273
SWIDTH 576 0
DWIDTH 12 0
BBX 12 24 0 -5
BITMAP
0000
0000
0000
0000
0060
0060
0060
0060
03F0
0060
0F60
18E0
3060
3060
3060
3060
3060
18E0
0F60
0F60
0000
0000
0000
0000
ENDCHAR
STARTCHAR Emacron
ENCODING 274
SWIDTH 576 0
DWIDTH 12 0
BBX 12 24 0 -5
BITMAP
0000
0000
3FE0
0000
3FE0
3000
3000
3000
3000
3000
3000
3F80
3000
3000
3000
3000
3000
3000
3FE0
3FE0
0000
0000
0000
0000
ENDCHAR
STARTCHAR emacron
ENCODING 275
SWIDTH 576 0
DWIDTH 12 0
BBX 12 24 0 -5
BITMAP
0000
0000
0000
0000
0000
0000
0000
0000
3FE0
0000
0F80
18C0
3060
3060
3FE0
3000
3000
1860
0FC0
0FC0
0000
0000
0000
0000
ENDCHAR
STARTCHAR Ebreve
ENCODING 276
SWIDTH 576 0
DWIDTH 12 0
BBX 12 24 0 -5
BITMAP
0000
0000
1040
18C0
0F80
0000
3FE0
3FE0
3000
3000
3000
3000
3F80
3F80
3000
3000
3000
3000
3FE0
3FE0
0000
0000
0000
0000
ENDCHAR
STARTCHAR ebreve
ENCODING 277
SWIDTH 576 0
DWIDTH 12 0
BBX 12 24 0 -5
BITMAP
0000
0000
0000
0000
0000
1040
18C0
18C0
0F80
0000
0F80
18C0
3060
3060
3FE0
3000
3000
1860
0FC0
0FC0
0000
0000
0000
0000
ENDCHAR
STARTCHAR Edotaccent
ENCODING 278
SWIDTH 576 0
DWIDTH 12 0
BBX 12 24 0 -5
BITMAP
0000
0000
0700
0700
0000
3FE0
3000
3000
3000
3000
3000
3F80
3000
3000
3000
3000
3000
3000
3FE0
3FE0
0000
0000
0000
0000
ENDCHAR
STARTCHAR edotaccent
ENCODING 279
SWIDTH 576 0
DWIDTH 12 0
BBX 12 24 0 -5
BITMAP
0000
0000
0000
0000
0000
0000
0700
0700
0700
0000
0F80
18C0
3060
3060
3FE0
3000
3000
1860
0FC0
0FC0
0000
0000
0000
0000
ENDCHAR
STARTCHAR Eogonek
ENCODING 280
SWIDTH 576 0
DWIDTH 12 0
BBX 12 24 0 -5
BITMAP
0000
0000
0000
0000
3FE0
3000
3000
3000
3000
3000
3000
3F80
3000
3000
3000
3000
3000
3000
3FE0
3FE0
00C0
03C0
0380
00E0
ENDCHAR
STARTCHAR eogonek
ENCODING 281
SWIDTH 576 0
DWIDTH 12 0
BBX 12 24 0 -5
BITMAP
0000
0000
0000
0000
0000
0000
0000
0000
0000
0000
0F80
18C0
3060
3060
3FE0
3000
3000
1860
0FC0
0FC0
0380
0780
0700
03C0
ENDCHAR
STARTCHAR Ecaron
ENCODING 282
SWIDTH 576 0
DWIDTH 12 0
BBX 12 24 0 -5
BITMAP
0000
0000
18C0
0F80
0700
0000
3FE0
3FE0
3000
3000
3000
3000
3F80
3F80
3000
3000
3000
3000
3FE0
3FE0
0000
0000
0000
0000
ENDCHAR
STARTCHAR ecaron
ENCODING 283
SWIDTH 576 0
DWIDTH 12 0
BBX 12 24 0 -5
BITMAP
0000
0000
0000
0000
0000
18C0
0F80
0F80
0700
0000
0F80
18C0
3060
3060
3FE0
3000
3000
1860
0FC0
0FC0
0000
0000
0000
0000
ENDCHAR
STARTCHAR Gcircumflex
ENCODING 284
SWIDTH 576 0
DWIDTH 12 0
BBX 12 24 0 -5
BITMAP
0000
0000
0700
0F80
18C0
0000
0F80
0F80
18C0
3060
3000
3000
33E0
33E0
3060
3060
3060
18E0
0FA0
0FA0
0000
0000
0000
0000
ENDCHAR
STARTCHAR gcircumflex
ENCODING 285
SWIDTH 576 0
DWIDTH 12 0
BBX 12 24 0 -5
BITMAP
0000
0000
0000
0000
0000
0700
0F80
0F80
18C0
0000
1FA0
30E0
30C0
30C0
30C0
30C0
1F80
3000
1FC0
1FC0
3060
3060
3060
1FC0
ENDCHAR
STARTCHAR Gbreve
ENCODING 286
SWIDTH 576 0
DWIDTH 12 0
BBX 12 24 0 -5
BITMAP
0000
0000
1040
18C0
0F80
0000
0F80
0F80
18C0
3060
3000
3000
33E0
33E0
3060
3060
3060
18E0
0FA0
0FA0
0000
0000
0000
0000
ENDCHAR
STARTCHAR gbreve
ENCODING 287
SWIDTH 576 0
DWIDTH 12 0
BBX 12 24 0 -5
BITMAP
0000
0000
0000
0000
0000
1040
18C0
18C0
0F80
0000
1FA0
30E0
30C0
30C0
30C0
30C0
1F80
3000
1FC0
1FC0
3060
3060
3060
1FC0
ENDCHAR
STARTCHAR Gdotaccent
ENCODING 288
SWIDTH 576 0
DWIDTH 12 0
BBX 12 24 0 -5
BITMAP
0000
0000
0700
0700
0000
0F80
18C0
18C0
3060
3000
3000
33E0
3060
3060
3060
3060
3060
18E0
0FA0
0FA0
0000
0000
0000
0000
ENDCHAR
STARTCHAR gdotaccent
ENCODING 289
SWIDTH 576 0
DWIDTH 12 0
BBX 12 24 0 -5
BITMAP
0000
0000
0000
0000
0000
0000
0700
0700
0700
0000
1FA0
30E0
30C0
30C0
30C0
30C0
1F80
3000
1FC0
1FC0
3060
3060
3060
1FC0
ENDCHAR
STARTCHAR Gcommaaccent
ENCODING 290
SWIDTH 576 0
DWIDTH 12 0
BBX 12 24 0 -5
BITMAP
0000
0000
0000
0000
0F80
18C0
3060
3060
3000
3000
3000
33E0
3060
3060
3060
3060
3060
18E0
0FA0
0FA0
0700
0380
0F00
0000
ENDCHAR
STARTCHAR gcommaaccent
ENCODING 291
SWIDTH 576 0
DWIDTH 12 0
BBX 12 24 0 -5
BITMAP
0000
0000
0000
0000
0400
0800
0C00
0C00
0C00
0000
1FA0
30E0
30C0
30C0
30C0
30C0
1F80
3000
1FC0
1FC0
3060
3060
3060
1FC0
ENDCHAR
STARTCHAR Hcircumflex
ENCODING 292
SWIDTH 576 0
DWIDTH 12 0
BBX 12 24 0 -5
BITMAP
0000
0000
0700
0F80
18C0
0000
3060
3060
3060
3060
3060
3FE0
3060
3060
3060
3060
3060
3060
3060
3060
0000
0000
0000
0000
ENDCHAR
STARTCHAR hcircumflex
ENCODING 293
SWIDTH 576 0
DWIDTH 12 0
BBX 12 24 0 -5
BITMAP
0700
0700
0F80
18C0
0000
3000
3000
3000
3000
3000
3780
38C0
3060
3060
3060
3060
3060
3060
3060
3060
0000
0000
0000
0000
ENDCHAR
STARTCHAR Hbar
ENCODING 294
SWIDTH 576 0
DWIDTH 12 0
BBX 12 24 0 -5
BITMAP
0000
0000
0000
0000
3060
3060
FFF0
FFF0
3060
3060
3060
3FE0
3060
3060
3060
3060
3060
3060
3060
3060
0000
0000
0000
0000
ENDCHAR
STARTCHAR hbar
ENCODING 295
SWIDTH 576 0
DWIDTH 12 0
BBX 12 24 0 -5
BITMAP
0000
0000
0000
0000
3000
3000
3000
3000
FC00
3000
3780
38C0
3060
3060
3060
3060
3060
3060
3060
3060
0000
0000
0000
0000
ENDCHAR
STARTCHAR Itilde
ENCODING 296
SWIDTH 576 0
DWIDTH 12 0
BBX 12 24 0 -5
BITMAP
0000
0000
0C40
1FC0
1380
0000
3FE0
3FE0
0700
0700
0700
0700
0700
0700
0700
0700
0700
0700
3FE0
3FE0
0000
0000
0000
0000
ENDCHAR
STARTCHAR itilde
ENCODING 297
SWIDTH 576 0
DWIDTH 12 0
BBX 12 24 0 -5
BITMAP
0000
0000
0000
0000
0000
0C40
1FC0
1FC0
1380
0000
1F00
0700
0700
0700
0700
0700
0700
0700
3FE0
3FE0
0000
0000
0000
0000
ENDCHAR
STARTCHAR Imacron
ENCODING 298
SWIDTH 576 0
DWIDTH 12 0
BBX 12 24 0 -5
BITMAP
0000
0000
3FE0
0000
3FE0
0700
0700
0700
0700
0700
0700
0700
0700
0700
0700
0700
0700
0700
3FE0
3FE0
0000
0000
0000
0000
ENDCHAR
STARTCHAR imacron
ENCODING 299
SWIDTH 576 0
DWIDTH 12 0
BBX 12 24 0 -5
BITMAP
0000
0000
0000
0000
0000
0000
0000
0000
3FC0
0000
1F00
0700
0700
0700
0700
0700
0700
0700
3FE0
3FE0
0000
0000
0000
0000
ENDCHAR
STARTCHAR Ibreve
ENCODING 300
SWIDTH 576 0
DWIDTH 12 0
BBX 12 24 0 -5
BITMAP
0000
0000
1040
18C0
0F80
0000
3FE0
3FE0
0700
0700
0700
0700
0700
0700
0700
0700
0700
0700
3FE0
3FE0
0000
0000
0000
0000
ENDCHAR
STARTCHAR ibreve
ENCODING 301
SWIDTH 576 0
DWIDTH 12 0
BBX 12 24 0 -5
BITMAP
0000
0000
0000
0000
0000
1040
18C0
18C0
0F80
0000
1F00
0700
0700
0700
0700
0700
0700
0700
3FE0
3FE0
0000
0000
0000
0000
ENDCHAR
STARTCHAR Iogonek
ENCODING 302
SWIDTH 576 0
DWIDTH 12 0
BBX 12 24 0 -5
BITMAP
0000
0000
0000
0000
3FE0
0700
0700
0700
0700
0700
0700
0700
0700
0700
0700
0700
0700
0700
3FE0
3FE0
00C0
03C0
0380
00E0
ENDCHAR
STARTCHAR iogonek
ENCODING 303
SWIDTH 576 0
DWIDTH 12 0
BBX 12 24 0 -5
BITMAP
0000
0000
0000
0000
0000
0000
0700
0700
0700
0000
1F00
0700
0700
0700
0700
0700
0700
0700
3FE0
3FE0
0060
00E0
00C0
0060
ENDCHAR
STARTCHAR Idotaccent
ENCODING 304
SWIDTH 576 0
DWIDTH 12 0
BBX 12 24 0 -5
BITMAP
0000
0000
0700
0700
0000
3FE0
0700
0700
0700
0700
0700
0700
0700
0700
0700
0700
0700
0700
3FE0
3FE0
0000
0000
0000
0000
ENDCHAR
STARTCHAR dotlessi
ENCODING 305
SWIDTH 576 0
DWIDTH 12 0
BBX 12 24 0 -5
BITMAP
0000
0000
0000
0000
0000
0000
0000
0000
0000
0000
1F00
0700
0700
0700
0700
0700
0700
0700
3FE0
3FE0
0000
0000
0000
0000
ENDCHAR
STARTCHAR IJ
ENCODING 306
SWIDTH 576 0
DWIDTH 12 0
BBX 12 24 0 -5
BITMAP
0000
0000
0000
0000
FFE0
1860
1860
1860
1860
1860
1860
1860
1860
1860
1860
1860
1860
1860
FF60
FF60
0060
1860
0FC0
0000
ENDCHAR
STARTCHAR ij
ENCODING 307
SWIDTH 576 0
DWIDTH 12 0
BBX 12 24 0 -5
BITMAP
0000
0000
0000
0000
0000
0000
1860
1860
1860
0000
FBE0
1860
1860
1860
1860
1860
1860
1860
FF60
FF60
0060
1860
1860
0FC0
ENDCHAR
STARTCHAR Jcircumflex
ENCODING 308
SWIDTH 576 0
DWIDTH 12 0
BBX 12 24 0 -5
BITMAP
0000
0000
0380
07C0
0C60
0000
0FC0
0FC0
00C0
00C0
00C0
00C0
00C0
00C0
00C0
E0C0
E0C0
3380
1F00
1F00
0000
0000
0000
0000
ENDCHAR
STARTCHAR jcircumflex
ENCODING 309
SWIDTH 576 0
DWIDTH 12 0
BBX 12 24 0 -5
BITMAP
0000
0000
0000
0000
0000
0380
07C0
07C0
0C60
0000
07C0
00C0
00C0
00C0
00C0
00C0
00C0
00C0
00C0
00C0
30C0
30C0
30C0
1F80
ENDCHAR
STARTCHAR Kcommaaccent
ENCODING 310
SWIDTH 576 0
DWIDTH 12 0
BBX 12 24 0 -5
BITMAP
0000
0000
0000
0000
3060
3060
30C0
30C0
30C0
3380
3380
3F00
3380
3380
3380
30C0
30C0
3060
3060
3060
3800
0C00
0C00
3800
ENDCHAR
STARTCHAR kcommaaccent
ENCODING 311
SWIDTH 576 0
DWIDTH 12 0
BBX 12 24 0 -5
BITMAP
0000
0000
0000
0000
3000
3000
3000
3000
3000
3000
30C0
3380
3700
3700
3C00
3F00
3380
30C0
3060
3060
3800
0C00
0C00
3800
ENDCHAR
STARTCHAR kgreenlandic
ENCODING 312
SWIDTH 576 0
DWIDTH 12 0
BBX 12 24 0 -5
BITMAP
0000
0000
0000
0000
0000
0000
0000
0000
0000
0000
3380
3700
3C00
3C00
3800
3C00
3700
3380
30C0
30C0
0000
0000
0000
0000
ENDCHAR
STARTCHAR Lacute
ENCODING 313
SWIDTH 576 0
DWIDTH 12 0
BBX 12 24 0 -5
BITMAP
0000
0000
0C00
1800
3000
0000
3000
3000
3000
3000
3000
3000
3000
3000
3000
3000
3000
3000
3FE0
3FE0
0000
0000
0000
0000
ENDCHAR
STARTCHAR lacute
ENCODING 314
SWIDTH 576 0
DWIDTH 12 0
BBX 12 24 0 -5
BITMAP
0000
0000
0380
0700
0C00
0000
1F00
1F00
0700
0700
0700
0700
0700
0700
0700
0700
0700
0700
3FE0
3FE0
0000
0000
0000
0000
ENDCHAR
STARTCHAR Lcommaaccent
ENCODING 315
SWIDTH 576 0
DWIDTH 12 0
BBX 12 24 0 -5
BITMAP
0000
0000
0000
0000
3000
3000
3000
3000
3000
3000
3000
3000
3000
3000
3000
3000
3000
3000
3FE0
3FE0
1800
0C00
0C00
3800
ENDCHAR
STARTCHAR lcommaaccent
ENCODING 316
SWIDTH 576 0
DWIDTH 12 0
BBX 12 24 0 -5
BITMAP
0000
0000
0000
0000
1F00
0700
0700
0700
0700
0700
0700
0700
0700
0700
0700
0700
0700
0700
3FE0
3FE0
0700
0380
0380
0F00
ENDCHAR
STARTCHAR Lcaron
ENCODING 317
SWIDTH 576 0
DWIDTH 12 0
BBX 12 24 0 -5
BITMAP
0000
0000
E700
3C00
1800
0000
3000
3000
3000
3000
3000
3000
3000
3000
3000
3000
3000
3000
3FE0
3FE0
0000
0000
0000
0000
ENDCHAR
STARTCHAR lcaron
ENCODING 318
SWIDTH 576 0
DWIDTH 12 0
BBX 12 24 0 -5
BITMAP
0000
0000
18C0
0F80
0700
0000
1F00
1F00
0700
0700
0700
0700
0700
0700
0700
0700
0700
0700
3FE0
3FE0
0000
0000
0000
0000
ENDCHAR
STARTCHAR Ldot
ENCODING 319
SWIDTH 576 0
DWIDTH 12 0
BBX 12 24 0 -5
BITMAP
0000
0000
0000
0000
3000
3000
3000
3000
3000
3000
3380
3380
3000
3000
3000
3000
3000
3000
3FE0
3FE0
0000
0000
0000
0000
ENDCHAR
STARTCHAR ldot
ENCODING 320
SWIDTH 576 0
DWIDTH 12 0
BBX 12 24 0 -5
BITMAP
0000
0000
0000
0000
3C00
0C00
0C00
0C00
0C00
0C00
0C00
0C60
0C60
0C60
0C00
0C00
0C00
0C00
FFC0
FFC0
0000
0000
0000
0000
ENDCHAR
STARTCHAR Lslash
ENCODING 321
SWIDTH 576 0
DWIDTH 12 0
BBX 12 24 0 -5
BITMAP
0000
0000
0000
0000
3000
3000
3000
3000
3000
3000
3700
3800
F000
F000
3000
3000
3000
3000
3FE0
3FE0
0000
0000
0000
0000
ENDCHAR
STARTCHAR lslash
ENCODING 322
SWIDTH 576 0
DWIDTH 12 0
BBX 12 24 0 -5
BITMAP
0000
0000
0000
0000
1F00
0700
0700
0700
0700
0700
0700
07C0
1F00
1F00
0700
0700
0700
0700
3FE0
3FE0
0000
0000
0000
0000
ENDCHAR
STARTCHAR Nacute
ENCODING 323
SWIDTH 576 0
DWIDTH 12 0
BBX 12 24 0 -5
BITMAP
0000
0000
00C0
0380
0700
3060
3860
3860
3860
3C60
3C60
3760
3760
3760
33E0
33E0
30E0
30E0
3060
3060
0000
0000
0000
0000
ENDCHAR
STARTCHAR nacute
ENCODING 324
SWIDTH 576 0
DWIDTH 12 0
BBX 12 24 0 -5
BITMAP
0000
0000
0000
0000
0000
00C0
0380
0380
0700
0000
3780
38C0
3060
3060
3060
3060
3060
3060
3060
3060
0000
0000
0000
0000
ENDCHAR
STARTCHAR Ncommaaccent
ENCODING 325
SWIDTH 576 0
DWIDTH 12 0
BBX 12 24 0 -5
BITMAP
0000
0000
0000
0000
3060
3860
3860
3860
3C60
3C60
3760
3760
33E0
33E0
33E0
30E0
30E0
3060
3060
3060
3800
0C00
0C00
3800
ENDCHAR
STARTCHAR ncommaaccent
ENCODING 326
SWIDTH 576 0
DWIDTH 12 0
BBX 12 24 0 -5
BITMAP
0000
0000
0000
0000
0000
0000
0000
0000
0000
0000
3780
38C0
3060
3060
3060
3060
3060
3060
3060
3060
3800
0C00
0C00
3800
ENDCHAR
STARTCHAR Ncaron
ENCODING 327
SWIDTH 576 0
DWIDTH 12 0
BBX 12 24 0 -5
BITMAP
0000
0000
18C0
0F80
0700
3060
3860
3860
3860
3C60
3C60
3760
3760
3760
33E0
33E0
30E0
30E0
3060
3060
0000
0000
0000
0000
ENDCHAR
STARTCHAR ncaron
ENCODING 328
SWIDTH 576 0
DWIDTH 12 0
BBX 12 24 0 -5
BITMAP
0000
0000
0000
0000
0000
18C0
0F80
0F80
0700
0000
3780
38C0
3060
3060
3060
3060
3060
3060
3060
3060
0000
0000
0000
0000
ENDCHAR
STARTCHAR napostrophe
ENCODING 329
SWIDTH 576 0
DWIDTH 12 0
BBX 12 24 0 -5
BITMAP
0000
0000
0000
0000
E000
E000
2000
2000
C000
0000
3780
38C0
3060
3060
3060
3060
3060
3060
3060
3060
0000
0000
0000
0000
ENDCHAR
STARTCHAR Eng
ENCODING 330
SWIDTH 576 0
DWIDTH 12 0
BBX 12 24 0 -5
BITMAP
0000
0000
0000
0000
3060
3860
3860
3860
3C60
3C60
3760
3760
33E0
33E0
33E0
30E0
30E0
3060
3060
3060
0060
0060
0060
00C0
ENDCHAR
STARTCHAR eng
ENCODING 331
SWIDTH 576 0
DWIDTH 12 0
BBX 12 24 0 -5
BITMAP
0000
0000
0000
0000
0000
0000
0000
0000
0000
0000
3780
38C0
3060
3060
3060
3060
3060
3060
3060
3060
0060
0060
0060
00C0
ENDCHAR
STARTCHAR Omacron
ENCODING 332
SWIDTH 576 0
DWIDTH 12 0
BBX 12 24 0 -5
BITMAP
0000
0000
3FE0
0000
0F80
18C0
3060
3060
3060
3060
3060
3060
3060
3060
3060
3060
3060
18C0
0F80
0F80
0000
0000
0000
0000
ENDCHAR
STARTCHAR omacron
ENCODING 333
SWIDTH 576 0
DWIDTH 12 0
BBX 12 24 0 -5
BITMAP
0000
0000
0000
0000
0000
0000
0000
0000
3FE0
0000
0F80
18C0
3060
3060
3060
3060
3060
18C0
0F80
0F80
0000
0000
0000
0000
ENDCHAR
STARTCHAR Obreve
ENCODING 334
SWIDTH 576 0
DWIDTH 12 0
BBX 12 24 0 -5
BITMAP
0000
0000
1040
18C0
0F80
0000
0F80
0F80
18C0
3060
3060
3060
3060
3060
3060
3060
3060
18C0
0F80
0F80
0000
0000
0000
0000
ENDCHAR
STARTCHAR obreve
ENCODING 335
SWIDTH 576 0
DWIDTH 12 0
BBX 12 24 0 -5
BITMAP
0000
0000
0000
0000
0000
1040
18C0
18C0
0F80
0000
0F80
18C0
3060
3060
3060
3060
3060
18C0
0F80
0F80
0000
0000
0000
0000
ENDCHAR
STARTCHAR Ohungarumlaut
ENCODING 336
SWIDTH 576 0
DWIDTH 12 0
BBX 12 24 0 -5
BITMAP
0000
0000
0C60
18C0
0000
0F80
18C0
18C0
3060
3060
3060
3060
3060
3060
3060
3060
3060
18C0
0F80
0F80
0000
0000
0000
0000
ENDCHAR
STARTCHAR ohungarumlaut
ENCODING 337
SWIDTH 576 0
DWIDTH 12 0
BBX 12 24 0 -5
BITMAP
0000
0000
0000
0000
0000
0000
0C60
0C60
18C0
0000
0F80
18C0
3060
3060
3060
3060
3060
18C0
0F80
0F80
0000
0000
0000
0000
ENDCHAR
STARTCHAR OE
ENCODING 338
SWIDTH 576 0
DWIDTH 12 0
BBX 12 24 0 -5
BITMAP
0000
0000
0000
0000
0FE0
1B80
3380
3380
3380
3380
3380
33E0
3380
3380
3380
3380
3380
1B80
0FE0
0FE0
0000
0000
0000
0000
ENDCHAR
STARTCHAR oe
ENCODING 339
SWIDTH 576 0
DWIDTH 12 0
BBX 12 24 0 -5
BITMAP
0000
0000
0000
0000
0000
0000
0000
0000
0000
0000
1FC0
3760
3760
3760
37E0
3700
3700
3760
1FC0
1FC0
0000
0000
0000
0000
ENDCHAR
STARTCHAR Racute
ENCODING 340
SWIDTH 576 0
DWIDTH 12 0
BBX 12 24 0 -5
BITMAP
0000
0000
0380
0700
0C00
0000
3F80
3F80
30C0
3060
3060
30C0
3F80
3F80
3380
30C0
30C0
3060
3060
3060
0000
0000
0000
0000
ENDCHAR
STARTCHAR racute
ENCODING 341
SWIDTH 576 0
DWIDTH 12 0
BBX 12 24 0 -5
BITMAP
0000
0000
0000
0000
0000
00C0
0380
0380
0700
0000
37C0
1C60
1800
1800
1800
1800
1800
1800
1800
1800
0000
0000
0000
0000
ENDCHAR
STARTCHAR Rcommaaccent
ENCODING 342
SWIDTH 576 0
DWIDTH 12 0
BBX 12 24 0 -5
BITMAP
0000
0000
0000
0000
3F80
30C0
3060
3060
3060
3060
3060
30C0
3F80
3F80
3380
30C0
30C0
3060
3060
3060
3800
0C00
0C00
3800
ENDCHAR
STARTCHAR rcommaaccent
ENCODING 343
SWIDTH 576 0
DWIDTH 12 0
BBX 12 24 0 -5
BITMAP
0000
0000
0000
0000
0000
0000
0000
0000
0000
0000
37C0
1C60
1800
1800
1800
1800
1800
1800
1800
1800
1C00
0700
0700
1C00
ENDCHAR
STARTCHAR Rcaron
ENCODING 344
SWIDTH 576 0
DWIDTH 12 0
BBX 12 24 0 -5
BITMAP
0000
0000
18C0
0F80
0700
0000
3F80
3F80
30C0
3060
3060
30C0
3F80
3F80
3380
30C0
30C0
3060
3060
3060
0000
0000
0000
0000
ENDCHAR
STARTCHAR rcaron
ENCODING 345
SWIDTH 576 0
DWIDTH 12 0
BBX 12 24 0 -5
BITMAP
0000
0000
0000
0000
0000
18C0
0F80
0F80
0700
0000
37C0
1C60
1800
1800
1800
1800
1800
1800
1800
1800
0000
0000
0000
0000
ENDCHAR
STARTCHAR Sacute
ENCODING 346
SWIDTH 576 0
DWIDTH 12 0
BBX 12 24 0 -5
BITMAP
0000
0000
00C0
0380
0700
0000
0F80
0F80
18C0
3060
3000
1800
0F80
0F80
00C0
0060
3060
18C0
0F80
0F80
0000
0000
0000
0000
ENDCHAR
STARTCHAR sacute
ENCODING 347
SWIDTH 576 0
DWIDTH 12 0
BBX 12 24 0 -5
BITMAP
0000
0000
0000
0000
0000
00C0
0380
0380
0700
0000
1FC0
3060
3000
3000
1FC0
0060
0060
3060
1FC0
1FC0
0000
0000
0000
0000
ENDCHAR
STARTCHAR Scircumflex
ENCODING 348
SWIDTH 576 0
DWIDTH 12 0
BBX 12 24 0 -5
BITMAP
0000
0000
0700
0F80
18C0
0000
0F80
0F80
18C0
3060
3000
1800
0F80
0F80
00C0
0060
3060
18C0
0F80
0F80
0000
0000
0000
0000
ENDCHAR
STARTCHAR scircumflex
ENCODING 349
SWIDTH 576 0
DWIDTH 12 0
BBX 12 24 0 -5
BITMAP
0000
0000
0000
0000
0000
0700
0F80
0F80
18C0
0000
1FC0
3060
3000
3000
1FC0
0060
0060
3060
1FC0
1FC0
0000
0000
0000
0000
ENDCHAR
STARTCHAR Scedilla
ENCODING 350
SWIDTH 576 0
DWIDTH 12 0
BBX 12 24 0 -5
BITMAP
0000
0000
0000
0000
0F80
18C0
3060
3060
3000
3000
1800
0F80
00C0
00C0
0060
0060
3060
18C0
0F80
0F80
0700
0380
0380
0F00
ENDCHAR
STARTCHAR scedilla
ENCODING 351
SWIDTH 576 0
DWIDTH 12 0
BBX 12 24 0 -5
BITMAP
0000
0000
0000
0000
0000
0000
0000
0000
0000
0000
1FC0
3060
3000
3000
1FC0
0060
0060
3060
1FC0
1FC0
0700
0380
0380
0F00
ENDCHAR
STARTCHAR Scaron
ENCODING 352
SWIDTH 576 0
DWIDTH 12 0
BBX 12 24 0 -5
BITMAP
0000
0000
18C0
0F80
0700
0000
0F80
0F80
18C0
3060
3000
1800
0F80
0F80
00C0
0060
3060
18C0
0F80
0F80
0000
0000
0000
0000
ENDCHAR
STARTCHAR scaron
ENCODING 353
SWIDTH 576 0
DWIDTH 12 0
BBX 12 24 0 -5
BITMAP
0000
0000
0000
0000
0000
18C0
0F80
0F80
0700
0000
1FC0
3060
3000
3000
1FC0
0060
0060
3060
1FC0
1FC0
0000
0000
0000
0000
ENDCHAR
STARTCHAR Tcommaaccent
ENCODING 354
SWIDTH 576 0
DWIDTH 12 0
BBX 12 24 0 -5
BITMAP
0000
0000
0000
0000
3FE0
0700
0700
0700
0700
0700
0700
0700
0700
0700
0700
0700
0700
0700
0700
0700
0700
0380
0380
0F00
ENDCHAR
STARTCHAR tcommaaccent
ENCODING 355
SWIDTH 576 0
DWIDTH 12 0
BBX 12 24 0 -5
BITMAP
0000
0000
0000
0000
0000
0000
0C00
0C00
0C00
0C00
3F80
0C00
0C00
0C00
0C00
0C00
0C00
0C60
07C0
07C0
0380
00C0
00C0
0780
ENDCHAR
STARTCHAR Tcaron
ENCODING 356
SWIDTH 576 0
DWIDTH 12 0
BBX 12 24 0 -5
BITMAP
0000
0000
18C0
0F80
0700
0000
3FE0
3FE0
0700
0700
0700
0700
0700
0700
0700
0700
0700
0700
0700
0700
0000
0000
0000
0000
ENDCHAR
STARTCHAR tcaron
ENCODING 357
SWIDTH 576 0
DWIDTH 12 0
BBX 12 24 0 -5
BITMAP
0000
0000
3380
1F00
0C00
0000
0C00
0C00
0C00
0C00
3F80
0C00
0C00
0C00
0C00
0C00
0C00
0C60
07C0
07C0
0000
0000
0000
0000
ENDCHAR
STARTCHAR Tbar
ENCODING 358
SWIDTH 576 0
DWIDTH 12 0
BBX 12 24 0 -5
BITMAP
0000
0000
0000
0000
3FE0
0700
0700
0700
0700
0700
1FC0
0700
0700
0700
0700
0700
0700
0700
0700
0700
0000
0000
0000
0000
ENDCHAR
STARTCHAR tbar
ENCODING 359
SWIDTH 576 0
DWIDTH 12 0
BBX 12 24 0 -5
BITMAP
0000
0000
0000
0000
0000
0000
0C00
0C00
0C00
0C00
3F80
0C00
1F00
1F00
0C00
0C00
0C00
0C60
07C0
07C0
0000
0000
0000
0000
ENDCHAR
STARTCHAR Utilde
ENCODING 360
SWIDTH 576 0
DWIDTH 12 0
BBX 12 24 0 -5
BITMAP
0000
0000
0C40
1FC0
1380
0000
3060
3060
3060
3060
3060
3060
3060
3060
3060
3060
3060
18C0
0F80
0F80
0000
0000
0000
0000
ENDCHAR
STARTCHAR utilde
ENCODING 361
SWIDTH 576 0
DWIDTH 12 0
BBX 12 24 0 -5
BITMAP
0000
0000
0000
0000
0000
0C40
1FC0
1FC0
1380
0000
3060
3060
3060
3060
3060
3060
3060
18E0
0F60
0F60
0000
0000
0000
0000
ENDCHAR
STARTCHAR Umacron
ENCODING 362
SWIDTH 576 0
DWIDTH 12 0
BBX 12 24 0 -5
BITMAP
0000
0000
3FE0
0000
3060
3060
3060
3060
3060
3060
3060
3060
3060
3060
3060
3060
3060
18C0
0F80
0F80
0000
0000
0000
0000
ENDCHAR
STARTCHAR umacron
ENCODING 363
SWIDTH 576 0
DWIDTH 12 0
BBX 12 24 0 -5
BITMAP
0000
0000
0000
0000
0000
0000
0000
0000
3FE0
0000
3060
3060
3060
3060
3060
3060
3060
18E0
0F60
0F60
0000
0000
0000
0000
ENDCHAR
STARTCHAR Ubreve
ENCODING 364
SWIDTH 576 0
DWIDTH 12 0
BBX 12 24 0 -5
BITMAP
0000
0000
1040
18C0
0F80
0000
3060
3060
3060
3060
3060
3060
3060
3060
3060
3060
3060
18C0
0F80
0F80
0000
0000
0000
0000
ENDCHAR
STARTCHAR ubreve
ENCODING 365
SWIDTH 576 0
DWIDTH 12 0
BBX 12 24 0 -5
BITMAP
0000
0000
0000
0000
0000
1040
18C0
18C0
0F80
0000
3060
3060
3060
3060
3060
3060
3060
18E0
0F60
0F60
0000
0000
0000
0000
ENDCHAR
STARTCHAR Uring
ENCODING 366
SWIDTH 576 0
DWIDTH 12 0
BBX 12 24 0 -5
BITMAP
0700
0700
0880
0880
0700
0000
3060
3060
3060
3060
3060
3060
3060
3060
3060
3060
3060
18C0
0F80
0F80
0000
0000
0000
0000
ENDCHAR
STARTCHAR uring
ENCODING 367
SWIDTH 576 0
DWIDTH 12 0
BBX 12 24 0 -5
BITMAP
0000
0000
0000
0000
0700
0880
0880
0880
0700
0000
3060
3060
3060
3060
3060
3060
3060
18E0
0F60
0F60
0000
0000
0000
0000
ENDCHAR
STARTCHAR Uhungarumlaut
ENCODING 368
SWIDTH 576 0
DWIDTH 12 0
BBX 12 24 0 -5
BITMAP
0000
0000
0C60
18C0
0000
3060
3060
3060
3060
3060
3060
3060
3060
3060
3060
3060
3060
18C0
0F80
0F80
0000
0000
0000
0000
ENDCHAR
STARTCHAR uhungarumlaut
ENCODING 369
SWIDTH 576 0
DWIDTH 12 0
BBX 12 24 0 -5
BITMAP
0000
0000
0000
0000
0000
0000
0C60
0C60
18C0
0000
3060
3060
3060
3060
3060
3060
3060
18E0
0F60
0F60
0000
0000
0000
0000
ENDCHAR
STARTCHAR Uogonek
ENCODING 370
SWIDTH 576 0
DWIDTH 12 0
BBX 12 24 0 -5
BITMAP
0000
0000
0000
0000
3060
3060
3060
3060
3060
3060
3060
3060
3060
3060
3060
3060
3060
18C0
0F80
0F80
0380
0780
0700
03C0
ENDCHAR
STARTCHAR uogonek
ENCODING 371
SWIDTH 576 0
DWIDTH 12 0
BBX 12 24 0 -5
BITMAP
0000
0000
0000
0000
0000
0000
0000
0000
0000
0000
3060
3060
3060
3060
3060
3060
3060
18E0
0F60
0F60
00E0
0380
0380
00E0
ENDCHAR
STARTCHAR Wcircumflex
ENCODING 372
SWIDTH 576 0
DWIDTH 12 0
BBX 12 24 0 -5
BITMAP
0700
0700
0F80
18C0
0000
3060
3060
3060
3060
3060
3760
3760
3760
3760
3760
38E0
38E0
3060
3060
3060
0000
0000
0000
0000
ENDCHAR
STARTCHAR wcircumflex
ENCODING 373
SWIDTH 576 0
DWIDTH 12 0
BBX 12 24 0 -5
BITMAP
0000
0000
0000
0000
0000
0700
0F80
0F80
18C0
0000
3060
3060
3060
3060
3760
3760
3760
3FE0
18C0
18C0
0000
0000
0000
0000
ENDCHAR
STARTCHAR Ycircumflex
ENCODING 374
SWIDTH 576 0
DWIDTH 12 0
BBX 12 24 0 -5
BITMAP
0700
0700
0F80
18C0
0000
3060
18C0
18C0
18C0
0F80
0F80
0700
0700
0700
0700
0700
0700
0700
0700
0700
0000
0000
0000
0000
ENDCHAR
STARTCHAR ycircumflex
ENCODING 375
SWIDTH 576 0
DWIDTH 12 0
BBX 12 24 0 -5
BITMAP
0000
0000
0000
0000
0000
0700
0F80
0F80
18C0
0000
3060
3060
3060
3060
3060
3060
3060
18E0
0F60
0F60
0060
3060
18C0
0F80
ENDCHAR
STARTCHAR Ydieresis
ENCODING 376
SWIDTH 576 0
DWIDTH 12 0
BBX 12 24 0 -5
BITMAP
0000
0000
18C0
18C0
0000
3060
3060
3060
18C0
18C0
0F80
0F80
0700
0700
0700
0700
0700
0700
0700
0700
0000
0000
0000
0000
ENDCHAR
STARTCHAR Zacute
ENCODING 377
SWIDTH 576 0
DWIDTH 12 0
BBX 12 24 0 -5
BITMAP
00C0
00C0
0380
0700
0000
3FE0
0060
0060
00C0
0380
0380
0700
0C00
0C00
0C00
1800
3000
3000
3FE0
3FE0
0000
0000
0000
0000
ENDCHAR
STARTCHAR zacute
ENCODING 378
SWIDTH 576 0
DWIDTH 12 0
BBX 12 24 0 -5
BITMAP
0000
0000
0000
0000
0000
00C0
0380
0380
0700
0000
1FE0
0060
00C0
00C0
0380
0700
0C00
1800
1FE0
1FE0
0000
0000
0000
0000
ENDCHAR
STARTCHAR Zdotaccent
ENCODING 379
SWIDTH 576 0
DWIDTH 12 0
BBX 12 24 0 -5
BITMAP
0000
0000
0700
0700
0000
3FE0
0060
0060
00C0
0380
0380
0700
0C00
0C00
0C00
1800
3000
3000
3FE0
3FE0
0000
0000
0000
0000
ENDCHAR
STARTCHAR zdotaccent
ENCODING 380
SWIDTH 576 0
DWIDTH 12 0
BBX 12 24 0 -5
BITMAP
0000
0000
0000
0000
0000
0000
0380
0380
0380
0000
1FE0
0060
00C0
00C0
0380
0700
0C00
1800
1FE0
1FE0
0000
0000
0000
0000
ENDCHAR
STARTCHAR Zcaron
ENCODING 381
SWIDTH 576 0
DWIDTH 12 0
BBX 12 24 0 -5
BITMAP
0000
0000
18C0
0F80
0700
0000
3FE0
3FE0
0060
00C0
0380
0380
0700
0700
0C00
0C00
1800
3000
3FE0
3FE0
0000
0000
0000
0000
ENDCHAR
STARTCHAR zcaron
ENCODING 382
SWIDTH 576 0
DWIDTH 12 0
BBX 12 24 0 -5
BITMAP
0000
0000
0000
0000
0000
18C0
0F80
0F80
0700
0000
1FE0
0060
00C0
00C0
0380
0700
0C00
1800
1FE0
1FE0
0000
0000
0000
0000
ENDCHAR
STARTCHAR longs
ENCODING 383
SWIDTH 576 0
DWIDTH 12 0
BBX 12 24 0 -5
BITMAP
0000
0000
0000
0000
07C0
0C60
0C00
0C00
0C00
0C00
3C00
0C00
0C00
0C00
0C00
0C00
0C00
0C00
0C00
0C00
0000
0000
0000
0000
ENDCHAR
STARTCHAR uni0180
ENCODING 384
SWIDTH 576 0
DWIDTH 12 0
BBX 12 24 0 -5
BITMAP
0000
0000
0000
0000
3000
3000
FC00
FC00
3000
3000
3780
38C0
3060
3060
3060
3060
3060
38C0
3780
3780
0000
0000
0000
0000
ENDCHAR
STARTCHAR uni0181
ENCODING 385
SWIDTH 576 0
DWIDTH 12 0
BBX 12 24 0 -5
BITMAP
0000
0000
0000
0000
3F00
DB80
D8C0
D8C0
18C0
18C0
1B80
1F80
18C0
18C0
1860
1860
1860
18C0
1F80
1F80
0000
0000
0000
0000
ENDCHAR
STARTCHAR uni0182
ENCODING 386
SWIDTH 576 0
DWIDTH 12 0
BBX 12 24 0 -5
BITMAP
0000
0000
0000
0000
3FC0
3000
3000
3000
3000
3000
3F80
30C0
3060
3060
3060
3060
3060
30C0
3F80
3F80
0000
0000
0000
0000
ENDCHAR
STARTCHAR uni0183
ENCODING 387
SWIDTH 576 0
DWIDTH 12 0
BBX 12 24 0 -5
BITMAP
0000
0000
0000
0000
3F80
3000
3000
3000
3000
3000
3700
3B80
30C0
30C0
30C0
30C0
30C0
3B80
3700
3700
0000
0000
0000
0000
ENDCHAR
STARTCHAR uni0184
ENCODING 388
SWIDTH 576 0
DWIDTH 12 0
BBX 12 24 0 -5
BITMAP
0000
0000
0000
0000
3000
F000
F000
F000
3000
3000
3F80
30C0
3060
3060
3060
3060
3060
30C0
3F80
3F80
0000
0000
0000
0000
ENDCHAR
STARTCHAR uni0185
ENCODING 389
SWIDTH 576 0
DWIDTH 12 0
BBX 12 24 0 -5
BITMAP
0000
0000
0000
0000
0000
1800
3800
3800
3800
1800
1B80
1CC0
1860
1860
1860
1860
1860
1CC0
1B80
1B80
0000
0000
0000
0000
ENDCHAR
STARTCHAR uni0186
ENCODING 390
SWIDTH 576 0
DWIDTH 12 0
BBX 12 24 0 -5
BITMAP
0000
0000
0000
0000
0F80
18C0
3060
3060
0060
0060
0060
0060
0060
0060
0060
0060
3060
18C0
0F80
0F80
0000
0000
0000
0000
ENDCHAR
STARTCHAR uni0187
ENCODING 391
SWIDTH 576 0
DWIDTH 12 0
BBX 12 24 0 -5
BITMAP
0000
0000
0030
0060
0FC0
18C0
3040
3040
3000
3000
3000
3000
3000
3000
3000
3000
3060
18C0
0F80
0F80
0000
0000
0000
0000
ENDCHAR
STARTCHAR uni0188
ENCODING 392
SWIDTH 576 0
DWIDTH 12 0
BBX 12 24 0 -5
BITMAP
0000
0000
0000
0000
0000
0000
0030
0030
0060
0040
0FC0
1840
3000
3000
3000
3000
3000
1860
0FC0
0FC0
0000
0000
0000
0000
ENDCHAR
STARTCHAR uni0189
ENCODING 393
SWIDTH 576 0
DWIDTH 12 0
BBX 12 24 0 -5
BITMAP
0000
0000
0000
0000
3F80
30C0
3060
3060
3060
3060
3060
F860
3060
3060
3060
3060
3060
30C0
3F80
3F80
0000
0000
0000
0000
ENDCHAR
STARTCHAR uni018A
ENCODING 394
SWIDTH 576 0
DWIDTH 12 0
BBX 12 24 0 -5
BITMAP
0000
0000
0000
0000
3F80
D8C0
D860
D860
1860
1860
1860
1860
1860
1860
1860
1860
1860
18C0
1F80
1F80
0000
0000
0000
0000
ENDCHAR
STARTCHAR uni018B
ENCODING 395
SWIDTH 576 0
DWIDTH 12 0
BBX 12 24 0 -5
BITMAP
0000
0000
0000
0000
1FE0
0060
0060
0060
0060
0060
0FE0
1860
3060
3060
3060
3060
3060
1860
0FE0
0FE0
0000
0000
0000
0000
ENDCHAR
STARTCHAR uni018C
ENCODING 396
SWIDTH 576 0
DWIDTH 12 0
BBX 12 24 0 -5
BITMAP
0000
0000
0000
0000
1FC0
00C0
00C0
00C0
00C0
00C0
0CC0
1BC0
30C0
30C0
30C0
30C0
30C0
1BC0
0CC0
0CC0
0000
0000
0000
0000
ENDCHAR
STARTCHAR uni018D
ENCODING 397
SWIDTH 576 0
DWIDTH 12 0
BBX 12 24 0 -5
BITMAP
0000
0000
0000
0000
0000
0000
0000
0000
0000
0000
0F80
18C0
3060
3060
3060
3060
3060
18C0
0F80
0F80
0380
00C0
1860
0FC0
ENDCHAR
STARTCHAR uni018E
ENCODING 398
SWIDTH 576 0
DWIDTH 12 0
BBX 12 24 0 -5
BITMAP
0000
0000
0000
0000
3FE0
0060
0060
0060
0060
0060
0060
0FE0
0060
0060
0060
0060
0060
0060
3FE0
3FE0
0000
0000
0000
0000
ENDCHAR
STARTCHAR uni018F
ENCODING 399
SWIDTH 576 0
DWIDTH 12 0
BBX 12 24 0 -5
BITMAP
0000
0000
0000
0000
0F80
18C0
3060
3060
0060
0060
0060
3FE0
3060
3060
3060
3060
3060
18C0
0F80
0F80
0000
0000
0000
0000
ENDCHAR
STARTCHAR uni0190
ENCODING 400
SWIDTH 576 0
DWIDTH 12 0
BBX 12 24 0 -5
BITMAP
0000
0000
0000
0000
0FC0
1860
3000
3000
3000
3000
1800
0FC0
1800
1800
3000
3000
3000
1860
0FC0
0FC0
0000
0000
0000
0000
ENDCHAR
STARTCHAR uni0191
ENCODING 401
SWIDTH 576 0
DWIDTH 12 0
BBX 12 24 0 -5
BITMAP
0000
0000
0000
0000
3FE0
3000
3000
3000
3000
3000
3000
3F80
3000
3000
3000
3000
3000
3000
3000
3000
3000
3000
E000
0000
ENDCHAR
STARTCHAR florin
ENCODING 402
SWIDTH 576 0
DWIDTH 12 0
BBX 12 24 0 -5
BITMAP
0000
0000
0000
0000
07C0
0C60
0C60
0C60
0C00
0C00
3F80
0C00
0C00
0C00
0C00
0C00
0C00
0C00
0C00
0C00
0C00
EC00
3800
0000
ENDCHAR
STARTCHAR uni0193
ENCODING 403
SWIDTH 576 0
DWIDTH 12 0
BBX 12 24 0 -5
BITMAP
0000
0000
0030
0060
0FC0
18C0
3000
3000
3000
3000
3000
33E0
3060
3060
3060
3060
3060
18E0
0FA0
0FA0
0000
0000
0000
0000
ENDCHAR
STARTCHAR uni0194
ENCODING 404
SWIDTH 576 0
DWIDTH 12 0
BBX 12 24 0 -5
BITMAP
0000
0000
0000
0000
3060
3060
3060
3060
18C0
18C0
18C0
0F80
0F80
0F80
0700
0F80
18C0
18C0
0F80
0F80
0000
0000
0000
0000
ENDCHAR
STARTCHAR uni0195
ENCODING 405
SWIDTH 576 0
DWIDTH 12 0
BBX 12 24 0 -5
BITMAP
0000
0000
0000
0000
3000
3000
3000
3000
3000
3000
3C60
3760
3760
3760
3760
3760
3760
3760
33C0
33C0
0000
0000
0000
0000
ENDCHAR
STARTCHAR uni0196
ENCODING 406
SWIDTH 576 0
DWIDTH 12 0
BBX 12 24 0 -5
BITMAP
0000
0000
0000
0000
1F00
0700
0700
0700
0700
0700
0700
0700
0700
0700
0700
0700
0700
0760
03C0
03C0
0000
0000
0000
0000
ENDCHAR
STARTCHAR uni0197
ENCODING 407
SWIDTH 576 0
DWIDTH 12 0
BBX 12 24 0 -5
BITMAP
0000
0000
0000
0000
3FE0
0700
0700
0700
0700
0700
1FC0
0700
0700
0700
0700
0700
0700
0700
3FE0
3FE0
0000
0000
0000
0000
ENDCHAR
STARTCHAR uni0198
ENCODING 408
SWIDTH 576 0
DWIDTH 12 0
BBX 12 24 0 -5
BITMAP
0000
0000
0000
0000
30E0
33B0
3380
3380
3700
3700
3700
3C00
3700
3700
3700
3380
3380
30C0
30C0
30C0
0000
0000
0000
0000
ENDCHAR
STARTCHAR uni0199
ENCODING 409
SWIDTH 576 0
DWIDTH 12 0
BBX 12 24 0 -5
BITMAP
0000
0000
0000
0000
1C00
3000
3000
3000
3000
3000
30C0
3380
3700
3700
3C00
3F00
3380
30C0
3060
3060
0000
0000
0000
0000
ENDCHAR
STARTCHAR uni019A
ENCODING 410
SWIDTH 576 0
DWIDTH 12 0
BBX 12 24 0 -5
BITMAP
0000
0000
0000
0000
1F00
0700
0700
0700
0700
0700
1FC0
0700
0700
0700
0700
0700
0700
0700
3FE0
3FE0
0000
0000
0000
0000
ENDCHAR
STARTCHAR uni019B
ENCODING 411
SWIDTH 576 0
DWIDTH 12 0
BBX 12 24 0 -5
BITMAP
0000
0000
0000
0000
3000
3380
1F00
1F00
1C00
3C00
E700
0700
0F80
0F80
0F80
18C0
18C0
3060
3060
3060
0000
0000
0000
0000
ENDCHAR
STARTCHAR uni019C
ENCODING 412
SWIDTH 576 0
DWIDTH 12 0
BBX 12 24 0 -5
BITMAP
0000
0000
0000
0000
3760
3760
3760
3760
3760
3760
3760
3760
3760
3760
3760
3760
3760
3FE0
1BA0
1BA0
0000
0000
0000
0000
ENDCHAR
STARTCHAR uni019D
ENCODING 413
SWIDTH 576 0
DWIDTH 12 0
BBX 12 24 0 -5
BITMAP
0000
0000
0000
0000
3060
3860
3860
3860
3C60
3C60
3760
3760
33E0
33E0
33E0
30E0
30E0
3060
3060
3060
3000
3000
3000
E000
ENDCHAR
STARTCHAR uni019E
ENCODING 414
SWIDTH 576 0
DWIDTH 12 0
BBX 12 24 0 -5
BITMAP
0000
0000
0000
0000
0000
0000
0000
0000
0000
0000
3780
38C0
3060
3060
3060
3060
3060
3060
3060
3060
0060
0060
0060
0060
ENDCHAR
STARTCHAR uni019F
ENCODING 415
SWIDTH 576 0
DWIDTH 12 0
BBX 12 24 0 -5
BITMAP
0000
0000
0000
0000
0F80
18C0
3060
3060
3060
3060
3060
3FE0
3060
3060
3060
3060
3060
18C0
0F80
0F80
0000
0000
0000
0000
ENDCHAR
STARTCHAR Ohorn
ENCODING 416
SWIDTH 576 0
DWIDTH 12 0
BBX 12 24 0 -5
BITMAP
0000
0000
0000
0000
0F30
1BB0
30E0
30E0
30C0
30C0
30C0
30C0
30C0
30C0
30C0
30C0
30C0
1B80
0F00
0F00
0000
0000
0000
0000
ENDCHAR
STARTCHAR ohorn
ENCODING 417
SWIDTH 576 0
DWIDTH 12 0
BBX 12 24 0 -5
BITMAP
0000
0000
0000
0000
0000
0000
0000
0000
0000
0000
0F30
1BB0
30E0
30E0
30C0
30C0
30C0
1B80
0F00
0F00
0000
0000
0000
0000
ENDCHAR
STARTCHAR uni01A2
ENCODING 418
SWIDTH 576 0
DWIDTH 12 0
BBX 12 24 0 -5
BITMAP
0000
0000
0000
0000
1BC0
3F60
E760
E760
E760
E760
E760
E760
E760
E760
E760
E760
E760
3C60
1860
1860
0060
0060
0060
0060
ENDCHAR
STARTCHAR uni01A3
ENCODING 419
SWIDTH 576 0
DWIDTH 12 0
BBX 12 24 0 -5
BITMAP
0000
0000
0000
0000
0000
0000
0000
0000
0000
0000
1BC0
3F60
E760
E760
E760
E760
E760
3C60
1860
1860
0060
0060
0060
0060
ENDCHAR
STARTCHAR uni01A4
ENCODING 420
SWIDTH 576 0
DWIDTH 12 0
BBX 12 24 0 -5
BITMAP
0000
0000
0000
0000
3F80
D8C0
D860
D860
1860
1860
1860
18C0
1F80
1F80
1800
1800
1800
1800
1800
1800
0000
0000
0000
0000
ENDCHAR
STARTCHAR uni01A5
ENCODING 421
SWIDTH 576 0
DWIDTH 12 0
BBX 12 24 0 -5
BITMAP
0000
0000
0000
0000
1C00
3700
3000
3000
3000
3000
3780
38C0
3060
3060
3060
3060
3060
38C0
3780
3780
3000
3000
3000
3000
ENDCHAR
STARTCHAR uni01A6
ENCODING 422
SWIDTH 576 0
DWIDTH 12 0
BBX 12 24 0 -5
BITMAP
0000
0000
3000
3000
3F80
30C0
3060
3060
3060
3060
3060
30C0
3F80
3F80
3380
30C0
30C0
3060
3060
3060
0030
0030
0000
0000
ENDCHAR
STARTCHAR uni01A7
ENCODING 423
SWIDTH 576 0
DWIDTH 12 0
BBX 12 24 0 -5
BITMAP
0000
0000
0000
0000
0F80
18C0
3060
3060
0060
0060
00C0
0F80
1800
1800
3000
3000
3060
18C0
0F80
0F80
0000
0000
0000
0000
ENDCHAR
STARTCHAR uni01A8
ENCODING 424
SWIDTH 576 0
DWIDTH 12 0
BBX 12 24 0 -5
BITMAP
0000
0000
0000
0000
0000
0000
0000
0000
0000
0000
1FC0
3060
0060
0060
1FC0
3000
3000
3060
1FC0
1FC0
0000
0000
0000
0000
ENDCHAR
STARTCHAR uni01A9
ENCODING 425
SWIDTH 576 0
DWIDTH 12 0
BBX 12 24 0 -5
BITMAP
0000
0000
0000
0000
3FE0
3000
1800
1800
0C00
0700
0380
0380
0700
0700
0C00
0C00
1800
3000
3FE0
3FE0
0000
0000
0000
0000
ENDCHAR
STARTCHAR uni01AA
ENCODING 426
SWIDTH 576 0
DWIDTH 12 0
BBX 12 24 0 -5
BITMAP
0000
0000
0000
0000
1C00
3700
2300
2300
3700
1F00
0700
0700
0700
0700
0700
0700
0700
0700
0700
0700
0700
0700
0380
00E0
ENDCHAR
STARTCHAR uni01AB
ENCODING 427
SWIDTH 576 0
DWIDTH 12 0
BBX 12 24 0 -5
BITMAP
0000
0000
0000
0000
0000
0000
0C00
0C00
0C00
0C00
3F80
0C00
0C00
0C00
0C00
0C00
0C00
0C00
07E0
07E0
0060
0060
00C0
0F80
ENDCHAR
STARTCHAR uni01AC
ENCODING 428
SWIDTH 576 0
DWIDTH 12 0
BBX 12 24 0 -5
BITMAP
0000
0000
0000
0000
3FE0
E700
E700
E700
E700
0700
0700
0700
0700
0700
0700
0700
0700
0700
0700
0700
0000
0000
0000
0000
ENDCHAR
STARTCHAR uni01AD
ENCODING 429
SWIDTH 576 0
DWIDTH 12 0
BBX 12 24 0 -5
BITMAP
0000
0000
0000
0000
0000
07C0
0C60
0C60
0C00
0C00
3F80
0C00
0C00
0C00
0C00
0C00
0C00
0C60
07C0
07C0
0000
0000
0000
0000
ENDCHAR
STARTCHAR uni01AE
ENCODING 430
SWIDTH 576 0
DWIDTH 12 0
BBX 12 24 0 -5
BITMAP
0000
0000
0000
0000
3FE0
0700
0700
0700
0700
0700
0700
0700
0700
0700
0700
0700
0700
0700
0700
0700
0700
0700
0700
03C0
ENDCHAR
STARTCHAR Uhorn
ENCODING 431
SWIDTH 576 0
DWIDTH 12 0
BBX 12 24 0 -5
BITMAP
0000
0000
0000
0000
33B0
33B0
33E0
33E0
3380
3380
3380
3380
3380
3380
3380
3380
3380
1F00
0C00
0C00
0000
0000
0000
0000
ENDCHAR
STARTCHAR uhorn
ENCODING 432
SWIDTH 576 0
DWIDTH 12 0
BBX 12 24 0 -5
BITMAP
0000
0000
0000
0000
0000
0000
0000
0000
0000
0000
33B0
33B0
33E0
33E0
3380
3380
3380
1F80
0F80
0F80
0000
0000
0000
0000
ENDCHAR
STARTCHAR uni01B1
ENCODING 433
SWIDTH 576 0
DWIDTH 12 0
BBX 12 24 0 -5
BITMAP
0000
0000
0000
0000
38E0
0880
18C0
18C0
3060
3060
3060
3060
3060
3060
3060
3060
3060
18C0
0F80
0F80
0000
0000
0000
0000
ENDCHAR
STARTCHAR uni01B2
ENCODING 434
SWIDTH 576 0
DWIDTH 12 0
BBX 12 24 0 -5
BITMAP
0000
0000
0000
0000
3380
3380
30C0
30C0
30C0
3060
3060
3060
3060
3060
3060
3060
3060
18C0
0F80
0F80
0000
0000
0000
0000
ENDCHAR
STARTCHAR uni01B3
ENCODING 435
SWIDTH 576 0
DWIDTH 12 0
BBX 12 24 0 -5
BITMAP
0000
0000
0000
0000
3C60
EC60
EC60
EC60
0C60
07C0
07C0
0380
0380
0380
0380
0380
0380
0380
0380
0380
0000
0000
0000
0000
ENDCHAR
STARTCHAR uni01B4
ENCODING 436
SWIDTH 576 0
DWIDTH 12 0
BBX 12 24 0 -5
BITMAP
0000
0000
0000
0000
0000
0000
0070
0070
00C0
00C0
30C0
30C0
30C0
30C0
30C0
30C0
30C0
1BC0
0CC0
0CC0
00C0
30C0
1B80
0F00
ENDCHAR
STARTCHAR uni01B5
ENCODING 437
SWIDTH 576 0
DWIDTH 12 0
BBX 12 24 0 -5
BITMAP
0000
0000
0000
0000
3FE0
0060
0060
0060
00C0
00C0
0380
1FC0
0C00
0C00
1800
1800
3000
3000
3FE0
3FE0
0000
0000
0000
0000
ENDCHAR
STARTCHAR uni01B6
ENCODING 438
SWIDTH 576 0
DWIDTH 12 0
BBX 12 24 0 -5
BITMAP
0000
0000
0000
0000
0000
0000
0000
0000
0000
0000
1FE0
0060
00C0
00C0
0FE0
0700
0C00
1800
1FE0
1FE0
0000
0000
0000
0000
ENDCHAR
STARTCHAR uni01B7
ENCODING 439
SWIDTH 576 0
DWIDTH 12 0
BBX 12 24 0 -5
BITMAP
0000
0000
0000
0000
3FE0
0060
00C0
00C0
0380
0700
0F80
00C0
0060
0060
0060
3060
3060
18C0
0F80
0F80
0000
0000
0000
0000
ENDCHAR
STARTCHAR uni01B8
ENCODING 440
SWIDTH 576 0
DWIDTH 12 0
BBX 12 24 0 -5
BITMAP
0000
0000
0000
0000
3FE0
3000
1800
1800
0C00
0700
0F80
1800
3000
3000
3000
3060
3060
18C0
0F80
0F80
0000
0000
0000
0000
ENDCHAR
STARTCHAR uni01B9
ENCODING 441
SWIDTH 576 0
DWIDTH 12 0
BBX 12 24 0 -5
BITMAP
0000
0000
0000
0000
0000
0000
0000
0000
0000
0000
3FC0
3000
1800
1800
0C00
0700
0F80
1800
3000
3000
3060
3060
18C0
0F80
ENDCHAR
STARTCHAR uni01BA
ENCODING 442
SWIDTH 576 0
DWIDTH 12 0
BBX 12 24 0 -5
BITMAP
0000
0000
0000
0000
0000
0000
0000
0000
0000
0000
1FE0
0060
00C0
00C0
0380
0FC0
0060
0060
03C0
03C0
0700
0C00
0CC0
0780
ENDCHAR
STARTCHAR uni01BB
ENCODING 443
SWIDTH 576 0
DWIDTH 12 0
BBX 12 24 0 -5
BITMAP
0000
0000
0000
0000
0F80
18C0
3060
3060
3060
0060
0060
00C0
3FE0
3FE0
0C00
1800
3000
3000
3FE0
3FE0
0000
0000
0000
0000
ENDCHAR
STARTCHAR uni01BC
ENCODING 444
SWIDTH 576 0
DWIDTH 12 0
BBX 12 24 0 -5
BITMAP
0000
0000
0000
0000
3FE0
3020
3000
3000
3000
3000
3780
38C0
0060
0060
0060
0060
3060
18C0
0F80
0F80
0000
0000
0000
0000
ENDCHAR
STARTCHAR uni01BD
ENCODING 445
SWIDTH 576 0
DWIDTH 12 0
BBX 12 24 0 -5
BITMAP
0000
0000
0000
0000
1FC0
1840
1800
1800
1800
1800
1F80
1CC0
00C0
00C0
00C0
00C0
18C0
0F80
0700
0700
0000
0000
0000
0000
ENDCHAR
STARTCHAR uni01BE
ENCODING 446
SWIDTH 576 0
DWIDTH 12 0
BBX 12 24 0 -5
BITMAP
0000
0000
0000
0000
0000
0000
0C00
0C00
0C00
0C00
3F80
0C00
0C00
0C00
0700
0380
00C0
18C0
0F80
0F80
0000
0000
0000
0000
ENDCHAR
STARTCHAR uni01BF
ENCODING 447
SWIDTH 576 0
DWIDTH 12 0
BBX 12 24 0 -5
BITMAP
0000
0000
0000
0000
0000
0000
0000
0000
0000
0000
3780
38C0
3060
3060
3060
3060
3060
30C0
3780
3780
3C00
3000
3000
3000
ENDCHAR
STARTCHAR uni01C0
ENCODING 448
SWIDTH 576 0
DWIDTH 12 0
BBX 12 24 0 -5
BITMAP
0000
0000
0000
0000
0700
0700
0700
0700
0700
0700
0700
0700
0700
0700
0700
0700
0700
0700
0700
0700
0700
0700
0000
0000
ENDCHAR
STARTCHAR uni01C1
ENCODING 449
SWIDTH 576 0
DWIDTH 12 0
BBX 12 24 0 -5
BITMAP
0000
0000
0000
0000
18C0
18C0
18C0
18C0
18C0
18C0
18C0
18C0
18C0
18C0
18C0
18C0
18C0
18C0
18C0
18C0
18C0
18C0
0000
0000
ENDCHAR
STARTCHAR uni01C2
ENCODING 450
SWIDTH 576 0
DWIDTH 12 0
BBX 12 24 0 -5
BITMAP
0000
0000
0000
0000
0000
0000
0000
0000
0000
0700
0700
3FE0
0700
0700
0700
0700
3FE0
0700
0700
0700
0000
0000
0000
0000
ENDCHAR
STARTCHAR uni01C3
ENCODING 451
SWIDTH 576 0
DWIDTH 12 0
BBX 12 24 0 -5
BITMAP
0000
0000
0000
0000
0700
0700
0700
0700
0700
0700
0700
0700
0700
0700
0700
0000
0000
0700
0700
0700
0000
0000
0000
0000
ENDCHAR
STARTCHAR uni01C4
ENCODING 452
SWIDTH 576 0
DWIDTH 12 0
BBX 12 24 0 -5
BITMAP
0000
0000
03B0
00E0
0000
F8F0
EC30
EC30
EC30
EC30
EC60
EC60
EC60
EC60
EC60
ECC0
ECC0
ECC0
F8F0
F8F0
0000
0000
0000
0000
ENDCHAR
STARTCHAR uni01C5
ENCODING 453
SWIDTH 576 0
DWIDTH 12 0
BBX 12 24 0 -5
BITMAP
0000
0000
0000
0000
F800
EC00
EFB0
EFB0
ECE0
EC00
ECF0
EC30
EC30
EC30
EC60
EC60
ECC0
ECC0
F8F0
F8F0
0000
0000
0000
0000
ENDCHAR
STARTCHAR uni01C6
ENCODING 454
SWIDTH 576 0
DWIDTH 12 0
BBX 12 24 0 -5
BITMAP
0000
0000
0000
0000
0C00
0C00
0FB0
0FB0
0CE0
0C00
3CF0
EC30
EC30
EC30
EC60
EC60
ECC0
ECC0
3CF0
3CF0
0000
0000
0000
0000
ENDCHAR
STARTCHAR uni01C7
ENCODING 455
SWIDTH 576 0
DWIDTH 12 0
BBX 12 24 0 -5
BITMAP
0000
0000
0000
0000
E3E0
E060
E060
E060
E060
E060
E060
E060
E060
E060
E060
E060
E060
E760
FBC0
FBC0
0000
0000
0000
0000
ENDCHAR
STARTCHAR uni01C8
ENCODING 456
SWIDTH 576 0
DWIDTH 12 0
BBX 12 24 0 -5
BITMAP
0000
0000
0000
0000
E000
E000
E060
E060
E060
E000
E3E0
E060
E060
E060
E060
E060
E060
E060
FC60
FC60
0060
1860
1860
0FC0
ENDCHAR
STARTCHAR uni01C9
ENCODING 457
SWIDTH 576 0
DWIDTH 12 0
BBX 12 24 0 -5
BITMAP
0000
0000
0000
0000
3800
1800
1860
1860
1860
1800
1BE0
1860
1860
1860
1860
1860
1860
1860
FF60
FF60
0060
1860
1860
0FC0
ENDCHAR
STARTCHAR uni01CA
ENCODING 458
SWIDTH 576 0
DWIDTH 12 0
BBX 12 24 0 -5
BITMAP
0000
0000
0000
0000
E760
E760
E760
E760
F760
F760
F760
FF60
EF60
EF60
EF60
EF60
E760
E760
E760
E760
0060
18C0
0F80
0000
ENDCHAR
STARTCHAR uni01CB
ENCODING 459
SWIDTH 576 0
DWIDTH 12 0
BBX 12 24 0 -5
BITMAP
0000
0000
0000
0000
E700
E700
E760
E760
F760
F700
F760
FF60
EF60
EF60
EF60
EF60
E760
E760
E760
E760
0060
1860
1860
0FC0
ENDCHAR
STARTCHAR uni01CC
ENCODING 460
SWIDTH 576 0
DWIDTH 12 0
BBX 12 24 0 -5
BITMAP
0000
0000
0000
0000
0000
0000
0060
0060
0060
0000
EC60
F760
E760
E760
E760
E760
E760
E760
E760
E760
0060
1860
1860
0FC0
ENDCHAR
STARTCHAR uni01CD
ENCODING 461
SWIDTH 576 0
DWIDTH 12 0
BBX 12 24 0 -5
BITMAP
0000
0000
18C0
0F80
0700
0000
0700
0700
0F80
18C0
18C0
3060
3060
3060
3FE0
3060
3060
3060
3060
3060
0000
0000
0000
0000
ENDCHAR
STARTCHAR uni01CE
ENCODING 462
SWIDTH 576 0
DWIDTH 12 0
BBX 12 24 0 -5
BITMAP
0000
0000
0000
0000
0000
18C0
0F80
0F80
0700
0000
0FC0
1860
0060
0060
1FE0
3060
3060
3060
1FA0
1FA0
0000
0000
0000
0000
ENDCHAR
STARTCHAR uni01CF
ENCODING 463
SWIDTH 576 0
DWIDTH 12 0
BBX 12 24 0 -5
BITMAP
0000
0000
18C0
0F80
0700
0000
3FE0
3FE0
0700
0700
0700
0700
0700
0700
0700
0700
0700
0700
3FE0
3FE0
0000
0000
0000
0000
ENDCHAR
STARTCHAR uni01D0
ENCODING 464
SWIDTH 576 0
DWIDTH 12 0
BBX 12 24 0 -5
BITMAP
0000
0000
0000
0000
0000
18C0
0F80
0F80
0700
0000
1F00
0700
0700
0700
0700
0700
0700
0700
3FE0
3FE0
0000
0000
0000
0000
ENDCHAR
STARTCHAR uni01D1
ENCODING 465
SWIDTH 576 0
DWIDTH 12 0
BBX 12 24 0 -5
BITMAP
0000
0000
18C0
0F80
0700
0000
0F80
0F80
18C0
3060
3060
3060
3060
3060
3060
3060
3060
18C0
0F80
0F80
0000
0000
0000
0000
ENDCHAR
STARTCHAR uni01D2
ENCODING 466
SWIDTH 576 0
DWIDTH 12 0
BBX 12 24 0 -5
BITMAP
0000
0000
0000
0000
0000
18C0
0F80
0F80
0700
0000
0F80
18C0
3060
3060
3060
3060
3060
18C0
0F80
0F80
0000
0000
0000
0000
ENDCHAR
STARTCHAR uni01D3
ENCODING 467
SWIDTH 576 0
DWIDTH 12 0
BBX 12 24 0 -5
BITMAP
0000
0000
18C0
0F80
0700
3060
3060
3060
3060
3060
3060
3060
3060
3060
3060
3060
3060
18C0
0F80
0F80
0000
0000
0000
0000
ENDCHAR
STARTCHAR uni01D4
ENCODING 468
SWIDTH 576 0
DWIDTH 12 0
BBX 12 24 0 -5
BITMAP
0000
0000
0000
0000
0000
18C0
0F80
0F80
0700
0000
3060
3060
3060
3060
3060
3060
3060
18E0
0F60
0F60
0000
0000
0000
0000
ENDCHAR
STARTCHAR uni01D5
ENCODING 469
SWIDTH 576 0
DWIDTH 12 0
BBX 12 24 0 -5
BITMAP
0000
0000
3FE0
0000
18C0
18C0
0000
0000
3060
3060
3060
3060
3060
3060
3060
3060
3060
18C0
0F80
0F80
0000
0000
0000
0000
ENDCHAR
STARTCHAR uni01D6
ENCODING 470
SWIDTH 576 0
DWIDTH 12 0
BBX 12 24 0 -5
BITMAP
0000
0000
0000
0000
3FE0
0000
18C0
18C0
18C0
0000
3060
3060
3060
3060
3060
3060
3060
18E0
0F60
0F60
0000
0000
0000
0000
ENDCHAR
STARTCHAR uni01D7
ENCODING 471
SWIDTH 576 0
DWIDTH 12 0
BBX 12 24 0 -5
BITMAP
0380
0380
0700
0000
18C0
18C0
0000
0000
3060
3060
3060
3060
3060
3060
3060
3060
3060
18C0
0F80
0F80
0000
0000
0000
0000
ENDCHAR
STARTCHAR uni01D8
ENCODING 472
SWIDTH 576 0
DWIDTH 12 0
BBX 12 24 0 -5
BITMAP
0000
0000
0000
0380
0700
0000
18C0
18C0
18C0
0000
3060
3060
3060
3060
3060
3060
3060
18E0
0F60
0F60
0000
0000
0000
0000
ENDCHAR
STARTCHAR uni01D9
ENCODING 473
SWIDTH 576 0
DWIDTH 12 0
BBX 12 24 0 -5
BITMAP
0CC0
0CC0
0780
0000
18C0
18C0
0000
0000
3060
3060
3060
3060
3060
3060
3060
3060
3060
18C0
0F80
0F80
0000
0000
0000
0000
ENDCHAR
STARTCHAR uni01DA
ENCODING 474
SWIDTH 576 0
DWIDTH 12 0
BBX 12 24 0 -5
BITMAP
0000
0000
0000
0CC0
0780
0000
18C0
18C0
18C0
0000
3060
3060
3060
3060
3060
3060
3060
18E0
0F60
0F60
0000
0000
0000
0000
ENDCHAR
STARTCHAR uni01DB
ENCODING 475
SWIDTH 576 0
DWIDTH 12 0
BBX 12 24 0 -5
BITMAP
0C00
0C00
0700
0000
18C0
18C0
0000
0000
3060
3060
3060
3060
3060
3060
3060
3060
3060
18C0
0F80
0F80
0000
0000
0000
0000
ENDCHAR
STARTCHAR uni01DC
ENCODING 476
SWIDTH 576 0
DWIDTH 12 0
BBX 12 24 0 -5
BITMAP
0000
0000
0000
0C00
0700
0000
18C0
18C0
18C0
0000
3060
3060
3060
3060
3060
3060
3060
18E0
0F60
0F60
0000
0000
0000
0000
ENDCHAR
STARTCHAR uni01DD
ENCODING 477
SWIDTH 576 0
DWIDTH 12 0
BBX 12 24 0 -5
BITMAP
0000
0000
0000
0000
0000
0000
0000
0000
0000
0000
1F80
30C0
0060
0060
0060
3FE0
3060
18C0
0F80
0F80
0000
0000
0000
0000
ENDCHAR
STARTCHAR uni01DE
ENCODING 478
SWIDTH 576 0
DWIDTH 12 0
BBX 12 24 0 -5
BITMAP
3FE0
3FE0
0000
18C0
18C0
0000
0700
0700
0F80
18C0
3060
3060
3060
3060
3FE0
3060
3060
3060
3060
3060
0000
0000
0000
0000
ENDCHAR
STARTCHAR uni01DF
ENCODING 479
SWIDTH 576 0
DWIDTH 12 0
BBX 12 24 0 -5
BITMAP
0000
0000
0000
0000
3FE0
0000
18C0
18C0
18C0
0000
0FC0
1860
0060
0060
1FE0
3060
3060
3060
1FA0
1FA0
0000
0000
0000
0000
ENDCHAR
STARTCHAR uni01E0
ENCODING 480
SWIDTH 576 0
DWIDTH 12 0
BBX 12 24 0 -5
BITMAP
3FE0
3FE0
0000
0700
0700
0000
0700
0700
0F80
18C0
3060
3060
3060
3060
3FE0
3060
3060
3060
3060
3060
0000
0000
0000
0000
ENDCHAR
STARTCHAR uni01E1
ENCODING 481
SWIDTH 576 0
DWIDTH 12 0
BBX 12 24 0 -5
BITMAP
0000
0000
0000
0000
3FE0
0000
0700
0700
0700
0000
0FC0
1860
0060
0060
1FE0
3060
3060
3060
1FA0
1FA0
0000
0000
0000
0000
ENDCHAR
STARTCHAR uni01E2
ENCODING 482
SWIDTH 576 0
DWIDTH 12 0
BBX 12 24 0 -5
BITMAP
0000
0000
3FE0
0000
07E0
0F80
1B80
1B80
1B80
3380
3380
3FE0
3380
3380
3380
3380
3380
3380
33E0
33E0
0000
0000
0000
0000
ENDCHAR
STARTCHAR uni01E3
ENCODING 483
SWIDTH 576 0
DWIDTH 12 0
BBX 12 24 0 -5
BITMAP
0000
0000
0000
0000
0000
0000
0000
0000
3FE0
0000
1CC0
2760
0760
0760
07C0
1F00
3700
3720
1BC0
1BC0
0000
0000
0000
0000
ENDCHAR
STARTCHAR uni01E4
ENCODING 484
SWIDTH 576 0
DWIDTH 12 0
BBX 12 24 0 -5
BITMAP
0000
0000
0000
0000
0F80
18C0
3060
3060
3000
3000
3000
33E0
3060
3060
3060
33F0
3060
18E0
0FA0
0FA0
0000
0000
0000
0000
ENDCHAR
STARTCHAR uni01E5
ENCODING 485
SWIDTH 576 0
DWIDTH 12 0
BBX 12 24 0 -5
BITMAP
0000
0000
0000
0000
0000
0000
0000
0000
0000
0000
1FA0
30E0
30C0
30C0
30C0
30C0
1F80
3000
1FC0
1FC0
3060
33F0
3060
1FC0
ENDCHAR
STARTCHAR Gcaron
ENCODING 486
SWIDTH 576 0
DWIDTH 12 0
BBX 12 24 0 -5
BITMAP
0000
0000
18C0
0F80
0700
0000
0F80
0F80
18C0
3000
3000
3000
33E0
33E0
3060
3060
3060
18E0
0FA0
0FA0
0000
0000
0000
0000
ENDCHAR
STARTCHAR gcaron
ENCODING 487
SWIDTH 576 0
DWIDTH 12 0
BBX 12 24 0 -5
BITMAP
0000
0000
0000
0000
0000
18C0
0F80
0F80
0700
0000
1FA0
30E0
30C0
30C0
30C0
30C0
1F80
3000
1FC0
1FC0
3060
3060
3060
1FC0
ENDCHAR
STARTCHAR uni01E8
ENCODING 488
SWIDTH 576 0
DWIDTH 12 0
BBX 12 24 0 -5
BITMAP
0000
0000
18C0
0F80
0700
3060
30C0
30C0
30C0
3380
3380
3F00
3380
3380
3380
30C0
30C0
3060
3060
3060
0000
0000
0000
0000
ENDCHAR
STARTCHAR uni01E9
ENCODING 489
SWIDTH 576 0
DWIDTH 12 0
BBX 12 24 0 -5
BITMAP
0000
0000
18C0
0F80
0700
3000
3000
3000
3000
3000
30C0
3380
3700
3700
3C00
3F00
3380
30C0
3060
3060
0000
0000
0000
0000
ENDCHAR
STARTCHAR uni01EA
ENCODING 490
SWIDTH 576 0
DWIDTH 12 0
BBX 12 24 0 -5
BITMAP
0000
0000
0000
0000
0F80
18C0
3060
3060
3060
3060
3060
3060
3060
3060
3060
3060
3060
18C0
0F80
0F80
0700
0C00
0C00
0780
ENDCHAR
STARTCHAR uni01EB
ENCODING 491
SWIDTH 576 0
DWIDTH 12 0
BBX 12 24 0 -5
BITMAP
0000
0000
0000
0000
0000
0000
0000
0000
0000
0000
0F80
18C0
3060
3060
3060
3060
3060
18C0
0F80
0F80
0700
0C00
0C00
0780
ENDCHAR
STARTCHAR uni01EC
ENCODING 492
SWIDTH 576 0
DWIDTH 12 0
BBX 12 24 0 -5
BITMAP
0000
0000
3FE0
0000
0F80
18C0
3060
3060
3060
3060
3060
3060
3060
3060
3060
3060
3060
18C0
0F80
0F80
0700
0C00
0C00
0780
ENDCHAR
STARTCHAR uni01ED
ENCODING 493
SWIDTH 576 0
DWIDTH 12 0
BBX 12 24 0 -5
BITMAP
0000
0000
0000
0000
0000
0000
0000
0000
3FE0
0000
0F80
18C0
3060
3060
3060
3060
3060
18C0
0F80
0F80
0700
0C00
0C00
0780
ENDCHAR
STARTCHAR uni01EE
ENCODING 494
SWIDTH 576 0
DWIDTH 12 0
BBX 12 24 0 -5
BITMAP
0000
0000
18C0
0F80
0700
0000
3FE0
3FE0
0060
00C0
0380
0F80
00C0
00C0
0060
3060
3060
18C0
0F80
0F80
0000
0000
0000
0000
ENDCHAR
STARTCHAR uni01EF
ENCODING 495
SWIDTH 576 0
DWIDTH 12 0
BBX 12 24 0 -5
BITMAP
0000
0000
0000
0000
0000
18C0
0F80
0F80
0700
0000
1FE0
0060
00C0
00C0
0380
0700
0F80
00C0
0060
0060
3060
3060
18C0
0F80
ENDCHAR
STARTCHAR uni01F0
ENCODING 496
SWIDTH 576 0
DWIDTH 12 0
BBX 12 24 0 -5
BITMAP
0000
0000
0000
0000
0000
0730
03E0
03E0
00C0
0000
03E0
0060
0060
0060
0060
0060
0060
0060
0060
0060
1860
1860
1860
0FC0
ENDCHAR
STARTCHAR uni01F1
ENCODING 497
SWIDTH 576 0
DWIDTH 12 0
BBX 12 24 0 -5
BITMAP
0000
0000
0000
0000
F8F0
EC30
EC30
EC30
EC30
EC60
EC60
EC60
EC60
EC60
EC60
ECC0
ECC0
ECC0
F8F0
F8F0
0000
0000
0000
0000
ENDCHAR
STARTCHAR uni01F2
ENCODING 498
SWIDTH 576 0
DWIDTH 12 0
BBX 12 24 0 -5
BITMAP
0000
0000
0000
0000
F800
EC00
EC00
EC00
EC00
EC00
ECF0
EC30
EC30
EC30
EC60
EC60
ECC0
ECC0
F8F0
F8F0
0000
0000
0000
0000
ENDCHAR
STARTCHAR uni01F3
ENCODING 499
SWIDTH 576 0
DWIDTH 12 0
BBX 12 24 0 -5
BITMAP
0000
0000
0000
0000
0C00
0C00
0C00
0C00
0C00
0C00
3CF0
EC30
EC30
EC30
EC60
EC60
ECC0
ECC0
3CF0
3CF0
0000
0000
0000
0000
ENDCHAR
STARTCHAR uni01F4
ENCODING 500
SWIDTH 576 0
DWIDTH 12 0
BBX 12 24 0 -5
BITMAP
00C0
00C0
0380
0700
0000
0F80
18C0
18C0
3060
3000
3000
33E0
3060
3060
3060
3060
3060
18E0
0FA0
0FA0
0000
0000
0000
0000
ENDCHAR
STARTCHAR uni01F5
ENCODING 501
SWIDTH 576 0
DWIDTH 12 0
BBX 12 24 0 -5
BITMAP
0000
0000
0000
0000
0000
0380
0700
0700
0C00
0000
1FA0
30E0
30C0
30C0
30C0
30C0
1F80
3000
1FC0
1FC0
3060
3060
3060
1FC0
ENDCHAR
STARTCHAR uni01F6
ENCODING 502
SWIDTH 576 0
DWIDTH 12 0
BBX 12 24 0 -5
BITMAP
0000
0000
0000
0000
3700
3700
3700
3700
3700
3700
3760
3F60
3760
3760
3760
3760
3760
3760
33C0
33C0
0000
0000
0000
0000
ENDCHAR
STARTCHAR uni01F7
ENCODING 503
SWIDTH 576 0
DWIDTH 12 0
BBX 12 24 0 -5
BITMAP
0000
0000
0000
0000
3780
3CC0
3060
3060
3060
3060
3060
30C0
3380
3380
3700
3C00
3000
3000
3000
3000
3000
3000
2000
0000
ENDCHAR
STARTCHAR uni01F8
ENCODING 504
SWIDTH 576 0
DWIDTH 12 0
BBX 12 24 0 -5
BITMAP
0000
0000
0C00
0700
0380
0000
3060
3060
3860
3C60
3C60
3760
3760
3760
33E0
33E0
30E0
3060
3060
3060
0000
0000
0000
0000
ENDCHAR
STARTCHAR uni01F9
ENCODING 505
SWIDTH 576 0
DWIDTH 12 0
BBX 12 24 0 -5
BITMAP
0000
0000
0000
0000
0000
0C00
0700
0700
0380
0000
3780
38C0
3060
3060
3060
3060
3060
3060
3060
3060
0000
0000
0000
0000
ENDCHAR
STARTCHAR Aringacute
ENCODING 506
SWIDTH 576 0
DWIDTH 12 0
BBX 12 24 0 -5
BITMAP
0380
0380
0700
0000
0700
0880
0880
0880
0700
0700
0F80
18C0
3060
3060
3060
3FE0
3060
3060
3060
3060
0000
0000
0000
0000
ENDCHAR
STARTCHAR aringacute
ENCODING 507
SWIDTH 576 0
DWIDTH 12 0
BBX 12 24 0 -5
BITMAP
0380
0380
0700
0000
0700
0880
0880
0880
0700
0000
1FC0
3060
0060
0060
1FE0
3060
3060
3060
1FA0
1FA0
0000
0000
0000
0000
ENDCHAR
STARTCHAR AEacute
ENCODING 508
SWIDTH 576 0
DWIDTH 12 0
BBX 12 24 0 -5
BITMAP
00C0
00C0
0380
0700
0000
07E0
0F80
0F80
1B80
1B80
3380
3FE0
3380
3380
3380
3380
3380
3380
33E0
33E0
0000
0000
0000
0000
ENDCHAR
STARTCHAR aeacute
ENCODING 509
SWIDTH 576 0
DWIDTH 12 0
BBX 12 24 0 -5
BITMAP
0000
0000
0000
0000
0000
00C0
0380
0380
0700
0000
1CC0
2760
0760
0760
07C0
1F00
3700
3720
1BC0
1BC0
0000
0000
0000
0000
ENDCHAR
STARTCHAR Oslashacute
ENCODING 510
SWIDTH 576 0
DWIDTH 12 0
BBX 12 24 0 -5
BITMAP
0380
0380
0700
0C00
0040
0FC0
18C0
18C0
30E0
3360
3360
3360
3460
3460
3460
3460
3860
18C0
1F80
1F80
2000
0000
0000
0000
ENDCHAR
STARTCHAR oslashacute
ENCODING 511
SWIDTH 576 0
DWIDTH 12 0
BBX 12 24 0 -5
BITMAP
0000
0000
0000
0000
0000
00C0
0380
0380
0700
0020
0FC0
18C0
3360
3360
3360
3460
3460
18C0
1F80
1F80
2000
0000
0000
0000
ENDCHAR
STARTCHAR uni0200
ENCODING 512
SWIDTH 576 0
DWIDTH 12 0
BBX 12 24 0 -5
BITMAP
0000
0000
3380
18C0
0000
0700
0F80
0F80
18C0
18C0
3060
3060
3060
3060
3FE0
3060
3060
3060
3060
3060
0000
0000
0000
0000
ENDCHAR
STARTCHAR uni0201
ENCODING 513
SWIDTH 576 0
DWIDTH 12 0
BBX 12 24 0 -5
BITMAP
0000
0000
0000
0000
0000
0000
3380
3380
18C0
0000
0FC0
1860
0060
0060
1FE0
3060
3060
3060
1FA0
1FA0
0000
0000
0000
0000
ENDCHAR
STARTCHAR uni0202
ENCODING 514
SWIDTH 576 0
DWIDTH 12 0
BBX 12 24 0 -5
BITMAP
0000
0000
0F80
18C0
1040
0000
0700
0700
0F80
18C0
3060
3060
3060
3060
3FE0
3060
3060
3060
3060
3060
0000
0000
0000
0000
ENDCHAR
STARTCHAR uni0203
ENCODING 515
SWIDTH 576 0
DWIDTH 12 0
BBX 12 24 0 -5
BITMAP
0000
0000
0000
0000
0000
0F80
18C0
18C0
1040
0000
0FC0
1860
0060
0060
1FE0
3060
3060
3060
1FA0
1FA0
0000
0000
0000
0000
ENDCHAR
STARTCHAR uni0204
ENCODING 516
SWIDTH 576 0
DWIDTH 12 0
BBX 12 24 0 -5
BITMAP
0000
0000
3380
18C0
0000
3FE0
3000
3000
3000
3000
3000
3F80
3000
3000
3000
3000
3000
3000
3FE0
3FE0
0000
0000
0000
0000
ENDCHAR
STARTCHAR uni0205
ENCODING 517
SWIDTH 576 0
DWIDTH 12 0
BBX 12 24 0 -5
BITMAP
0000
0000
0000
0000
0000
0000
3380
3380
18C0
0000
0F80
18C0
3060
3060
3FE0
3000
3000
1860
0FC0
0FC0
0000
0000
0000
0000
ENDCHAR
STARTCHAR uni0206
ENCODING 518
SWIDTH 576 0
DWIDTH 12 0
BBX 12 24 0 -5
BITMAP
0000
0000
0F80
18C0
1040
0000
3FE0
3FE0
3000
3000
3000
3000
3F80
3F80
3000
3000
3000
3000
3FE0
3FE0
0000
0000
0000
0000
ENDCHAR
STARTCHAR uni0207
ENCODING 519
SWIDTH 576 0
DWIDTH 12 0
BBX 12 24 0 -5
BITMAP
0000
0000
0000
0000
0000
0F80
18C0
18C0
1040
0000
0F80
18C0
3060
3060
3FE0
3000
3000
1860
0FC0
0FC0
0000
0000
0000
0000
ENDCHAR
STARTCHAR uni0208
ENCODING 520
SWIDTH 576 0
DWIDTH 12 0
BBX 12 24 0 -5
BITMAP
0000
0000
3380
18C0
0000
3FE0
0700
0700
0700
0700
0700
0700
0700
0700
0700
0700
0700
0700
3FE0
3FE0
0000
0000
0000
0000
ENDCHAR
STARTCHAR uni0209
ENCODING 521
SWIDTH 576 0
DWIDTH 12 0
BBX 12 24 0 -5
BITMAP
0000
0000
0000
0000
0000
0000
3380
3380
18C0
0000
1F00
0700
0700
0700
0700
0700
0700
0700
3FE0
3FE0
0000
0000
0000
0000
ENDCHAR
STARTCHAR uni020A
ENCODING 522
SWIDTH 576 0
DWIDTH 12 0
BBX 12 24 0 -5
BITMAP
0000
0000
0F80
18C0
1040
0000
3FE0
3FE0
0700
0700
0700
0700
0700
0700
0700
0700
0700
0700
3FE0
3FE0
0000
0000
0000
0000
ENDCHAR
STARTCHAR uni020B
ENCODING 523
SWIDTH 576 0
DWIDTH 12 0
BBX 12 24 0 -5
BITMAP
0000
0000
0000
0000
0000
0F80
18C0
18C0
1040
0000
1F00
0700
0700
0700
0700
0700
0700
0700
3FE0
3FE0
0000
0000
0000
0000
ENDCHAR
STARTCHAR uni020C
ENCODING 524
SWIDTH 576 0
DWIDTH 12 0
BBX 12 24 0 -5
BITMAP
0000
0000
3380
18C0
0000
0F80
18C0
18C0
3060
3060
3060
3060
3060
3060
3060
3060
3060
18C0
0F80
0F80
0000
0000
0000
0000
ENDCHAR
STARTCHAR uni020D
ENCODING 525
SWIDTH 576 0
DWIDTH 12 0
BBX 12 24 0 -5
BITMAP
0000
0000
0000
0000
0000
0000
3380
3380
18C0
0000
0F80
18C0
3060
3060
3060
3060
3060
18C0
0F80
0F80
0000
0000
0000
0000
ENDCHAR
STARTCHAR uni020E
ENCODING 526
SWIDTH 576 0
DWIDTH 12 0
BBX 12 24 0 -5
BITMAP
0000
0000
0F80
18C0
1040
0000
0F80
0F80
18C0
3060
3060
3060
3060
3060
3060
3060
3060
18C0
0F80
0F80
0000
0000
0000
0000
ENDCHAR
STARTCHAR uni020F
ENCODING 527
SWIDTH 576 0
DWIDTH 12 0
BBX 12 24 0 -5
BITMAP
0000
0000
0000
0000
0000
0F80
18C0
18C0
1040
0000
0F80
18C0
3060
3060
3060
3060
3060
18C0
0F80
0F80
0000
0000
0000
0000
ENDCHAR
STARTCHAR uni0210
ENCODING 528
SWIDTH 576 0
DWIDTH 12 0
BBX 12 24 0 -5
BITMAP
0000
0000
3380
18C0
0000
3F80
30C0
30C0
3060
3060
3060
30C0
3F80
3F80
3380
30C0
30C0
3060
3060
3060
0000
0000
0000
0000
ENDCHAR
STARTCHAR uni0211
ENCODING 529
SWIDTH 576 0
DWIDTH 12 0
BBX 12 24 0 -5
BITMAP
0000
0000
0000
0000
0000
0000
3380
3380
18C0
0000
37C0
1C60
1800
1800
1800
1800
1800
1800
1800
1800
0000
0000
0000
0000
ENDCHAR
STARTCHAR uni0212
ENCODING 530
SWIDTH 576 0
DWIDTH 12 0
BBX 12 24 0 -5
BITMAP
0000
0000
0F80
18C0
1040
0000
3F80
3F80
30C0
3060
3060
30C0
3F80
3F80
3380
30C0
30C0
3060
3060
3060
0000
0000
0000
0000
ENDCHAR
STARTCHAR uni0213
ENCODING 531
SWIDTH 576 0
DWIDTH 12 0
BBX 12 24 0 -5
BITMAP
0000
0000
0000
0000
0000
0F80
18C0
18C0
1040
0000
37C0
1C60
1800
1800
1800
1800
1800
1800
1800
1800
0000
0000
0000
0000
ENDCHAR
STARTCHAR uni0214
ENCODING 532
SWIDTH 576 0
DWIDTH 12 0
BBX 12 24 0 -5
BITMAP
0000
0000
3380
18C0
0000
3060
3060
3060
3060
3060
3060
3060
3060
3060
3060
3060
3060
18C0
0F80
0F80
0000
0000
0000
0000
ENDCHAR
STARTCHAR uni0215
ENCODING 533
SWIDTH 576 0
DWIDTH 12 0
BBX 12 24 0 -5
BITMAP
0000
0000
0000
0000
0000
0000
3380
3380
18C0
0000
3060
3060
3060
3060
3060
3060
3060
18E0
0F60
0F60
0000
0000
0000
0000
ENDCHAR
STARTCHAR uni0216
ENCODING 534
SWIDTH 576 0
DWIDTH 12 0
BBX 12 24 0 -5
BITMAP
0000
0000
0F80
18C0
1040
0000
3060
3060
3060
3060
3060
3060
3060
3060
3060
3060
3060
18C0
0F80
0F80
0000
0000
0000
0000
ENDCHAR
STARTCHAR uni0217
ENCODING 535
SWIDTH 576 0
DWIDTH 12 0
BBX 12 24 0 -5
BITMAP
0000
0000
0000
0000
0000
0F80
18C0
18C0
1040
0000
3060
3060
3060
3060
3060
3060
3060
18E0
0F60
0F60
0000
0000
0000
0000
ENDCHAR
STARTCHAR Scommaaccent
ENCODING 536
SWIDTH 576 0
DWIDTH 12 0
BBX 12 24 0 -5
BITMAP
0000
0000
0000
0000
0F80
18C0
3060
3060
3000
3000
1800
0F80
00C0
00C0
0060
0060
3060
18C0
0F80
0F80
0000
0780
0780
0F00
ENDCHAR
STARTCHAR scommaaccent
ENCODING 537
SWIDTH 576 0
DWIDTH 12 0
BBX 12 24 0 -5
BITMAP
0000
0000
0000
0000
0000
0000
0000
0000
0000
0000
1FC0
3060
3000
3000
1FC0
0060
0060
3060
1FC0
1FC0
0000
0780
0780
0F00
ENDCHAR
STARTCHAR Tcommaaccent
ENCODING 538
SWIDTH 576 0
DWIDTH 12 0
BBX 12 24 0 -5
BITMAP
0000
0000
0000
0000
3FE0
0700
0700
0700
0700
0700
0700
0700
0700
0700
0700
0700
0700
0700
0700
0700
0000
0780
0780
0F00
ENDCHAR
STARTCHAR tcommaaccent
ENCODING 539
SWIDTH 576 0
DWIDTH 12 0
BBX 12 24 0 -5
BITMAP
0000
0000
0000
0000
0000
0000
0C00
0C00
0C00
0C00
3F80
0C00
0C00
0C00
0C00
0C00
0C00
0C60
07C0
07C0
0000
0780
0780
0F00
ENDCHAR
STARTCHAR uni021C
ENCODING 540
SWIDTH 576 0
DWIDTH 12 0
BBX 12 24 0 -5
BITMAP
0000
0000
0000
0000
0F80
18C0
00C0
00C0
00C0
0380
0780
0CC0
1860
1860
0060
00C0
0380
0F00
3800
3800
0000
0000
0000
0000
ENDCHAR
STARTCHAR uni021D
ENCODING 541
SWIDTH 576 0
DWIDTH 12 0
BBX 12 24 0 -5
BITMAP
0000
0000
0000
0000
0000
0000
0000
0000
0000
0000
0F80
18C0
00C0
00C0
00C0
0380
0780
0CC0
1860
1860
0060
00C0
0380
1F00
ENDCHAR
STARTCHAR uni021E
ENCODING 542
SWIDTH 576 0
DWIDTH 12 0
BBX 12 24 0 -5
BITMAP
0000
0000
18C0
0F80
0700
3060
3060
3060
3060
3060
3060
3FE0
3060
3060
3060
3060
3060
3060
3060
3060
0000
0000
0000
0000
ENDCHAR
STARTCHAR uni021F
ENCODING 543
SWIDTH 576 0
DWIDTH 12 0
BBX 12 24 0 -5
BITMAP
0000
0000
18C0
0F80
0700
3000
3000
3000
3000
3000
3780
38C0
3060
3060
3060
3060
3060
3060
3060
3060
0000
0000
0000
0000
ENDCHAR
STARTCHAR uni0220
ENCODING 544
SWIDTH 576 0
DWIDTH 12 0
BBX 12 24 0 -5
BITMAP
0000
0000
0000
0000
3780
38C0
3060
3060
3060
3060
3060
3060
3060
3060
3060
3060
3060
3060
3060
3060
0060
0060
0060
0060
ENDCHAR
STARTCHAR uni0221
ENCODING 545
SWIDTH 576 0
DWIDTH 12 0
BBX 12 24 0 -5
BITMAP
0000
0000
0000
0000
0380
0380
0380
0380
0380
0380
0B80
1F80
3380
3380
3380
3380
33E0
1FA0
0FA0
0FA0
00C0
0300
0000
0000
ENDCHAR
STARTCHAR uni0222
ENCODING 546
SWIDTH 576 0
DWIDTH 12 0
BBX 12 24 0 -5
BITMAP
0000
0000
0000
0000
0380
00C0
1860
1860
3060
3060
18C0
0F80
18C0
18C0
3060
3060
3060
18C0
0F80
0F80
0000
0000
0000
0000
ENDCHAR
STARTCHAR uni0223
ENCODING 547
SWIDTH 576 0
DWIDTH 12 0
BBX 12 24 0 -5
BITMAP
0000
0000
0000
0000
0000
0000
0000
0000
18C0
3060
3060
18C0
0F80
0F80
18C0
3060
3060
18C0
0F80
0F80
0000
0000
0000
0000
ENDCHAR
STARTCHAR uni0224
ENCODING 548
SWIDTH 576 0
DWIDTH 12 0
BBX 12 24 0 -5
BITMAP
0000
0000
0000
0000
3FE0
0060
0060
0060
00C0
0380
0380
0700
0C00
0C00
0C00
1800
3000
3000
3FE0
3FE0
0030
0060
0040
0000
ENDCHAR
STARTCHAR uni0225
ENCODING 549
SWIDTH 576 0
DWIDTH 12 0
BBX 12 24 0 -5
BITMAP
0000
0000
0000
0000
0000
0000
0000
0000
0000
0000
1FE0
0060
00C0
00C0
0380
0700
0C00
1800
1FE0
1FE0
0030
0060
0040
0000
ENDCHAR
STARTCHAR uni0226
ENCODING 550
SWIDTH 576 0
DWIDTH 12 0
BBX 12 24 0 -5
BITMAP
0000
0000
0700
0700
0000
0700
0F80
0F80
18C0
18C0
3060
3060
3060
3060
3FE0
3060
3060
3060
3060
3060
0000
0000
0000
0000
ENDCHAR
STARTCHAR uni0227
ENCODING 551
SWIDTH 576 0
DWIDTH 12 0
BBX 12 24 0 -5
BITMAP
0000
0000
0000
0000
0000
0000
0700
0700
0700
0000
0FC0
1860
0060
0060
1FE0
3060
3060
3060
1FA0
1FA0
0000
0000
0000
0000
ENDCHAR
STARTCHAR uni0228
ENCODING 552
SWIDTH 576 0
DWIDTH 12 0
BBX 12 24 0 -5
BITMAP
0000
0000
0000
0000
3FE0
3000
3000
3000
3000
3000
3000
3F80
3000
3000
3000
3000
3000
3000
3FE0
3FE0
0700
0380
1B80
0F00
ENDCHAR
STARTCHAR uni0229
ENCODING 553
SWIDTH 576 0
DWIDTH 12 0
BBX 12 24 0 -5
BITMAP
0000
0000
0000
0000
0000
0000
0000
0000
0000
0000
0F80
18C0
3060
3060
3FE0
3000
3000
1860
0FC0
0FC0
0700
0380
1B80
0F00
ENDCHAR
STARTCHAR uni022A
ENCODING 554
SWIDTH 576 0
DWIDTH 12 0
BBX 12 24 0 -5
BITMAP
3FE0
3FE0
0000
18C0
18C0
0000
0F80
0F80
18C0
3060
3060
3060
3060
3060
3060
3060
3060
18C0
0F80
0F80
0000
0000
0000
0000
ENDCHAR
STARTCHAR uni022B
ENCODING 555
SWIDTH 576 0
DWIDTH 12 0
BBX 12 24 0 -5
BITMAP
0000
0000
0000
0000
3FE0
0000
18C0
18C0
18C0
0000
0F80
18C0
3060
3060
3060
3060
3060
18C0
0F80
0F80
0000
0000
0000
0000
ENDCHAR
STARTCHAR uni022C
ENCODING 556
SWIDTH 576 0
DWIDTH 12 0
BBX 12 24 0 -5
BITMAP
3FE0
3FE0
0000
0C40
1FC0
1380
0000
0000
0F80
18C0
3060
3060
3060
3060
3060
3060
3060
18C0
0F80
0F80
0000
0000
0000
0000
ENDCHAR
STARTCHAR uni022D
ENCODING 557
SWIDTH 576 0
DWIDTH 12 0
BBX 12 24 0 -5
BITMAP
0000
0000
0000
3FE0
0000
0C40
1FC0
1FC0
1380
0000
0F80
18C0
3060
3060
3060
3060
3060
18C0
0F80
0F80
0000
0000
0000
0000
ENDCHAR
STARTCHAR uni022E
ENCODING 558
SWIDTH 576 0
DWIDTH 12 0
BBX 12 24 0 -5
BITMAP
0000
0000
0700
0700
0000
0F80
18C0
18C0
3060
3060
3060
3060
3060
3060
3060
3060
3060
18C0
0F80
0F80
0000
0000
0000
0000
ENDCHAR
STARTCHAR uni022F
ENCODING 559
SWIDTH 576 0
DWIDTH 12 0
BBX 12 24 0 -5
BITMAP
0000
0000
0000
0000
0000
0000
0700
0700
0700
0000
0F80
18C0
3060
3060
3060
3060
3060
18C0
0F80
0F80
0000
0000
0000
0000
ENDCHAR
STARTCHAR uni0230
ENCODING 560
SWIDTH 576 0
DWIDTH 12 0
BBX 12 24 0 -5
BITMAP
3FE0
3FE0
0000
0700
0700
0000
0F80
0F80
18C0
3060
3060
3060
3060
3060
3060
3060
3060
18C0
0F80
0F80
0000
0000
0000
0000
ENDCHAR
STARTCHAR uni0231
ENCODING 561
SWIDTH 576 0
DWIDTH 12 0
BBX 12 24 0 -5
BITMAP
0000
0000
0000
0000
3FE0
0000
0700
0700
0700
0000
0F80
18C0
3060
3060
3060
3060
3060
18C0
0F80
0F80
0000
0000
0000
0000
ENDCHAR
STARTCHAR uni0232
ENCODING 562
SWIDTH 576 0
DWIDTH 12 0
BBX 12 24 0 -5
BITMAP
0000
0000
3FE0
0000
3060
3060
18C0
18C0
18C0
0F80
0F80
0700
0700
0700
0700
0700
0700
0700
0700
0700
0000
0000
0000
0000
ENDCHAR
STARTCHAR uni0233
ENCODING 563
SWIDTH 576 0
DWIDTH 12 0
BBX 12 24 0 -5
BITMAP
0000
0000
0000
0000
0000
0000
0000
0000
3FE0
0000
3060
3060
3060
3060
3060
3060
3060
18E0
0F60
0F60
0060
3060
18C0
0F80
ENDCHAR
STARTCHAR uni0234
ENCODING 564
SWIDTH 576 0
DWIDTH 12 0
BBX 12 24 0 -5
BITMAP
0000
0000
0000
0000
3C00
0C00
0C00
0C00
0C00
0C00
0C00
0C00
0C00
0C00
0C00
0C00
0C40
0CA0
0720
0720
03C0
0400
0000
0000
ENDCHAR
STARTCHAR uni0235
ENCODING 565
SWIDTH 576 0
DWIDTH 12 0
BBX 12 24 0 -5
BITMAP
0000
0000
0000
0000
0000
0000
0000
0000
0000
0000
3700
3B80
3380
3380
3380
3380
3380
33E0
33A0
33A0
03A0
00C0
0300
0000
ENDCHAR
STARTCHAR uni0236
ENCODING 566
SWIDTH 576 0
DWIDTH 12 0
BBX 12 24 0 -5
BITMAP
0000
0000
0000
0000
0000
0000
0C00
0C00
0C00
0C00
3F80
0C00
0C00
0C00
0C00
0C00
0C40
0FA0
0720
0720
03C0
0400
0000
0000
ENDCHAR
STARTCHAR uni0237
ENCODING 567
SWIDTH 576 0
DWIDTH 12 0
BBX 12 24 0 -5
BITMAP
0000
0000
0000
0000
0000
0000
0000
0000
0000
0000
03E0
0060
0060
0060
0060
0060
0060
0060
0060
0060
1860
1860
1860
0FC0
ENDCHAR
STARTCHAR uni0238
ENCODING 568
SWIDTH 576 0
DWIDTH 12 0
BBX 12 24 0 -5
BITMAP
0000
0000
0000
0000
0700
0700
0700
0700
0700
0700
1FC0
3760
2720
2720
2720
2720
2720
2FA0
1740
1740
0000
0000
0000
0000
ENDCHAR
STARTCHAR uni0239
ENCODING 569
SWIDTH 576 0
DWIDTH 12 0
BBX 12 24 0 -5
BITMAP
0000
0000
0000
0000
0000
0000
0000
0000
0000
0000
1FC0
3760
2720
2720
2720
2720
2720
2FA0
1740
1740
0700
0700
0700
0700
ENDCHAR
STARTCHAR uni023A
ENCODING 570
SWIDTH 576 0
DWIDTH 12 0
BBX 12 24 0 -5
BITMAP
0000
0000
0000
0000
0000
0710
0FB0
0FB0
18E0
18C0
33E0
3760
3C60
3C60
3FE0
3060
F060
F060
3060
3060
0000
0000
0000
0000
ENDCHAR
STARTCHAR uni023B
ENCODING 571
SWIDTH 576 0
DWIDTH 12 0
BBX 12 24 0 -5
BITMAP
0000
0000
0000
0000
0F80
18D0
3070
3070
3060
30C0
3380
3700
3C00
3C00
3800
3000
F060
D8C0
0F80
0F80
0000
0000
0000
0000
ENDCHAR
STARTCHAR uni023C
ENCODING 572
SWIDTH 576 0
DWIDTH 12 0
BBX 12 24 0 -5
BITMAP
0000
0000
0000
0000
0000
0000
0000
0000
0000
0030
0FE0
18E0
3380
3380
3700
3C00
3800
3860
EFC0
EFC0
0000
0000
0000
0000
ENDCHAR
STARTCHAR uni023D
ENCODING 573
SWIDTH 576 0
DWIDTH 12 0
BBX 12 24 0 -5
BITMAP
0000
0000
0000
0000
3000
3000
3000
3000
3000
3000
3000
FC00
3000
3000
3000
3000
3000
3000
3FE0
3FE0
0000
0000
0000
0000
ENDCHAR
STARTCHAR uni023E
ENCODING 574
SWIDTH 576 0
DWIDTH 12 0
BBX 12 24 0 -5
BITMAP
0000
0000
0000
0000
3FE0
0700
0720
0720
0760
07C0
0780
0700
0F00
0F00
1F00
3700
2700
0700
0700
0700
0000
0000
0000
0000
ENDCHAR
STARTCHAR uni023F
ENCODING 575
SWIDTH 576 0
DWIDTH 12 0
BBX 12 24 0 -5
BITMAP
0000
0000
0000
0000
0000
0000
0000
0000
0000
0000
1FC0
3060
3000
3000
1FC0
0060
0060
3060
1FC0
1FC0
1800
0F60
03C0
0000
ENDCHAR
STARTCHAR uni0240
ENCODING 576
SWIDTH 576 0
DWIDTH 12 0
BBX 12 24 0 -5
BITMAP
0000
0000
0000
0000
0000
0000
0000
0000
0000
0000
1FE0
0060
00C0
00C0
0380
0700
0C00
1800
1800
1800
1800
0F60
03C0
0000
ENDCHAR
STARTCHAR uni0241
ENCODING 577
SWIDTH 576 0
DWIDTH 12 0
BBX 12 24 0 -5
BITMAP
0000
0000
0000
0000
0F80
18C0
3060
3060
3060
0060
00C0
0780
0700
0700
0700
0700
0700
0700
0700
0700
0000
0000
0000
0000
ENDCHAR
STARTCHAR uni0242
ENCODING 578
SWIDTH 576 0
DWIDTH 12 0
BBX 12 24 0 -5
BITMAP
0000
0000
0000
0000
0000
0000
0000
0000
0000
0000
0F80
18C0
3060
3060
3060
00C0
0780
0700
0700
0700
0000
0000
0000
0000
ENDCHAR
STARTCHAR uni0243
ENCODING 579
SWIDTH 576 0
DWIDTH 12 0
BBX 12 24 0 -5
BITMAP
0000
0000
0000
0000
3F00
3390
30F0
30F0
30E0
30C0
3380
3F80
3CC0
3CC0
3860
3060
F060
F0C0
3F80
3F80
0000
0000
0000
0000
ENDCHAR
STARTCHAR uni0244
ENCODING 580
SWIDTH 576 0
DWIDTH 12 0
BBX 12 24 0 -5
BITMAP
0000
0000
0000
0000
3060
3070
3070
3070
3060
30E0
33E0
3760
3C60
3C60
3860
3060
F060
D8C0
0F80
0F80
0000
0000
0000
0000
ENDCHAR
STARTCHAR uni0245
ENCODING 581
SWIDTH 576 0
DWIDTH 12 0
BBX 12 24 0 -5
BITMAP
0000
0000
0000
0000
0700
0700
0700
0700
0F80
0F80
0F80
18C0
18C0
18C0
18C0
3060
3060
3060
3060
3060
0000
0000
0000
0000
ENDCHAR
STARTCHAR uni0246
ENCODING 582
SWIDTH 576 0
DWIDTH 12 0
BBX 12 24 0 -5
BITMAP
0000
0000
0000
0000
3FE0
3010
3030
3030
3060
30C0
3380
3FC0
3C00
3C00
3800
3000
F000
F000
3FE0
3FE0
0000
0000
0000
0000
ENDCHAR
STARTCHAR uni0247
ENCODING 583
SWIDTH 576 0
DWIDTH 12 0
BBX 12 24 0 -5
BITMAP
0000
0000
0000
0000
0000
0000
0000
0000
0000
0000
0FE0
18C0
33E0
33E0
3760
3FE0
3800
3860
EFC0
EFC0
0000
0000
0000
0000
ENDCHAR
STARTCHAR uni0248
ENCODING 584
SWIDTH 576 0
DWIDTH 12 0
BBX 12 24 0 -5
BITMAP
0000
0000
0000
0000
07F0
00C0
00C0
00C0
00C0
00C0
00C0
07F0
00C0
00C0
00C0
30C0
30C0
1B80
0F00
0F00
0000
0000
0000
0000
ENDCHAR
STARTCHAR uni0249
ENCODING 585
SWIDTH 576 0
DWIDTH 12 0
BBX 12 24 0 -5
BITMAP
0000
0000
0000
0000
0000
0000
0060
0060
0060
0000
03E0
0060
0060
0060
03F0
0060
0060
0060
0060
0060
1860
1860
1860
0FC0
ENDCHAR
STARTCHAR uni024A
ENCODING 586
SWIDTH 576 0
DWIDTH 12 0
BBX 12 24 0 -5
BITMAP
0000
0000
0000
0000
0FA0
18E0
3060
3060
3060
3060
3060
3060
3060
3060
3060
3060
3060
18E0
0FE0
0FE0
0060
0060
0060
0030
ENDCHAR
STARTCHAR uni024B
ENCODING 587
SWIDTH 576 0
DWIDTH 12 0
BBX 12 24 0 -5
BITMAP
0000
0000
0000
0000
0000
0000
0000
0000
0000
0000
0F60
18E0
3060
3060
3060
3060
3060
18E0
0F60
0F60
0060
0060
0060
0030
ENDCHAR
STARTCHAR uni024C
ENCODING 588
SWIDTH 576 0
DWIDTH 12 0
BBX 12 24 0 -5
BITMAP
0000
0000
0000
0000
3F80
30C0
3060
3060
3060
3060
3060
30C0
FF80
FF80
3380
30C0
30C0
3060
3060
3060
0000
0000
0000
0000
ENDCHAR
STARTCHAR uni024D
ENCODING 589
SWIDTH 576 0
DWIDTH 12 0
BBX 12 24 0 -5
BITMAP
0000
0000
0000
0000
0000
0000
0000
0000
0000
0000
37C0
1C60
1800
1800
3F00
1800
1800
1800
1800
1800
0000
0000
0000
0000
ENDCHAR
STARTCHAR uni024E
ENCODING 590
SWIDTH 576 0
DWIDTH 12 0
BBX 12 24 0 -5
BITMAP
0000
0000
0000
0000
3060
3060
FFF0
FFF0
18C0
0F80
0F80
0700
0700
0700
0700
0700
0700
0700
0700
0700
0000
0000
0000
0000
ENDCHAR
STARTCHAR uni024F
ENCODING 591
SWIDTH 576 0
DWIDTH 12 0
BBX 12 24 0 -5
BITMAP
0000
0000
0000
0000
0000
0000
0000
0000
0000
0000
3060
3060
3060
3060
FFF0
3060
3060
18E0
0F60
0F60
0060
3060
18C0
0F80
ENDCHAR
STARTCHAR uni0250
ENCODING 592
SWIDTH 576 0
DWIDTH 12 0
BBX 12 24 0 -5
BITMAP
0000
0000
0000
0000
0000
0000
0000
0000
0000
0000
2FC0
3060
3060
3060
3060
3FC0
3000
30C0
1F80
1F80
0000
0000
0000
0000
ENDCHAR
STARTCHAR uni0251
ENCODING 593
SWIDTH 576 0
DWIDTH 12 0
BBX 12 24 0 -5
BITMAP
0000
0000
0000
0000
0000
0000
0000
0000
0000
0000
0FC0
1BC0
30C0
30C0
30C0
30C0
30C0
1BC0
0F60
0F60
0000
0000
0000
0000
ENDCHAR
STARTCHAR uni0252
ENCODING 594
SWIDTH 576 0
DWIDTH 12 0
BBX 12 24 0 -5
BITMAP
0000
0000
0000
0000
0000
0000
0000
0000
0000
0000
3780
1CC0
1860
1860
1860
1860
1860
1CC0
1F80
1F80
0000
0000
0000
0000
ENDCHAR
STARTCHAR uni0253
ENCODING 595
SWIDTH 576 0
DWIDTH 12 0
BBX 12 24 0 -5
BITMAP
0000
0000
0000
0000
0F80
1800
3000
3000
3000
3000
3780
38C0
3060
3060
3060
3060
3060
38C0
3780
3780
0000
0000
0000
0000
ENDCHAR
STARTCHAR uni0254
ENCODING 596
SWIDTH 576 0
DWIDTH 12 0
BBX 12 24 0 -5
BITMAP
0000
0000
0000
0000
0000
0000
0000
0000
0000
0000
1F80
30C0
0060
0060
0060
0060
0060
30C0
1F80
1F80
0000
0000
0000
0000
ENDCHAR
STARTCHAR uni0255
ENCODING 597
SWIDTH 576 0
DWIDTH 12 0
BBX 12 24 0 -5
BITMAP
0000
0000
0000
0000
0000
0000
0000
0000
0000
0000
0FC0
1860
3000
3000
3000
30C0
3360
1B60
0FC0
0FC0
0400
0400
0000
0000
ENDCHAR
STARTCHAR uni0256
ENCODING 598
SWIDTH 576 0
DWIDTH 12 0
BBX 12 24 0 -5
BITMAP
0000
0000
0000
0000
0060
0060
0060
0060
0060
0060
0F60
18E0
3060
3060
3060
3060
3060
18E0
0F60
0F60
0060
0060
0030
0000
ENDCHAR
STARTCHAR uni0257
ENCODING 599
SWIDTH 576 0
DWIDTH 12 0
BBX 12 24 0 -5
BITMAP
0000
0000
0000
0070
00C0
00C0
00C0
00C0
00C0
00C0
0CC0
1BC0
30C0
30C0
30C0
30C0
30C0
1BC0
0CC0
0CC0
0000
0000
0000
0000
ENDCHAR
STARTCHAR uni0258
ENCODING 600
SWIDTH 576 0
DWIDTH 12 0
BBX 12 24 0 -5
BITMAP
0000
0000
0000
0000
0000
0000
0000
0000
0000
0000
0F80
18C0
3060
3060
3FE0
0060
0060
30C0
1F80
1F80
0000
0000
0000
0000
ENDCHAR
STARTCHAR uni0259
ENCODING 601
SWIDTH 576 0
DWIDTH 12 0
BBX 12 24 0 -5
BITMAP
0000
0000
0000
0000
0000
0000
0000
0000
0000
0000
1F80
30C0
0060
0060
0060
3FE0
3060
18C0
0F80
0F80
0000
0000
0000
0000
ENDCHAR
STARTCHAR uni025A
ENCODING 602
SWIDTH 576 0
DWIDTH 12 0
BBX 12 24 0 -5
BITMAP
0000
0000
0000
0000
0000
0000
0000
0000
0000
0000
1F00
33B0
00D0
00D0
07C0
38C0
30C0
1B80
0F00
0F00
0000
0000
0000
0000
ENDCHAR
STARTCHAR uni025B
ENCODING 603
SWIDTH 576 0
DWIDTH 12 0
BBX 12 24 0 -5
BITMAP
0000
0000
0000
0000
0000
0000
0000
0000
0000
0000
1FC0
3060
3000
3000
1F00
3000
3000
3060
1FC0
1FC0
0000
0000
0000
0000
ENDCHAR
STARTCHAR uni025C
ENCODING 604
SWIDTH 576 0
DWIDTH 12 0
BBX 12 24 0 -5
BITMAP
0000
0000
0000
0000
0000
0000
0000
0000
0000
0000
1FC0
3060
0060
0060
07C0
0060
0060
3060
1FC0
1FC0
0000
0000
0000
0000
ENDCHAR
STARTCHAR uni025D
ENCODING 605
SWIDTH 576 0
DWIDTH 12 0
BBX 12 24 0 -5
BITMAP
0000
0000
0000
0000
0000
0000
0000
0000
0000
0000
1F00
33D0
03A0
03A0
0F00
0380
0380
3380
1F00
1F00
0000
0000
0000
0000
ENDCHAR
STARTCHAR uni025E
ENCODING 606
SWIDTH 576 0
DWIDTH 12 0
BBX 12 24 0 -5
BITMAP
0000
0000
0000
0000
0000
0000
0000
0000
0000
0000
1FC0
3060
3060
3060
33C0
3060
3060
3060
1FC0
1FC0
0000
0000
0000
0000
ENDCHAR
STARTCHAR uni025F
ENCODING 607
SWIDTH 576 0
DWIDTH 12 0
BBX 12 24 0 -5
BITMAP
0000
0000
0000
0000
0000
0000
0000
0000
0000
0000
0380
0380
0380
0380
0380
0380
0380
0FE0
0380
0380
0380
3380
3380
1F00
ENDCHAR
STARTCHAR uni0260
ENCODING 608
SWIDTH 576 0
DWIDTH 12 0
BBX 12 24 0 -5
BITMAP
0000
0000
0000
0000
0000
0000
0030
0030
0060
0060
0F60
18E0
3060
3060
3060
3060
3060
18E0
0F60
0F60
0060
3060
18C0
0F80
ENDCHAR
STARTCHAR uni0261
ENCODING 609
SWIDTH 576 0
DWIDTH 12 0
BBX 12 24 0 -5
BITMAP
0000
0000
0000
0000
0000
0000
0000
0000
0000
0000
0F60
18E0
3060
3060
3060
3060
3060
18E0
0F60
0F60
0060
3060
18C0
0F80
ENDCHAR
STARTCHAR uni0262
ENCODING 610
SWIDTH 576 0
DWIDTH 12 0
BBX 12 24 0 -5
BITMAP
0000
0000
0000
0000
0000
0000
0000
0000
0000
0000
0F80
18C0
3060
3060
3000
33E0
3060
18E0
0FA0
0FA0
0000
0000
0000
0000
ENDCHAR
STARTCHAR uni0263
ENCODING 611
SWIDTH 576 0
DWIDTH 12 0
BBX 12 24 0 -5
BITMAP
0000
0000
0000
0000
0000
0000
0000
0000
0000
0000
3060
3060
18C0
18C0
18C0
0F80
0F80
0700
0F80
0F80
18C0
18C0
0F80
0000
ENDCHAR
STARTCHAR uni0264
ENCODING 612
SWIDTH 576 0
DWIDTH 12 0
BBX 12 24 0 -5
BITMAP
0000
0000
0000
0000
0000
0000
0000
0000
0000
0000
30C0
1B80
0F00
0F00
0F00
0F00
1B80
1B80
0F00
0F00
0000
0000
0000
0000
ENDCHAR
STARTCHAR uni0265
ENCODING 613
SWIDTH 576 0
DWIDTH 12 0
BBX 12 24 0 -5
BITMAP
0000
0000
0000
0000
0000
0000
0000
0000
0000
0000
3060
3060
3060
3060
3060
3060
3060
18E0
0F60
0F60
0060
0060
0060
0060
ENDCHAR
STARTCHAR uni0266
ENCODING 614
SWIDTH 576 0
DWIDTH 12 0
BBX 12 24 0 -5
BITMAP
0000
0000
0000
0000
0F80
18C0
3000
3000
3000
3000
3780
38C0
3060
3060
3060
3060
3060
3060
3060
3060
0000
0000
0000
0000
ENDCHAR
STARTCHAR uni0267
ENCODING 615
SWIDTH 576 0
DWIDTH 12 0
BBX 12 24 0 -5
BITMAP
0000
0000
0000
0000
0F80
18C0
3000
3000
3000
3000
3780
38C0
3060
3060
3060
3060
3060
3060
3060
3060
0060
0060
0060
00C0
ENDCHAR
STARTCHAR uni0268
ENCODING 616
SWIDTH 576 0
DWIDTH 12 0
BBX 12 24 0 -5
BITMAP
0000
0000
0000
0000
0000
0000
0700
0700
0700
0000
1F00
0700
0700
0700
1FC0
0700
0700
0700
3FE0
3FE0
0000
0000
0000
0000
ENDCHAR
STARTCHAR uni0269
ENCODING 617
SWIDTH 576 0
DWIDTH 12 0
BBX 12 24 0 -5
BITMAP
0000
0000
0000
0000
0000
0000
0000
0000
0000
0000
0F00
0700
0700
0700
0700
0700
0700
0700
03C0
03C0
0000
0000
0000
0000
ENDCHAR
STARTCHAR uni026A
ENCODING 618
SWIDTH 576 0
DWIDTH 12 0
BBX 12 24 0 -5
BITMAP
0000
0000
0000
0000
0000
0000
0000
0000
0000
0000
3FE0
0700
0700
0700
0700
0700
0700
0700
3FE0
3FE0
0000
0000
0000
0000
ENDCHAR
STARTCHAR uni026B
ENCODING 619
SWIDTH 576 0
DWIDTH 12 0
BBX 12 24 0 -5
BITMAP
0000
0000
0000
0000
1F00
0700
0700
0700
0700
0700
1F20
3FE0
27C0
27C0
0700
0700
0700
0700
3FE0
3FE0
0000
0000
0000
0000
ENDCHAR
STARTCHAR uni026C
ENCODING 620
SWIDTH 576 0
DWIDTH 12 0
BBX 12 24 0 -5
BITMAP
0000
0000
0000
0000
1F00
0700
0700
0700
0700
0700
1F00
3700
1FE0
1FE0
0700
0700
0700
0700
3FE0
3FE0
0000
0000
0000
0000
ENDCHAR
STARTCHAR uni026D
ENCODING 621
SWIDTH 576 0
DWIDTH 12 0
BBX 12 24 0 -5
BITMAP
0000
0000
0000
0000
1F00
0700
0700
0700
0700
0700
0700
0700
0700
0700
0700
0700
0700
0700
0700
0700
0700
0700
0700
0380
ENDCHAR
STARTCHAR uni026E
ENCODING 622
SWIDTH 576 0
DWIDTH 12 0
BBX 12 24 0 -5
BITMAP
0000
0000
0000
0000
3800
1800
1800
1800
1800
1800
1FF0
1830
1830
1830
1860
18C0
1860
1830
3C30
3C30
0030
1830
0C60
07C0
ENDCHAR
STARTCHAR uni026F
ENCODING 623
SWIDTH 576 0
DWIDTH 12 0
BBX 12 24 0 -5
BITMAP
0000
0000
0000
0000
0000
0000
0000
0000
0000
0000
3760
3760
3760
3760
3760
3760
3760
3FE0
1BA0
1BA0
0000
0000
0000
0000
ENDCHAR
STARTCHAR uni0270
ENCODING 624
SWIDTH 576 0
DWIDTH 12 0
BBX 12 24 0 -5
BITMAP
0000
0000
0000
0000
0000
0000
0000
0000
0000
0000
3760
3760
3760
3760
3760
3760
3760
3FE0
1BE0
1BE0
0060
0060
0060
0060
ENDCHAR
STARTCHAR uni0271
ENCODING 625
SWIDTH 576 0
DWIDTH 12 0
BBX 12 24 0 -5
BITMAP
0000
0000
0000
0000
0000
0000
0000
0000
0000
0000
2CC0
3FE0
3760
3760
3760
3760
3760
3760
3760
3760
0060
0060
0060
00C0
ENDCHAR
STARTCHAR uni0272
ENCODING 626
SWIDTH 576 0
DWIDTH 12 0
BBX 12 24 0 -5
BITMAP
0000
0000
0000
0000
0000
0000
0000
0000
0000
0000
3780
38C0
3060
3060
3060
3060
3060
3060
3060
3060
3000
3000
3000
E000
ENDCHAR
STARTCHAR uni0273
ENCODING 627
SWIDTH 576 0
DWIDTH 12 0
BBX 12 24 0 -5
BITMAP
0000
0000
0000
0000
0000
0000
0000
0000
0000
0000
3780
38C0
3060
3060
3060
3060
3060
3060
3060
3060
0060
0060
0060
0030
ENDCHAR
STARTCHAR uni0274
ENCODING 628
SWIDTH 576 0
DWIDTH 12 0
BBX 12 24 0 -5
BITMAP
0000
0000
0000
0000
0000
0000
0000
0000
0000
0000
3060
3860
3C60
3C60
3760
3760
33E0
30E0
3060
3060
0000
0000
0000
0000
ENDCHAR
STARTCHAR uni0275
ENCODING 629
SWIDTH 576 0
DWIDTH 12 0
BBX 12 24 0 -5
BITMAP
0000
0000
0000
0000
0000
0000
0000
0000
0000
0000
0F80
18C0
3060
3060
3FE0
3060
3060
18C0
0F80
0F80
0000
0000
0000
0000
ENDCHAR
STARTCHAR uni0276
ENCODING 630
SWIDTH 576 0
DWIDTH 12 0
BBX 12 24 0 -5
BITMAP
0000
0000
0000
0000
0000
0000
0000
0000
0000
0000
1FE0
3700
3700
3700
37C0
3700
3700
3700
1FE0
1FE0
0000
0000
0000
0000
ENDCHAR
STARTCHAR uni0277
ENCODING 631
SWIDTH 576 0
DWIDTH 12 0
BBX 12 24 0 -5
BITMAP
0000
0000
0000
0000
0000
0000
0000
0000
0000
0000
0F80
18C0
3060
3060
3060
3760
3760
3760
1FC0
1FC0
0000
0000
0000
0000
ENDCHAR
STARTCHAR uni0278
ENCODING 632
SWIDTH 576 0
DWIDTH 12 0
BBX 12 24 0 -5
BITMAP
0000
0000
0000
0000
0000
0700
0700
0700
0700
0700
1FC0
3760
3760
3760
3760
3760
3760
3760
1FC0
1FC0
0700
0700
0700
0700
ENDCHAR
STARTCHAR uni0279
ENCODING 633
SWIDTH 576 0
DWIDTH 12 0
BBX 12 24 0 -5
BITMAP
0000
0000
0000
0000
0000
0000
0000
0000
0000
0000
00C0
00C0
00C0
00C0
00C0
00C0
00C0
33C0
1F60
1F60
0000
0000
0000
0000
ENDCHAR
STARTCHAR uni027A
ENCODING 634
SWIDTH 576 0
DWIDTH 12 0
BBX 12 24 0 -5
BITMAP
0000
0000
0000
0000
00C0
00C0
00C0
00C0
00C0
00C0
00C0
00C0
00C0
00C0
00C0
00C0
00C0
33C0
1F60
1F60
0000
0000
0000
0000
ENDCHAR
STARTCHAR uni027B
ENCODING 635
SWIDTH 576 0
DWIDTH 12 0
BBX 12 24 0 -5
BITMAP
0000
0000
0000
0000
0000
0000
0000
0000
0000
0000
0380
0380
0380
0380
0380
0380
0380
3780
1F80
1F80
0380
0380
03A0
00C0
ENDCHAR
STARTCHAR uni027C
ENCODING 636
SWIDTH 576 0
DWIDTH 12 0
BBX 12 24 0 -5
BITMAP
0000
0000
0000
0000
0000
0000
0000
0000
0000
0000
37C0
1C60
1800
1800
1800
1800
1800
1800
1800
1800
1800
1800
1800
1800
ENDCHAR
STARTCHAR uni027D
ENCODING 637
SWIDTH 576 0
DWIDTH 12 0
BBX 12 24 0 -5
BITMAP
0000
0000
0000
0000
0000
0000
0000
0000
0000
0000
37C0
1C60
1800
1800
1800
1800
1800
1800
1800
1800
1800
1800
1880
0F00
ENDCHAR
STARTCHAR uni027E
ENCODING 638
SWIDTH 576 0
DWIDTH 12 0
BBX 12 24 0 -5
BITMAP
0000
0000
0000
0000
0000
0000
0000
0000
0000
0000
07C0
0C60
1800
1800
1800
1800
1800
1800
1800
1800
0000
0000
0000
0000
ENDCHAR
STARTCHAR uni027F
ENCODING 639
SWIDTH 576 0
DWIDTH 12 0
BBX 12 24 0 -5
BITMAP
0000
0000
0000
0000
0000
0000
0000
0000
0000
0000
0F80
18C0
0060
0060
0060
0060
0060
0060
0060
0060
0000
0000
0000
0000
ENDCHAR
STARTCHAR uni0280
ENCODING 640
SWIDTH 576 0
DWIDTH 12 0
BBX 12 24 0 -5
BITMAP
0000
0000
0000
0000
0000
0000
0000
0000
0000
0000
3FC0
3060
3060
3060
30C0
3F80
30C0
3060
3060
3060
0000
0000
0000
0000
ENDCHAR
STARTCHAR uni0281
ENCODING 641
SWIDTH 576 0
DWIDTH 12 0
BBX 12 24 0 -5
BITMAP
0000
0000
0000
0000
0000
0000
0000
0000
0000
0000
3060
3060
30C0
30C0
3F80
30C0
3060
3060
3FC0
3FC0
0000
0000
0000
0000
ENDCHAR
STARTCHAR uni0282
ENCODING 642
SWIDTH 576 0
DWIDTH 12 0
BBX 12 24 0 -5
BITMAP
0000
0000
0000
0000
0000
0000
0000
0000
0000
0000
1FC0
3060
3000
3000
1FC0
0060
0060
3060
3FC0
3FC0
3000
3000
1800
0F00
ENDCHAR
STARTCHAR uni0283
ENCODING 643
SWIDTH 576 0
DWIDTH 12 0
BBX 12 24 0 -5
BITMAP
0000
0000
0000
0000
03C0
0700
0700
0700
0700
0700
0700
0700
0700
0700
0700
0700
0700
0700
0700
0700
0700
0700
0700
1C00
ENDCHAR
STARTCHAR uni0284
ENCODING 644
SWIDTH 576 0
DWIDTH 12 0
BBX 12 24 0 -5
BITMAP
0000
0000
0000
0000
0000
00E0
0380
0380
0380
0380
0380
0380
0380
0380
0380
0380
0380
0FE0
0380
0380
0380
3380
3380
1F00
ENDCHAR
STARTCHAR uni0285
ENCODING 645
SWIDTH 576 0
DWIDTH 12 0
BBX 12 24 0 -5
BITMAP
0000
0000
0000
0000
0000
0000
0000
0000
0000
0000
1C00
0700
0700
0700
0700
0700
0700
0700
0700
0700
0700
0700
0700
03C0
ENDCHAR
STARTCHAR uni0286
ENCODING 646
SWIDTH 576 0
DWIDTH 12 0
BBX 12 24 0 -5
BITMAP
0000
0000
0000
0000
03C0
0700
0700
0700
0700
0700
0700
0700
0700
0700
0700
0700
0700
0700
0700
0700
1FC0
3760
3760
1C00
ENDCHAR
STARTCHAR uni0287
ENCODING 647
SWIDTH 576 0
DWIDTH 12 0
BBX 12 24 0 -5
BITMAP
0000
0000
0000
0000
0000
0000
0000
0000
0000
0000
1F00
3380
0380
0380
0380
0380
0380
0380
0FE0
0FE0
0380
0380
0380
0380
ENDCHAR
STARTCHAR uni0288
ENCODING 648
SWIDTH 576 0
DWIDTH 12 0
BBX 12 24 0 -5
BITMAP
0000
0000
0000
0000
0000
0000
0C00
0C00
0C00
0C00
3F80
0C00
0C00
0C00
0C00
0C00
0C00
0C00
0C00
0C00
0C00
0C00
0C00
0780
ENDCHAR
STARTCHAR uni0289
ENCODING 649
SWIDTH 576 0
DWIDTH 12 0
BBX 12 24 0 -5
BITMAP
0000
0000
0000
0000
0000
0000
0000
0000
0000
0000
3060
3060
3060
3060
FFF0
3060
3060
18E0
0F60
0F60
0000
0000
0000
0000
ENDCHAR
STARTCHAR uni028A
ENCODING 650
SWIDTH 576 0
DWIDTH 12 0
BBX 12 24 0 -5
BITMAP
0000
0000
0000
0000
0000
0000
0000
0000
0000
0000
38E0
18C0
3060
3060
3060
3060
3060
18C0
0F80
0F80
0000
0000
0000
0000
ENDCHAR
STARTCHAR uni028B
ENCODING 651
SWIDTH 576 0
DWIDTH 12 0
BBX 12 24 0 -5
BITMAP
0000
0000
0000
0000
0000
0000
0000
0000
0000
0000
3380
30C0
30C0
30C0
3060
3060
30E0
3FC0
1F80
1F80
0000
0000
0000
0000
ENDCHAR
STARTCHAR uni028C
ENCODING 652
SWIDTH 576 0
DWIDTH 12 0
BBX 12 24 0 -5
BITMAP
0000
0000
0000
0000
0000
0000
0000
0000
0000
0000
0700
0700
0F80
0F80
0F80
18C0
18C0
3060
3060
3060
0000
0000
0000
0000
ENDCHAR
STARTCHAR uni028D
ENCODING 653
SWIDTH 576 0
DWIDTH 12 0
BBX 12 24 0 -5
BITMAP
0000
0000
0000
0000
0000
0000
0000
0000
0000
0000
18C0
3FE0
3760
3760
3760
3760
3060
3060
3060
3060
0000
0000
0000
0000
ENDCHAR
STARTCHAR uni028E
ENCODING 654
SWIDTH 576 0
DWIDTH 12 0
BBX 12 24 0 -5
BITMAP
0000
0000
0000
0000
0000
03C0
0760
0760
0760
0C00
0C00
0F00
1F80
1F80
1B80
18C0
30C0
3060
3060
3060
0000
0000
0000
0000
ENDCHAR
STARTCHAR uni028F
ENCODING 655
SWIDTH 576 0
DWIDTH 12 0
BBX 12 24 0 -5
BITMAP
0000
0000
0000
0000
0000
0000
0000
0000
0000
0000
3060
3060
18C0
18C0
0F80
0700
0700
0700
0700
0700
0000
0000
0000
0000
ENDCHAR
STARTCHAR uni0290
ENCODING 656
SWIDTH 576 0
DWIDTH 12 0
BBX 12 24 0 -5
BITMAP
0000
0000
0000
0000
0000
0000
0000
0000
0000
0000
1FE0
0060
00C0
00C0
0380
0700
0C00
1800
1FE0
1FE0
0060
0060
0060
0030
ENDCHAR
STARTCHAR uni0291
ENCODING 657
SWIDTH 576 0
DWIDTH 12 0
BBX 12 24 0 -5
BITMAP
0000
0000
0000
0000
0000
0000
0000
0000
0000
0000
1FE0
0060
00C0
00C0
0380
0700
0CC0
1B20
1FC0
1FC0
0400
0400
0000
0000
ENDCHAR
STARTCHAR uni0292
ENCODING 658
SWIDTH 576 0
DWIDTH 12 0
BBX 12 24 0 -5
BITMAP
0000
0000
0000
0000
0000
0000
0000
0000
0000
0000
1FE0
0060
00C0
00C0
0380
0700
0FC0
0060
0060
0060
3060
3060
18C0
0F80
ENDCHAR
STARTCHAR uni0293
ENCODING 659
SWIDTH 576 0
DWIDTH 12 0
BBX 12 24 0 -5
BITMAP
0000
0000
0000
0000
0000
0000
0000
0000
0000
0000
1FE0
0060
00C0
00C0
0380
0700
0FC0
0060
1C60
1C60
3760
33C0
18C0
0F60
ENDCHAR
STARTCHAR uni0294
ENCODING 660
SWIDTH 576 0
DWIDTH 12 0
BBX 12 24 0 -5
BITMAP
0000
0000
0000
0000
0F80
18C0
3060
3060
3060
0060
00C0
0780
0700
0700
0700
0700
0700
0700
0700
0700
0000
0000
0000
0000
ENDCHAR
STARTCHAR uni0295
ENCODING 661
SWIDTH 576 0
DWIDTH 12 0
BBX 12 24 0 -5
BITMAP
0000
0000
0000
0000
0F80
18C0
3060
3060
3060
3000
1800
0F00
0700
0700
0700
0700
0700
0700
0700
0700
0000
0000
0000
0000
ENDCHAR
STARTCHAR uni0296
ENCODING 662
SWIDTH 576 0
DWIDTH 12 0
BBX 12 24 0 -5
BITMAP
0000
0000
0000
0000
0700
0700
0700
0700
0700
0700
0700
0780
00C0
00C0
0060
3060
3060
18C0
0F80
0F80
0000
0000
0000
0000
ENDCHAR
STARTCHAR uni0297
ENCODING 663
SWIDTH 576 0
DWIDTH 12 0
BBX 12 24 0 -5
BITMAP
0000
0000
0000
0000
0000
0000
0000
0000
0FC0
1860
3000
3000
3000
3000
3000
3000
3000
3000
3000
3000
1860
0FC0
0000
0000
ENDCHAR
STARTCHAR uni0298
ENCODING 664
SWIDTH 576 0
DWIDTH 12 0
BBX 12 24 0 -5
BITMAP
0000
0000
0000
0000
0000
0000
0000
0000
0000
0000
0F80
18C0
3060
3060
3760
3760
3060
18C0
0F80
0F80
0000
0000
0000
0000
ENDCHAR
STARTCHAR uni0299
ENCODING 665
SWIDTH 576 0
DWIDTH 12 0
BBX 12 24 0 -5
BITMAP
0000
0000
0000
0000
0000
0000
0000
0000
0000
0000
3FC0
3060
3060
3060
3FC0
3060
3060
3060
3FC0
3FC0
0000
0000
0000
0000
ENDCHAR
STARTCHAR uni029A
ENCODING 666
SWIDTH 576 0
DWIDTH 12 0
BBX 12 24 0 -5
BITMAP
0000
0000
0000
0000
0000
0000
0000
0000
0000
0000
1FC0
3060
3060
3060
1C60
3060
3060
3060
1FC0
1FC0
0000
0000
0000
0000
ENDCHAR
STARTCHAR uni029B
ENCODING 667
SWIDTH 576 0
DWIDTH 12 0
BBX 12 24 0 -5
BITMAP
0000
0000
0000
0000
0000
0000
0030
0030
0060
0060
0FE0
1860
3000
3000
3000
33E0
3060
18E0
0FA0
0FA0
0000
0000
0000
0000
ENDCHAR
STARTCHAR uni029C
ENCODING 668
SWIDTH 576 0
DWIDTH 12 0
BBX 12 24 0 -5
BITMAP
0000
0000
0000
0000
0000
0000
0000
0000
0000
0000
3060
3060
3060
3060
3FE0
3060
3060
3060
3060
3060
0000
0000
0000
0000
ENDCHAR
STARTCHAR uni029D
ENCODING 669
SWIDTH 576 0
DWIDTH 12 0
BBX 12 24 0 -5
BITMAP
0000
0000
0000
0000
0000
0000
00C0
00C0
00C0
0000
07C0
00C0
00C0
00C0
00C0
00C0
00C0
00C0
1CC0
1CC0
37C0
33C0
30E0
1FB0
ENDCHAR
STARTCHAR uni029E
ENCODING 670
SWIDTH 576 0
DWIDTH 12 0
BBX 12 24 0 -5
BITMAP
0000
0000
0000
0000
0000
0000
0000
0000
0000
0000
3060
1860
0C60
0C60
07E0
03E0
0760
0C60
1860
1860
0060
0060
0060
0060
ENDCHAR
STARTCHAR uni029F
ENCODING 671
SWIDTH 576 0
DWIDTH 12 0
BBX 12 24 0 -5
BITMAP
0000
0000
0000
0000
0000
0000
0000
0000
0000
0000
1800
1800
1800
1800
1800
1800
1800
1800
1FC0
1FC0
0000
0000
0000
0000
ENDCHAR
STARTCHAR uni02A0
ENCODING 672
SWIDTH 576 0
DWIDTH 12 0
BBX 12 24 0 -5
BITMAP
0000
0000
0000
0000
0030
0060
0060
0060
0060
0060
0F60
18E0
3060
3060
3060
3060
3060
18E0
0F60
0F60
0060
0060
0060
0060
ENDCHAR
STARTCHAR uni02A1
ENCODING 673
SWIDTH 576 0
DWIDTH 12 0
BBX 12 24 0 -5
BITMAP
0000
0000
0000
0000
0F80
18C0
3060
3060
3060
0060
00C0
0780
0700
0700
0700
1FC0
0700
0700
0700
0700
0000
0000
0000
0000
ENDCHAR
STARTCHAR uni02A2
ENCODING 674
SWIDTH 576 0
DWIDTH 12 0
BBX 12 24 0 -5
BITMAP
0000
0000
0000
0000
0F80
18C0
3060
3060
3060
3000
1800
0F00
0700
0700
0700
1FC0
0700
0700
0700
0700
0000
0000
0000
0000
ENDCHAR
STARTCHAR uni02A3
ENCODING 675
SWIDTH 576 0
DWIDTH 12 0
BBX 12 24 0 -5
BITMAP
0000
0000
0000
0000
0700
0700
0700
0700
0700
0700
37F0
EF30
E730
E730
E760
E760
E7C0
EFC0
37F0
37F0
0000
0000
0000
0000
ENDCHAR
STARTCHAR uni02A4
ENCODING 676
SWIDTH 576 0
DWIDTH 12 0
BBX 12 24 0 -5
BITMAP
0000
0000
0000
0000
0700
0700
0700
0700
0700
0700
37F0
EF30
E730
E730
E760
E7C0
E760
EF30
3730
3730
0030
0030
0C60
07C0
ENDCHAR
STARTCHAR uni02A5
ENCODING 677
SWIDTH 576 0
DWIDTH 12 0
BBX 12 24 0 -5
BITMAP
0000
0000
0000
0000
0C00
0C00
0C00
0C00
0C00
0C00
3FF0
EC30
EC60
EC60
ECC0
EFA0
EF50
EC50
3FE0
3FE0
0080
0080
0000
0000
ENDCHAR
STARTCHAR uni02A6
ENCODING 678
SWIDTH 576 0
DWIDTH 12 0
BBX 12 24 0 -5
BITMAP
0000
0000
0000
0000
0000
0000
3000
3000
3000
3000
FFC0
3760
3700
3700
3380
30C0
3060
3060
1FC0
1FC0
0000
0000
0000
0000
ENDCHAR
STARTCHAR uni02A7
ENCODING 679
SWIDTH 576 0
DWIDTH 12 0
BBX 12 24 0 -5
BITMAP
0000
0000
0000
0000
0070
00C0
30C0
30C0
30C0
30C0
FFC0
30C0
30C0
30C0
30C0
30C0
30C0
30C0
1CC0
1CC0
00C0
00C0
00C0
0780
ENDCHAR
STARTCHAR uni02A8
ENCODING 680
SWIDTH 576 0
DWIDTH 12 0
BBX 12 24 0 -5
BITMAP
0000
0000
0000
0000
0000
0000
3000
3000
3000
3000
FFE0
33B0
3700
3700
3700
3720
3750
3350
1FE0
1FE0
0080
0080
0000
0000
ENDCHAR
STARTCHAR uni02A9
ENCODING 681
SWIDTH 576 0
DWIDTH 12 0
BBX 12 24 0 -5
BITMAP
0000
0000
0000
0000
1F00
3380
3380
3380
3000
3000
FFC0
3760
3760
3760
3760
3760
3760
3760
3760
3760
0060
0060
0060
00C0
ENDCHAR
STARTCHAR uni02AA
ENCODING 682
SWIDTH 576 0
DWIDTH 12 0
BBX 12 24 0 -5
BITMAP
0000
0000
0000
0000
3800
1800
1800
1800
1800
1800
1BC0
1F60
1F00
1F00
1BC0
1860
1860
1860
3FC0
3FC0
0000
0000
0000
0000
ENDCHAR
STARTCHAR uni02AB
ENCODING 683
SWIDTH 576 0
DWIDTH 12 0
BBX 12 24 0 -5
BITMAP
0000
0000
0000
0000
3800
1800
1800
1800
1800
1800
1FE0
1860
18C0
18C0
18C0
1B80
1B80
1F00
3FE0
3FE0
0000
0000
0000
0000
ENDCHAR
STARTCHAR uni02AC
ENCODING 684
SWIDTH 576 0
DWIDTH 12 0
BBX 12 24 0 -5
BITMAP
0000
0000
0000
0000
3060
3060
3760
3760
3760
3FE0
18C0
0000
3060
3060
3060
3760
3760
3FE0
18C0
18C0
0000
0000
0000
0000
ENDCHAR
STARTCHAR uni02AD
ENCODING 685
SWIDTH 576 0
DWIDTH 12 0
BBX 12 24 0 -5
BITMAP
0000
0000
0000
0000
0000
0000
0000
0000
3FE0
3060
3060
0000
0000
0000
3FE0
3060
3060
0000
0000
0000
0000
0000
0000
0000
ENDCHAR
STARTCHAR uni02AE
ENCODING 686
SWIDTH 576 0
DWIDTH 12 0
BBX 12 24 0 -5
BITMAP
0000
0000
0000
0000
0000
0000
0000
0000
0000
0000
1860
2C60
0C60
0C60
0C60
0C60
0C60
04E0
0360
0360
0060
0060
0060
0060
ENDCHAR
STARTCHAR uni02AF
ENCODING 687
SWIDTH 576 0
DWIDTH 12 0
BBX 12 24 0 -5
BITMAP
0000
0000
0000
0000
0000
0000
0000
0000
0000
0000
1080
2880
0880
0880
0880
0880
0880
0B80
0480
0480
0080
0080
00A0
0040
ENDCHAR
STARTCHAR uni02B0
ENCODING 688
SWIDTH 576 0
DWIDTH 12 0
BBX 12 24 0 -5
BITMAP
0000
0000
0000
3000
3000
3700
3B80
3B80
3380
3380
3380
3380
0000
0000
0000
0000
0000
0000
0000
0000
0000
0000
0000
0000
ENDCHAR
STARTCHAR uni02B1
ENCODING 689
SWIDTH 576 0
DWIDTH 12 0
BBX 12 24 0 -5
BITMAP
0000
0000
1C00
3000
3000
3700
3B80
3B80
3380
3380
3380
3380
0000
0000
0000
0000
0000
0000
0000
0000
0000
0000
0000
0000
ENDCHAR
STARTCHAR uni02B2
ENCODING 690
SWIDTH 576 0
DWIDTH 12 0
BBX 12 24 0 -5
BITMAP
0000
0000
0380
0380
0000
0F80
0380
0380
0380
0380
3380
3380
1F00
1F00
0000
0000
0000
0000
0000
0000
0000
0000
0000
0000
ENDCHAR
STARTCHAR uni02B3
ENCODING 691
SWIDTH 576 0
DWIDTH 12 0
BBX 12 24 0 -5
BITMAP
0000
0000
0000
0000
0000
3700
3B80
3B80
3000
3000
3000
3000
0000
0000
0000
0000
0000
0000
0000
0000
0000
0000
0000
0000
ENDCHAR
STARTCHAR uni02B4
ENCODING 692
SWIDTH 576 0
DWIDTH 12 0
BBX 12 24 0 -5
BITMAP
0000
0000
0000
0000
0000
0380
0380
0380
0380
0380
3780
1B80
0000
0000
0000
0000
0000
0000
0000
0000
0000
0000
0000
0000
ENDCHAR
STARTCHAR uni02B5
ENCODING 693
SWIDTH 576 0
DWIDTH 12 0
BBX 12 24 0 -5
BITMAP
0000
0000
0000
0000
0000
0380
0380
0380
0380
0380
3780
1B80
0380
0380
00C0
0000
0000
0000
0000
0000
0000
0000
0000
0000
ENDCHAR
STARTCHAR uni02B6
ENCODING 694
SWIDTH 576 0
DWIDTH 12 0
BBX 12 24 0 -5
BITMAP
0000
0000
0000
0000
0000
30C0
30C0
30C0
3F80
30C0
30C0
3F80
0000
0000
0000
0000
0000
0000
0000
0000
0000
0000
0000
0000
ENDCHAR
STARTCHAR uni02B7
ENCODING 695
SWIDTH 576 0
DWIDTH 12 0
BBX 12 24 0 -5
BITMAP
0000
0000
0000
0000
0000
3760
3760
3760
3760
3760
1FC0
18C0
0000
0000
0000
0000
0000
0000
0000
0000
0000
0000
0000
0000
ENDCHAR
STARTCHAR uni02B8
ENCODING 696
SWIDTH 576 0
DWIDTH 12 0
BBX 12 24 0 -5
BITMAP
0000
0000
0000
0000
0000
30C0
30C0
30C0
30C0
30C0
30C0
1FC0
00C0
00C0
1F80
0000
0000
0000
0000
0000
0000
0000
0000
0000
ENDCHAR
STARTCHAR uni02B9
ENCODING 697
SWIDTH 576 0
DWIDTH 12 0
BBX 12 24 0 -5
BITMAP
0000
0000
0000
0000
0380
0700
0C00
0C00
1800
0000
0000
0000
0000
0000
0000
0000
0000
0000
0000
0000
0000
0000
0000
0000
ENDCHAR
STARTCHAR uni02BA
ENCODING 698
SWIDTH 576 0
DWIDTH 12 0
BBX 12 24 0 -5
BITMAP
0000
0000
0000
0000
0730
0C60
18C0
18C0
3380
0000
0000
0000
0000
0000
0000
0000
0000
0000
0000
0000
0000
0000
0000
0000
ENDCHAR
STARTCHAR uni02BB
ENCODING 699
SWIDTH 576 0
DWIDTH 12 0
BBX 12 24 0 -5
BITMAP
0000
0000
0000
0000
0700
0C00
0F00
0F00
0F00
0000
0000
0000
0000
0000
0000
0000
0000
0000
0000
0000
0000
0000
0000
0000
ENDCHAR
STARTCHAR afii57929
ENCODING 700
SWIDTH 576 0
DWIDTH 12 0
BBX 12 24 0 -5
BITMAP
0000
0000
0000
0000
0780
0780
0380
0380
0700
0000
0000
0000
0000
0000
0000
0000
0000
0000
0000
0000
0000
0000
0000
0000
ENDCHAR
STARTCHAR afii64937
ENCODING 701
SWIDTH 576 0
DWIDTH 12 0
BBX 12 24 0 -5
BITMAP
0000
0000
0000
0000
0780
0780
0700
0700
0380
0000
0000
0000
0000
0000
0000
0000
0000
0000
0000
0000
0000
0000
0000
0000
ENDCHAR
STARTCHAR uni02BE
ENCODING 702
SWIDTH 576 0
DWIDTH 12 0
BBX 12 24 0 -5
BITMAP
0000
0000
0000
0000
0700
0380
0380
0380
0700
0000
0000
0000
0000
0000
0000
0000
0000
0000
0000
0000
0000
0000
0000
0000
ENDCHAR
STARTCHAR uni02BF
ENCODING 703
SWIDTH 576 0
DWIDTH 12 0
BBX 12 24 0 -5
BITMAP
0000
0000
0000
0000
0380
0700
0700
0700
0380
0000
0000
0000
0000
0000
0000
0000
0000
0000
0000
0000
0000
0000
0000
0000
ENDCHAR
STARTCHAR uni02C0
ENCODING 704
SWIDTH 576 0
DWIDTH 12 0
BBX 12 24 0 -5
BITMAP
0000
0000
0000
0000
0F00
1B80
0380
0380
0700
0700
0700
0000
0000
0000
0000
0000
0000
0000
0000
0000
0000
0000
0000
0000
ENDCHAR
STARTCHAR uni02C1
ENCODING 705
SWIDTH 576 0
DWIDTH 12 0
BBX 12 24 0 -5
BITMAP
0000
0000
0000
0000
0F00
1B80
1800
1800
0C00
0C00
0C00
0000
0000
0000
0000
0000
0000
0000
0000
0000
0000
0000
0000
0000
ENDCHAR
STARTCHAR uni02C2
ENCODING 706
SWIDTH 576 0
DWIDTH 12 0
BBX 12 24 0 -5
BITMAP
0000
0000
0000
0000
00C0
0780
1C00
1C00
0780
00C0
0000
0000
0000
0000
0000
0000
0000
0000
0000
0000
0000
0000
0000
0000
ENDCHAR
STARTCHAR uni02C3
ENCODING 707
SWIDTH 576 0
DWIDTH 12 0
BBX 12 24 0 -5
BITMAP
0000
0000
0000
0000
1800
0F00
03C0
03C0
0F00
1800
0000
0000
0000
0000
0000
0000
0000
0000
0000
0000
0000
0000
0000
0000
ENDCHAR
STARTCHAR uni02C4
ENCODING 708
SWIDTH 576 0
DWIDTH 12 0
BBX 12 24 0 -5
BITMAP
0000
0000
0000
0000
0400
0400
0F00
0F00
0B00
1B80
1080
0000
0000
0000
0000
0000
0000
0000
0000
0000
0000
0000
0000
0000
ENDCHAR
STARTCHAR uni02C5
ENCODING 709
SWIDTH 576 0
DWIDTH 12 0
BBX 12 24 0 -5
BITMAP
0000
0000
0000
0000
1080
1B80
0B00
0B00
0F00
0400
0400
0000
0000
0000
0000
0000
0000
0000
0000
0000
0000
0000
0000
0000
ENDCHAR
STARTCHAR circumflex
ENCODING 710
SWIDTH 576 0
DWIDTH 12 0
BBX 12 24 0 -5
BITMAP
0000
0000
0000
0000
0700
0F80
18C0
18C0
0000
0000
0000
0000
0000
0000
0000
0000
0000
0000
0000
0000
0000
0000
0000
0000
ENDCHAR
STARTCHAR caron
ENCODING 711
SWIDTH 576 0
DWIDTH 12 0
BBX 12 24 0 -5
BITMAP
0000
0000
0000
0000
18C0
0F80
0700
0700
0000
0000
0000
0000
0000
0000
0000
0000
0000
0000
0000
0000
0000
0000
0000
0000
ENDCHAR
STARTCHAR uni02C8
ENCODING 712
SWIDTH 576 0
DWIDTH 12 0
BBX 12 24 0 -5
BITMAP
0000
0000
0000
0000
0700
0700
0700
0700
0700
0700
0000
0000
0000
0000
0000
0000
0000
0000
0000
0000
0000
0000
0000
0000
ENDCHAR
STARTCHAR macron
ENCODING 713
SWIDTH 576 0
DWIDTH 12 0
BBX 12 24 0 -5
BITMAP
0000
0000
0000
3FE0
0000
0000
0000
0000
0000
0000
0000
0000
0000
0000
0000
0000
0000
0000
0000
0000
0000
0000
0000
0000
ENDCHAR
STARTCHAR uni02CA
ENCODING 714
SWIDTH 576 0
DWIDTH 12 0
BBX 12 24 0 -5
BITMAP
0000
0000
0000
0000
0380
0700
0C00
0C00
0000
0000
0000
0000
0000
0000
0000
0000
0000
0000
0000
0000
0000
0000
0000
0000
ENDCHAR
STARTCHAR uni02CB
ENCODING 715
SWIDTH 576 0
DWIDTH 12 0
BBX 12 24 0 -5
BITMAP
0000
0000
0000
0000
0C00
0700
0380
0380
0000
0000
0000
0000
0000
0000
0000
0000
0000
0000
0000
0000
0000
0000
0000
0000
ENDCHAR
STARTCHAR uni02CC
ENCODING 716
SWIDTH 576 0
DWIDTH 12 0
BBX 12 24 0 -5
BITMAP
0000
0000
0000
0000
0000
0000
0000
0000
0000
0000
0000
0000
0000
0000
0000
0000
0000
0700
0700
0700
0700
0700
0700
0000
ENDCHAR
STARTCHAR uni02CD
ENCODING 717
SWIDTH 576 0
DWIDTH 12 0
BBX 12 24 0 -5
BITMAP
0000
0000
0000
0000
0000
0000
0000
0000
0000
0000
0000
0000
0000
0000
0000
0000
0000
0000
0000
0000
0000
0000
3FE0
0000
ENDCHAR
STARTCHAR uni02CE
ENCODING 718
SWIDTH 576 0
DWIDTH 12 0
BBX 12 24 0 -5
BITMAP
0000
0000
0000
0000
0000
0000
0000
0000
0000
0000
0000
0000
0000
0000
0000
0000
0000
0000
0000
0000
0000
0C00
0700
0380
ENDCHAR
STARTCHAR uni02CF
ENCODING 719
SWIDTH 576 0
DWIDTH 12 0
BBX 12 24 0 -5
BITMAP
0000
0000
0000
0000
0000
0000
0000
0000
0000
0000
0000
0000
0000
0000
0000
0000
0000
0000
0000
0000
0000
0380
0700
0C00
ENDCHAR
STARTCHAR uni02D0
ENCODING 720
SWIDTH 576 0
DWIDTH 12 0
BBX 12 24 0 -5
BITMAP
0000
0000
0000
0000
0000
0000
0000
0000
0000
0000
1F80
0F00
0400
0400
0000
0000
0400
0F00
1F80
1F80
0000
0000
0000
0000
ENDCHAR
STARTCHAR uni02D1
ENCODING 721
SWIDTH 576 0
DWIDTH 12 0
BBX 12 24 0 -5
BITMAP
0000
0000
0000
0000
0000
0000
0000
0000
0000
0000
1F80
0F00
0400
0400
0000
0000
0000
0000
0000
0000
0000
0000
0000
0000
ENDCHAR
STARTCHAR uni02D2
ENCODING 722
SWIDTH 576 0
DWIDTH 12 0
BBX 12 24 0 -5
BITMAP
0000
0000
0000
0000
0000
0000
0000
0000
0000
0000
0000
0700
0780
0780
0380
0380
0780
0700
0000
0000
0000
0000
0000
0000
ENDCHAR
STARTCHAR uni02D3
ENCODING 723
SWIDTH 576 0
DWIDTH 12 0
BBX 12 24 0 -5
BITMAP
0000
0000
0000
0000
0000
0000
0000
0000
0000
0000
0000
0380
0780
0780
0700
0700
0780
0380
0000
0000
0000
0000
0000
0000
ENDCHAR
STARTCHAR uni02D4
ENCODING 724
SWIDTH 576 0
DWIDTH 12 0
BBX 12 24 0 -5
BITMAP
0000
0000
0000
0000
0000
0000
0000
0000
0000
0000
0000
0400
0400
0400
0400
1F80
0000
0000
0000
0000
0000
0000
0000
0000
ENDCHAR
STARTCHAR uni02D5
ENCODING 725
SWIDTH 576 0
DWIDTH 12 0
BBX 12 24 0 -5
BITMAP
0000
0000
0000
0000
0000
0000
0000
0000
0000
0000
0000
0000
0000
0000
0000
1F80
0400
0400
0400
0400
0000
0000
0000
0000
ENDCHAR
STARTCHAR uni02D6
ENCODING 726
SWIDTH 576 0
DWIDTH 12 0
BBX 12 24 0 -5
BITMAP
0000
0000
0000
0000
0000
0000
0000
0000
0000
0000
0000
0400
0400
0400
0400
1F80
0400
0400
0400
0400
0000
0000
0000
0000
ENDCHAR
STARTCHAR uni02D7
ENCODING 727
SWIDTH 576 0
DWIDTH 12 0
BBX 12 24 0 -5
BITMAP
0000
0000
0000
0000
0000
0000
0000
0000
0000
0000
0000
0000
0000
0000
1080
1F80
1080
0000
0000
0000
0000
0000
0000
0000
ENDCHAR
STARTCHAR breve
ENCODING 728
SWIDTH 576 0
DWIDTH 12 0
BBX 12 24 0 -5
BITMAP
0000
0000
18C0
0F80
0000
0000
0000
0000
0000
0000
0000
0000
0000
0000
0000
0000
0000
0000
0000
0000
0000
0000
0000
0000
ENDCHAR
STARTCHAR dotaccent
ENCODING 729
SWIDTH 576 0
DWIDTH 12 0
BBX 12 24 0 -5
BITMAP
0000
0000
0700
0700
0000
0000
0000
0000
0000
0000
0000
0000
0000
0000
0000
0000
0000
0000
0000
0000
0000
0000
0000
0000
ENDCHAR
STARTCHAR ring
ENCODING 730
SWIDTH 576 0
DWIDTH 12 0
BBX 12 24 0 -5
BITMAP
0000
0000
0700
0880
0880
0700
0000
0000
0000
0000
0000
0000
0000
0000
0000
0000
0000
0000
0000
0000
0000
0000
0000
0000
ENDCHAR
STARTCHAR ogonek
ENCODING 731
SWIDTH 576 0
DWIDTH 12 0
BBX 12 24 0 -5
BITMAP
0000
0000
0000
0000
0000
0000
0000
0000
0000
0000
0000
0000
0000
0000
0000
0000
0000
0000
0000
0000
0700
0C00
0C00
0780
ENDCHAR
STARTCHAR tilde
ENCODING 732
SWIDTH 576 0
DWIDTH 12 0
BBX 12 24 0 -5
BITMAP
0000
0000
0000
0000
0C40
1FC0
1380
1380
0000
0000
0000
0000
0000
0000
0000
0000
0000
0000
0000
0000
0000
0000
0000
0000
ENDCHAR
STARTCHAR hungarumlaut
ENCODING 733
SWIDTH 576 0
DWIDTH 12 0
BBX 12 24 0 -5
BITMAP
0000
0000
0C60
18C0
3380
0000
0000
0000
0000
0000
0000
0000
0000
0000
0000
0000
0000
0000
0000
0000
0000
0000
0000
0000
ENDCHAR
STARTCHAR uni02DE
ENCODING 734
SWIDTH 576 0
DWIDTH 12 0
BBX 12 24 0 -5
BITMAP
0000
0000
0000
0000
0000
0000
0000
0000
0000
0000
0C00
1C00
3720
3720
27E0
03C0
0000
0000
0000
0000
0000
0000
0000
0000
ENDCHAR
STARTCHAR uni02DF
ENCODING 735
SWIDTH 576 0
DWIDTH 12 0
BBX 12 24 0 -5
BITMAP
0000
0000
30C0
1B80
0F00
1B80
30C0
30C0
0000
0000
0000
0000
0000
0000
0000
0000
0000
0000
0000
0000
0000
0000
0000
0000
ENDCHAR
STARTCHAR uni02E0
ENCODING 736
SWIDTH 576 0
DWIDTH 12 0
BBX 12 24 0 -5
BITMAP
0000
0000
0000
0000
0000
30C0
1B80
1B80
0F00
0F00
1B80
1B80
0F00
0F00
0000
0000
0000
0000
0000
0000
0000
0000
0000
0000
ENDCHAR
STARTCHAR uni02E1
ENCODING 737
SWIDTH 576 0
DWIDTH 12 0
BBX 12 24 0 -5
BITMAP
0000
0000
0000
3800
1800
1800
1800
1800
1800
1800
1800
3C00
0000
0000
0000
0000
0000
0000
0000
0000
0000
0000
0000
0000
ENDCHAR
STARTCHAR uni02E2
ENCODING 738
SWIDTH 576 0
DWIDTH 12 0
BBX 12 24 0 -5
BITMAP
0000
0000
0000
0000
0000
1F00
3000
3000
1800
0C00
0700
3C00
0000
0000
0000
0000
0000
0000
0000
0000
0000
0000
0000
0000
ENDCHAR
STARTCHAR uni02E3
ENCODING 739
SWIDTH 576 0
DWIDTH 12 0
BBX 12 24 0 -5
BITMAP
0000
0000
0000
0000
0000
3700
3700
3700
1C00
1C00
3700
3700
0000
0000
0000
0000
0000
0000
0000
0000
0000
0000
0000
0000
ENDCHAR
STARTCHAR uni02E4
ENCODING 740
SWIDTH 576 0
DWIDTH 12 0
BBX 12 24 0 -5
BITMAP
0000
0000
0000
1F00
3380
3000
1800
1800
0C00
0C00
0C00
0C00
0000
0000
0000
0000
0000
0000
0000
0000
0000
0000
0000
0000
ENDCHAR
STARTCHAR uni02E5
ENCODING 741
SWIDTH 576 0
DWIDTH 12 0
BBX 12 24 0 -5
BITMAP
0000
0000
0000
0000
1FC0
00C0
00C0
00C0
00C0
00C0
00C0
00C0
00C0
00C0
00C0
00C0
00C0
00C0
00C0
00C0
0000
0000
0000
0000
ENDCHAR
STARTCHAR uni02E6
ENCODING 742
SWIDTH 576 0
DWIDTH 12 0
BBX 12 24 0 -5
BITMAP
0000
0000
0000
0000
00C0
00C0
00C0
00C0
1FC0
00C0
00C0
00C0
00C0
00C0
00C0
00C0
00C0
00C0
00C0
00C0
0000
0000
0000
0000
ENDCHAR
STARTCHAR uni02E7
ENCODING 743
SWIDTH 576 0
DWIDTH 12 0
BBX 12 24 0 -5
BITMAP
0000
0000
0000
0000
00C0
00C0
00C0
00C0
00C0
00C0
00C0
1FC0
00C0
00C0
00C0
00C0
00C0
00C0
00C0
00C0
0000
0000
0000
0000
ENDCHAR
STARTCHAR uni02E8
ENCODING 744
SWIDTH 576 0
DWIDTH 12 0
BBX 12 24 0 -5
BITMAP
0000
0000
0000
0000
00C0
00C0
00C0
00C0
00C0
00C0
00C0
00C0
00C0
00C0
00C0
1FC0
00C0
00C0
00C0
00C0
0000
0000
0000
0000
ENDCHAR
STARTCHAR uni02E9
ENCODING 745
SWIDTH 576 0
DWIDTH 12 0
BBX 12 24 0 -5
BITMAP
0000
0000
0000
0000
00C0
00C0
00C0
00C0
00C0
00C0
00C0
00C0
00C0
00C0
00C0
00C0
00C0
00C0
1FC0
1FC0
0000
0000
0000
0000
ENDCHAR
STARTCHAR uni02EA
ENCODING 746
SWIDTH 576 0
DWIDTH 12 0
BBX 12 24 0 -5
BITMAP
0000
0000
0000
0000
0000
0000
0000
0000
0000
0000
0000
0000
0000
0000
0000
0F80
0380
0380
0380
0380
0000
0000
0000
0000
ENDCHAR
STARTCHAR uni02EB
ENCODING 747
SWIDTH 576 0
DWIDTH 12 0
BBX 12 24 0 -5
BITMAP
0000
0000
0000
0000
0000
0000
0000
0000
0000
0000
0000
0000
0000
0000
0000
0000
0C00
0C00
0F80
0F80
0C00
0C00
0000
0000
ENDCHAR
STARTCHAR uni02EC
ENCODING 748
SWIDTH 576 0
DWIDTH 12 0
BBX 12 24 0 -5
BITMAP
0000
0000
0000
0000
0000
0000
0000
0000
0000
0000
0000
0000
0000
0000
0000
0000
0000
0000
0000
0000
18C0
0F80
0700
0000
ENDCHAR
STARTCHAR uni02ED
ENCODING 749
SWIDTH 576 0
DWIDTH 12 0
BBX 12 24 0 -5
BITMAP
0000
0000
0000
0000
0000
0000
1FC0
1FC0
0000
0000
1FC0
0000
0000
0000
0000
0000
0000
0000
0000
0000
0000
0000
0000
0000
ENDCHAR
STARTCHAR uni02EE
ENCODING 750
SWIDTH 576 0
DWIDTH 12 0
BBX 12 24 0 -5
BITMAP
0000
0000
0000
0000
38E0
38E0
1860
1860
30C0
0000
0000
0000
0000
0000
0000
0000
0000
0000
0000
0000
0000
0000
0000
0000
ENDCHAR
STARTCHAR uni02EF
ENCODING 751
SWIDTH 576 0
DWIDTH 12 0
BBX 12 24 0 -5
BITMAP
0000
0000
0000
0000
0000
0000
0000
0000
0000
0000
0000
0000
0000
0000
0000
0000
0000
1080
1B80
1B80
0B00
0F00
0400
0400
ENDCHAR
STARTCHAR uni02F0
ENCODING 752
SWIDTH 576 0
DWIDTH 12 0
BBX 12 24 0 -5
BITMAP
0000
0000
0000
0000
0000
0000
0000
0000
0000
0000
0000
0000
0000
0000
0000
0000
0000
0400
0400
0400
0F00
0B00
1B80
1080
ENDCHAR
STARTCHAR uni02F1
ENCODING 753
SWIDTH 576 0
DWIDTH 12 0
BBX 12 24 0 -5
BITMAP
0000
0000
0000
0000
0000
0000
0000
0000
0000
0000
0000
0000
0000
0000
0000
0000
0000
0000
00C0
00C0
0780
1C00
0780
00C0
ENDCHAR
STARTCHAR uni02F2
ENCODING 754
SWIDTH 576 0
DWIDTH 12 0
BBX 12 24 0 -5
BITMAP
0000
0000
0000
0000
0000
0000
0000
0000
0000
0000
0000
0000
0000
0000
0000
0000
0000
0000
1800
1800
0F00
03C0
0F00
1800
ENDCHAR
STARTCHAR uni02F3
ENCODING 755
SWIDTH 576 0
DWIDTH 12 0
BBX 12 24 0 -5
BITMAP
0000
0000
0000
0000
0000
0000
0000
0000
0000
0000
0000
0000
0000
0000
0000
0000
0000
0000
0000
0000
0700
0880
0880
0700
ENDCHAR
STARTCHAR uni02F4
ENCODING 756
SWIDTH 576 0
DWIDTH 12 0
BBX 12 24 0 -5
BITMAP
0000
0000
0000
0000
0000
0000
0000
0000
0000
0000
0C00
0700
0380
0380
0000
0000
0000
0000
0000
0000
0000
0000
0000
0000
ENDCHAR
STARTCHAR uni02F5
ENCODING 757
SWIDTH 576 0
DWIDTH 12 0
BBX 12 24 0 -5
BITMAP
0000
0000
0000
0000
0000
0000
0000
0000
0000
0000
3380
18C0
0C60
0C60
0000
0000
0000
0000
0000
0000
0000
0000
0000
0000
ENDCHAR
STARTCHAR uni02F6
ENCODING 758
SWIDTH 576 0
DWIDTH 12 0
BBX 12 24 0 -5
BITMAP
0000
0000
0000
0000
0000
0000
0000
0000
0000
0000
0C60
18C0
3380
3380
0000
0000
0000
0000
0000
0000
0000
0000
0000
0000
ENDCHAR
STARTCHAR uni02F7
ENCODING 759
SWIDTH 576 0
DWIDTH 12 0
BBX 12 24 0 -5
BITMAP
0000
0000
0000
0000
0000
0000
0000
0000
0000
0000
0000
0000
0000
0000
0000
0000
0000
0000
0000
0000
1C60
3760
33C0
0000
ENDCHAR
STARTCHAR uni02F8
ENCODING 760
SWIDTH 576 0
DWIDTH 12 0
BBX 12 24 0 -5
BITMAP
0000
0000
0000
0000
0000
0780
0780
0780
0000
0000
0000
0000
0780
0780
0780
0000
0000
0000
0000
0000
0000
0000
0000
0000
ENDCHAR
STARTCHAR uni02F9
ENCODING 761
SWIDTH 576 0
DWIDTH 12 0
BBX 12 24 0 -5
BITMAP
0000
0000
0000
0000
0000
0780
0400
0400
0400
0400
0400
0000
0000
0000
0000
0000
0000
0000
0000
0000
0000
0000
0000
0000
ENDCHAR
STARTCHAR uni02FA
ENCODING 762
SWIDTH 576 0
DWIDTH 12 0
BBX 12 24 0 -5
BITMAP
0000
0000
0000
0000
0000
0F00
0300
0300
0300
0300
0300
0000
0000
0000
0000
0000
0000
0000
0000
0000
0000
0000
0000
0000
ENDCHAR
STARTCHAR uni02FB
ENCODING 763
SWIDTH 576 0
DWIDTH 12 0
BBX 12 24 0 -5
BITMAP
0000
0000
0000
0000
0000
0000
0000
0000
0000
0000
0000
0000
0000
0000
0400
0400
0400
0400
0780
0780
0000
0000
0000
0000
ENDCHAR
STARTCHAR uni02FC
ENCODING 764
SWIDTH 576 0
DWIDTH 12 0
BBX 12 24 0 -5
BITMAP
0000
0000
0000
0000
0000
0000
0000
0000
0000
0000
0000
0000
0000
0000
0300
0300
0300
0300
0F00
0F00
0000
0000
0000
0000
ENDCHAR
STARTCHAR uni02FD
ENCODING 765
SWIDTH 576 0
DWIDTH 12 0
BBX 12 24 0 -5
BITMAP
0000
0000
0000
0000
0000
0000
0000
0000
0000
0000
0000
0000
0000
0000
0000
0000
0000
0000
0000
0000
2020
2020
3FE0
3FE0
ENDCHAR
STARTCHAR uni02FE
ENCODING 766
SWIDTH 576 0
DWIDTH 12 0
BBX 12 24 0 -5
BITMAP
0000
0000
0000
0000
0000
0000
0000
0000
0000
0000
0000
0000
0000
0000
0000
0000
0000
0000
0000
0000
2000
2000
3FE0
0000
ENDCHAR
STARTCHAR uni02FF
ENCODING 767
SWIDTH 576 0
DWIDTH 12 0
BBX 12 24 0 -5
BITMAP
0000
0000
0000
0000
0000
0000
0000
0000
0000
0000
0000
0000
0000
0000
0000
0000
0000
0800
1800
1800
3FE0
1800
0800
0000
ENDCHAR
STARTCHAR gravecomb
ENCODING 768
SWIDTH 576 0
DWIDTH 12 0
BBX 12 24 0 -5
BITMAP
0C00
0C00
0700
0380
0000
0000
0000
0000
0000
0000
0000
0000
0000
0000
0000
0000
0000
0000
0000
0000
0000
0000
0000
0000
ENDCHAR
STARTCHAR acutecomb
ENCODING 769
SWIDTH 576 0
DWIDTH 12 0
BBX 12 24 0 -5
BITMAP
0380
0380
0700
0C00
0000
0000
0000
0000
0000
0000
0000
0000
0000
0000
0000
0000
0000
0000
0000
0000
0000
0000
0000
0000
ENDCHAR
STARTCHAR uni0302
ENCODING 770
SWIDTH 576 0
DWIDTH 12 0
BBX 12 24 0 -5
BITMAP
0700
0700
0F80
18C0
0000
0000
0000
0000
0000
0000
0000
0000
0000
0000
0000
0000
0000
0000
0000
0000
0000
0000
0000
0000
ENDCHAR
STARTCHAR tildecomb
ENCODING 771
SWIDTH 576 0
DWIDTH 12 0
BBX 12 24 0 -5
BITMAP
0C40
0C40
1FC0
1380
0000
0000
0000
0000
0000
0000
0000
0000
0000
0000
0000
0000
0000
0000
0000
0000
0000
0000
0000
0000
ENDCHAR
STARTCHAR uni0304
ENCODING 772
SWIDTH 576 0
DWIDTH 12 0
BBX 12 24 0 -5
BITMAP
0000
0000
1FC0
0000
0000
0000
0000
0000
0000
0000
0000
0000
0000
0000
0000
0000
0000
0000
0000
0000
0000
0000
0000
0000
ENDCHAR
STARTCHAR uni0305
ENCODING 773
SWIDTH 576 0
DWIDTH 12 0
BBX 12 24 0 -5
BITMAP
0000
0000
FFF0
0000
0000
0000
0000
0000
0000
0000
0000
0000
0000
0000
0000
0000
0000
0000
0000
0000
0000
0000
0000
0000
ENDCHAR
STARTCHAR uni0306
ENCODING 774
SWIDTH 576 0
DWIDTH 12 0
BBX 12 24 0 -5
BITMAP
30C0
30C0
1F80
0000
0000
0000
0000
0000
0000
0000
0000
0000
0000
0000
0000
0000
0000
0000
0000
0000
0000
0000
0000
0000
ENDCHAR
STARTCHAR uni0307
ENCODING 775
SWIDTH 576 0
DWIDTH 12 0
BBX 12 24 0 -5
BITMAP
0700
0700
0700
0000
0000
0000
0000
0000
0000
0000
0000
0000
0000
0000
0000
0000
0000
0000
0000
0000
0000
0000
0000
0000
ENDCHAR
STARTCHAR uni0308
ENCODING 776
SWIDTH 576 0
DWIDTH 12 0
BBX 12 24 0 -5
BITMAP
18C0
18C0
18C0
0000
0000
0000
0000
0000
0000
0000
0000
0000
0000
0000
0000
0000
0000
0000
0000
0000
0000
0000
0000
0000
ENDCHAR
STARTCHAR hookabovecomb
ENCODING 777
SWIDTH 576 0
DWIDTH 12 0
BBX 12 24 0 -5
BITMAP
0F80
0F80
18C0
0380
0700
0000
0000
0000
0000
0000
0000
0000
0000
0000
0000
0000
0000
0000
0000
0000
0000
0000
0000
0000
ENDCHAR
STARTCHAR uni030A
ENCODING 778
SWIDTH 576 0
DWIDTH 12 0
BBX 12 24 0 -5
BITMAP
0F00
0F00
1B80
0F00
0000
0000
0000
0000
0000
0000
0000
0000
0000
0000
0000
0000
0000
0000
0000
0000
0000
0000
0000
0000
ENDCHAR
STARTCHAR uni030B
ENCODING 779
SWIDTH 576 0
DWIDTH 12 0
BBX 12 24 0 -5
BITMAP
0C60
0C60
18C0
3380
0000
0000
0000
0000
0000
0000
0000
0000
0000
0000
0000
0000
0000
0000
0000
0000
0000
0000
0000
0000
ENDCHAR
STARTCHAR uni030C
ENCODING 780
SWIDTH 576 0
DWIDTH 12 0
BBX 12 24 0 -5
BITMAP
18C0
18C0
0F80
0700
0000
0000
0000
0000
0000
0000
0000
0000
0000
0000
0000
0000
0000
0000
0000
0000
0000
0000
0000
0000
ENDCHAR
STARTCHAR uni030D
ENCODING 781
SWIDTH 576 0
DWIDTH 12 0
BBX 12 24 0 -5
BITMAP
0700
0700
0700
0700
0700
0000
0000
0000
0000
0000
0000
0000
0000
0000
0000
0000
0000
0000
0000
0000
0000
0000
0000
0000
ENDCHAR
STARTCHAR uni030E
ENCODING 782
SWIDTH 576 0
DWIDTH 12 0
BBX 12 24 0 -5
BITMAP
18C0
18C0
18C0
18C0
18C0
0000
0000
0000
0000
0000
0000
0000
0000
0000
0000
0000
0000
0000
0000
0000
0000
0000
0000
0000
ENDCHAR
STARTCHAR uni030F
ENCODING 783
SWIDTH 576 0
DWIDTH 12 0
BBX 12 24 0 -5
BITMAP
3380
3380
18C0
0C60
0000
0000
0000
0000
0000
0000
0000
0000
0000
0000
0000
0000
0000
0000
0000
0000
0000
0000
0000
0000
ENDCHAR
STARTCHAR uni0310
ENCODING 784
SWIDTH 576 0
DWIDTH 12 0
BBX 12 24 0 -5
BITMAP
0700
0700
3060
1FC0
0000
0000
0000
0000
0000
0000
0000
0000
0000
0000
0000
0000
0000
0000
0000
0000
0000
0000
0000
0000
ENDCHAR
STARTCHAR uni0311
ENCODING 785
SWIDTH 576 0
DWIDTH 12 0
BBX 12 24 0 -5
BITMAP
1F80
1F80
30C0
0000
0000
0000
0000
0000
0000
0000
0000
0000
0000
0000
0000
0000
0000
0000
0000
0000
0000
0000
0000
0000
ENDCHAR
STARTCHAR uni0312
ENCODING 786
SWIDTH 576 0
DWIDTH 12 0
BBX 12 24 0 -5
BITMAP
0700
0700
0C00
0F00
0400
0000
0000
0000
0000
0000
0000
0000
0000
0000
0000
0000
0000
0000
0000
0000
0000
0000
0000
0000
ENDCHAR
STARTCHAR uni0313
ENCODING 787
SWIDTH 576 0
DWIDTH 12 0
BBX 12 24 0 -5
BITMAP
0400
0400
0F00
0700
0C00
0000
0000
0000
0000
0000
0000
0000
0000
0000
0000
0000
0000
0000
0000
0000
0000
0000
0000
0000
ENDCHAR
STARTCHAR uni0314
ENCODING 788
SWIDTH 576 0
DWIDTH 12 0
BBX 12 24 0 -5
BITMAP
0400
0400
0F00
0C00
0700
0000
0000
0000
0000
0000
0000
0000
0000
0000
0000
0000
0000
0000
0000
0000
0000
0000
0000
0000
ENDCHAR
STARTCHAR uni0315
ENCODING 789
SWIDTH 576 0
DWIDTH 12 0
BBX 12 24 0 -5
BITMAP
0020
0020
0070
0030
0060
0000
0000
0000
0000
0000
0000
0000
0000
0000
0000
0000
0000
0000
0000
0000
0000
0000
0000
0000
ENDCHAR
STARTCHAR uni0316
ENCODING 790
SWIDTH 576 0
DWIDTH 12 0
BBX 12 24 0 -5
BITMAP
0000
0000
0000
0000
0000
0000
0000
0000
0000
0000
0000
0000
0000
0000
0000
0000
0000
0000
0000
0000
0000
0C00
0700
0380
ENDCHAR
STARTCHAR uni0317
ENCODING 791
SWIDTH 576 0
DWIDTH 12 0
BBX 12 24 0 -5
BITMAP
0000
0000
0000
0000
0000
0000
0000
0000
0000
0000
0000
0000
0000
0000
0000
0000
0000
0000
0000
0000
0000
0380
0700
0C00
ENDCHAR
STARTCHAR uni0318
ENCODING 792
SWIDTH 576 0
DWIDTH 12 0
BBX 12 24 0 -5
BITMAP
0000
0000
0000
0000
0000
0000
0000
0000
0000
0000
0000
0000
0000
0000
0000
0000
0000
0000
0000
0000
0000
0380
1F80
0380
ENDCHAR
STARTCHAR uni0319
ENCODING 793
SWIDTH 576 0
DWIDTH 12 0
BBX 12 24 0 -5
BITMAP
0000
0000
0000
0000
0000
0000
0000
0000
0000
0000
0000
0000
0000
0000
0000
0000
0000
0000
0000
0000
0000
1800
1F80
1800
ENDCHAR
STARTCHAR uni031A
ENCODING 794
SWIDTH 576 0
DWIDTH 12 0
BBX 12 24 0 -5
BITMAP
03F0
03F0
0030
0030
0000
0000
0000
0000
0000
0000
0000
0000
0000
0000
0000
0000
0000
0000
0000
0000
0000
0000
0000
0000
ENDCHAR
STARTCHAR uni031B
ENCODING 795
SWIDTH 576 0
DWIDTH 12 0
BBX 12 24 0 -5
BITMAP
0000
0000
0000
0000
0030
0030
0060
0060
0000
0000
0000
0000
0000
0000
0000
0000
0000
0000
0000
0000
0000
0000
0000
0000
ENDCHAR
STARTCHAR uni031C
ENCODING 796
SWIDTH 576 0
DWIDTH 12 0
BBX 12 24 0 -5
BITMAP
0000
0000
0000
0000
0000
0000
0000
0000
0000
0000
0000
0000
0000
0000
0000
0000
0000
0000
0000
0000
0780
0C00
0C00
0780
ENDCHAR
STARTCHAR uni031D
ENCODING 797
SWIDTH 576 0
DWIDTH 12 0
BBX 12 24 0 -5
BITMAP
0000
0000
0000
0000
0000
0000
0000
0000
0000
0000
0000
0000
0000
0000
0000
0000
0000
0000
0000
0000
0000
0700
0700
1FC0
ENDCHAR
STARTCHAR uni031E
ENCODING 798
SWIDTH 576 0
DWIDTH 12 0
BBX 12 24 0 -5
BITMAP
0000
0000
0000
0000
0000
0000
0000
0000
0000
0000
0000
0000
0000
0000
0000
0000
0000
0000
0000
0000
0000
1FC0
0700
0700
ENDCHAR
STARTCHAR uni031F
ENCODING 799
SWIDTH 576 0
DWIDTH 12 0
BBX 12 24 0 -5
BITMAP
0000
0000
0000
0000
0000
0000
0000
0000
0000
0000
0000
0000
0000
0000
0000
0000
0000
0000
0000
0000
0000
0700
1FC0
0700
ENDCHAR
STARTCHAR uni0320
ENCODING 800
SWIDTH 576 0
DWIDTH 12 0
BBX 12 24 0 -5
BITMAP
0000
0000
0000
0000
0000
0000
0000
0000
0000
0000
0000
0000
0000
0000
0000
0000
0000
0000
0000
0000
0000
0000
1FC0
0000
ENDCHAR
STARTCHAR uni0321
ENCODING 801
SWIDTH 576 0
DWIDTH 12 0
BBX 12 24 0 -5
BITMAP
0000
0000
0000
0000
0000
0000
0000
0000
0000
0000
0000
0000
0000
0000
0000
0000
0000
0000
0000
0000
0060
0060
0060
03C0
ENDCHAR
STARTCHAR uni0322
ENCODING 802
SWIDTH 576 0
DWIDTH 12 0
BBX 12 24 0 -5
BITMAP
0000
0000
0000
0000
0000
0000
0000
0000
0000
0000
0000
0000
0000
0000
0000
0000
0000
0000
0000
0000
0060
0060
0060
0030
ENDCHAR
STARTCHAR dotbelowcomb
ENCODING 803
SWIDTH 576 0
DWIDTH 12 0
BBX 12 24 0 -5
BITMAP
0000
0000
0000
0000
0000
0000
0000
0000
0000
0000
0000
0000
0000
0000
0000
0000
0000
0000
0000
0000
0000
0700
0700
0000
ENDCHAR
STARTCHAR uni0324
ENCODING 804
SWIDTH 576 0
DWIDTH 12 0
BBX 12 24 0 -5
BITMAP
0000
0000
0000
0000
0000
0000
0000
0000
0000
0000
0000
0000
0000
0000
0000
0000
0000
0000
0000
0000
0000
18C0
18C0
0000
ENDCHAR
STARTCHAR uni0325
ENCODING 805
SWIDTH 576 0
DWIDTH 12 0
BBX 12 24 0 -5
BITMAP
0000
0000
0000
0000
0000
0000
0000
0000
0000
0000
0000
0000
0000
0000
0000
0000
0000
0000
0000
0000
0000
0F00
1B80
0F00
ENDCHAR
STARTCHAR uni0326
ENCODING 806
SWIDTH 576 0
DWIDTH 12 0
BBX 12 24 0 -5
BITMAP
0000
0000
0000
0000
0000
0000
0000
0000
0000
0000
0000
0000
0000
0000
0000
0000
0000
0000
0000
0000
0000
0780
0780
0F00
ENDCHAR
STARTCHAR uni0327
ENCODING 807
SWIDTH 576 0
DWIDTH 12 0
BBX 12 24 0 -5
BITMAP
0000
0000
0000
0000
0000
0000
0000
0000
0000
0000
0000
0000
0000
0000
0000
0000
0000
0000
0000
0000
0700
0380
1B80
0F00
ENDCHAR
STARTCHAR uni0328
ENCODING 808
SWIDTH 576 0
DWIDTH 12 0
BBX 12 24 0 -5
BITMAP
0000
0000
0000
0000
0000
0000
0000
0000
0000
0000
0000
0000
0000
0000
0000
0000
0000
0000
0000
0000
0700
0C00
18C0
0F80
ENDCHAR
STARTCHAR uni0329
ENCODING 809
SWIDTH 576 0
DWIDTH 12 0
BBX 12 24 0 -5
BITMAP
0000
0000
0000
0000
0000
0000
0000
0000
0000
0000
0000
0000
0000
0000
0000
0000
0000
0000
0000
0000
0700
0700
0700
0700
ENDCHAR
STARTCHAR uni032A
ENCODING 810
SWIDTH 576 0
DWIDTH 12 0
BBX 12 24 0 -5
BITMAP
0000
0000
0000
0000
0000
0000
0000
0000
0000
0000
0000
0000
0000
0000
0000
0000
0000
0000
0000
0000
0000
3FE0
3060
3060
ENDCHAR
STARTCHAR uni032B
ENCODING 811
SWIDTH 576 0
DWIDTH 12 0
BBX 12 24 0 -5
BITMAP
0000
0000
0000
0000
0000
0000
0000
0000
0000
0000
0000
0000
0000
0000
0000
0000
0000
0000
0000
0000
0000
3760
3760
1FC0
ENDCHAR
STARTCHAR uni032C
ENCODING 812
SWIDTH 576 0
DWIDTH 12 0
BBX 12 24 0 -5
BITMAP
0000
0000
0000
0000
0000
0000
0000
0000
0000
0000
0000
0000
0000
0000
0000
0000
0000
0000
0000
0000
0000
18C0
0F80
0700
ENDCHAR
STARTCHAR uni032D
ENCODING 813
SWIDTH 576 0
DWIDTH 12 0
BBX 12 24 0 -5
BITMAP
0000
0000
0000
0000
0000
0000
0000
0000
0000
0000
0000
0000
0000
0000
0000
0000
0000
0000
0000
0000
0000
0700
0F80
18C0
ENDCHAR
STARTCHAR uni032E
ENCODING 814
SWIDTH 576 0
DWIDTH 12 0
BBX 12 24 0 -5
BITMAP
0000
0000
0000
0000
0000
0000
0000
0000
0000
0000
0000
0000
0000
0000
0000
0000
0000
0000
0000
0000
0000
30C0
1F80
0000
ENDCHAR
STARTCHAR uni032F
ENCODING 815
SWIDTH 576 0
DWIDTH 12 0
BBX 12 24 0 -5
BITMAP
0000
0000
0000
0000
0000
0000
0000
0000
0000
0000
0000
0000
0000
0000
0000
0000
0000
0000
0000
0000
0000
1F80
30C0
0000
ENDCHAR
STARTCHAR uni0330
ENCODING 816
SWIDTH 576 0
DWIDTH 12 0
BBX 12 24 0 -5
BITMAP
0000
0000
0000
0000
0000
0000
0000
0000
0000
0000
0000
0000
0000
0000
0000
0000
0000
0000
0000
0000
0000
0C40
1FC0
1380
ENDCHAR
STARTCHAR uni0331
ENCODING 817
SWIDTH 576 0
DWIDTH 12 0
BBX 12 24 0 -5
BITMAP
0000
0000
0000
0000
0000
0000
0000
0000
0000
0000
0000
0000
0000
0000
0000
0000
0000
0000
0000
0000
0000
1FC0
0000
0000
ENDCHAR
STARTCHAR uni0332
ENCODING 818
SWIDTH 576 0
DWIDTH 12 0
BBX 12 24 0 -5
BITMAP
0000
0000
0000
0000
0000
0000
0000
0000
0000
0000
0000
0000
0000
0000
0000
0000
0000
0000
0000
0000
0000
FFF0
0000
0000
ENDCHAR
STARTCHAR uni0333
ENCODING 819
SWIDTH 576 0
DWIDTH 12 0
BBX 12 24 0 -5
BITMAP
0000
0000
0000
0000
0000
0000
0000
0000
0000
0000
0000
0000
0000
0000
0000
0000
0000
0000
0000
0000
0000
FFF0
0000
FFF0
ENDCHAR
STARTCHAR uni0334
ENCODING 820
SWIDTH 576 0
DWIDTH 12 0
BBX 12 24 0 -5
BITMAP
0000
0000
0000
0000
0000
0000
0000
0000
0000
0000
0000
0C40
1FC0
1FC0
1380
0000
0000
0000
0000
0000
0000
0000
0000
0000
ENDCHAR
STARTCHAR uni0335
ENCODING 821
SWIDTH 576 0
DWIDTH 12 0
BBX 12 24 0 -5
BITMAP
0000
0000
0000
0000
0000
0000
0000
0000
0000
0000
0000
0000
1FC0
1FC0
0000
0000
0000
0000
0000
0000
0000
0000
0000
0000
ENDCHAR
STARTCHAR uni0336
ENCODING 822
SWIDTH 576 0
DWIDTH 12 0
BBX 12 24 0 -5
BITMAP
0000
0000
0000
0000
0000
0000
0000
0000
0000
0000
0000
0000
FFF0
FFF0
0000
0000
0000
0000
0000
0000
0000
0000
0000
0000
ENDCHAR
STARTCHAR uni0337
ENCODING 823
SWIDTH 576 0
DWIDTH 12 0
BBX 12 24 0 -5
BITMAP
0000
0000
0000
0000
0000
0000
0000
0000
0000
0060
00C0
0380
0700
0700
0C00
1800
3000
0000
0000
0000
0000
0000
0000
0000
ENDCHAR
STARTCHAR uni0338
ENCODING 824
SWIDTH 576 0
DWIDTH 12 0
BBX 12 24 0 -5
BITMAP
0000
0000
0000
0060
0060
00C0
00C0
00C0
0380
0380
0700
0700
0700
0700
0C00
0C00
1800
1800
3000
3000
3000
0000
0000
0000
ENDCHAR
STARTCHAR uni0339
ENCODING 825
SWIDTH 576 0
DWIDTH 12 0
BBX 12 24 0 -5
BITMAP
0000
0000
0000
0000
0000
0000
0000
0000
0000
0000
0000
0000
0000
0000
0000
0000
0000
0000
0000
0000
0F00
0380
0380
0F00
ENDCHAR
STARTCHAR uni033A
ENCODING 826
SWIDTH 576 0
DWIDTH 12 0
BBX 12 24 0 -5
BITMAP
0000
0000
0000
0000
0000
0000
0000
0000
0000
0000
0000
0000
0000
0000
0000
0000
0000
0000
0000
0000
0000
3060
3060
3FE0
ENDCHAR
STARTCHAR uni033B
ENCODING 827
SWIDTH 576 0
DWIDTH 12 0
BBX 12 24 0 -5
BITMAP
0000
0000
0000
0000
0000
0000
0000
0000
0000
0000
0000
0000
0000
0000
0000
0000
0000
0000
0000
0000
0000
1FC0
18C0
1FC0
ENDCHAR
STARTCHAR uni033C
ENCODING 828
SWIDTH 576 0
DWIDTH 12 0
BBX 12 24 0 -5
BITMAP
0000
0000
0000
0000
0000
0000
0000
0000
0000
0000
0000
0000
0000
0000
0000
0000
0000
0000
0000
0000
0000
3BC0
EF60
0400
ENDCHAR
STARTCHAR uni033D
ENCODING 829
SWIDTH 576 0
DWIDTH 12 0
BBX 12 24 0 -5
BITMAP
3060
3060
0F80
3060
0000
0000
0000
0000
0000
0000
0000
0000
0000
0000
0000
0000
0000
0000
0000
0000
0000
0000
0000
0000
ENDCHAR
STARTCHAR uni033E
ENCODING 830
SWIDTH 576 0
DWIDTH 12 0
BBX 12 24 0 -5
BITMAP
0700
0700
0C00
0700
0C00
0000
0000
0000
0000
0000
0000
0000
0000
0000
0000
0000
0000
0000
0000
0000
0000
0000
0000
0000
ENDCHAR
STARTCHAR uni033F
ENCODING 831
SWIDTH 576 0
DWIDTH 12 0
BBX 12 24 0 -5
BITMAP
FFF0
FFF0
0000
FFF0
0000
0000
0000
0000
0000
0000
0000
0000
0000
0000
0000
0000
0000
0000
0000
0000
0000
0000
0000
0000
ENDCHAR
STARTCHAR uni0340
ENCODING 832
SWIDTH 576 0
DWIDTH 12 0
BBX 12 24 0 -5
BITMAP
0C00
0C00
0700
0380
0000
0000
0000
0000
0000
0000
0000
0000
0000
0000
0000
0000
0000
0000
0000
0000
0000
0000
0000
0000
ENDCHAR
STARTCHAR uni0341
ENCODING 833
SWIDTH 576 0
DWIDTH 12 0
BBX 12 24 0 -5
BITMAP
0380
0380
0700
0C00
0000
0000
0000
0000
0000
0000
0000
0000
0000
0000
0000
0000
0000
0000
0000
0000
0000
0000
0000
0000
ENDCHAR
STARTCHAR uni0342
ENCODING 834
SWIDTH 576 0
DWIDTH 12 0
BBX 12 24 0 -5
BITMAP
0C40
0C40
1FC0
1380
0000
0000
0000
0000
0000
0000
0000
0000
0000
0000
0000
0000
0000
0000
0000
0000
0000
0000
0000
0000
ENDCHAR
STARTCHAR uni0343
ENCODING 835
SWIDTH 576 0
DWIDTH 12 0
BBX 12 24 0 -5
BITMAP
0400
0400
0F00
0700
0C00
0000
0000
0000
0000
0000
0000
0000
0000
0000
0000
0000
0000
0000
0000
0000
0000
0000
0000
0000
ENDCHAR
STARTCHAR uni0344
ENCODING 836
SWIDTH 576 0
DWIDTH 12 0
BBX 12 24 0 -5
BITMAP
0380
0380
3760
3C60
0000
0000
0000
0000
0000
0000
0000
0000
0000
0000
0000
0000
0000
0000
0000
0000
0000
0000
0000
0000
ENDCHAR
STARTCHAR uni0345
ENCODING 837
SWIDTH 576 0
DWIDTH 12 0
BBX 12 24 0 -5
BITMAP
0000
0000
0000
0000
0000
0000
0000
0000
0000
0000
0000
0000
0000
0000
0000
0000
0000
0000
0000
0000
0000
0C00
0C00
0700
ENDCHAR
STARTCHAR uni0346
ENCODING 838
SWIDTH 576 0
DWIDTH 12 0
BBX 12 24 0 -5
BITMAP
1FC0
1FC0
18C0
0000
0000
0000
0000
0000
0000
0000
0000
0000
0000
0000
0000
0000
0000
0000
0000
0000
0000
0000
0000
0000
ENDCHAR
STARTCHAR uni0347
ENCODING 839
SWIDTH 576 0
DWIDTH 12 0
BBX 12 24 0 -5
BITMAP
0000
0000
0000
0000
0000
0000
0000
0000
0000
0000
0000
0000
0000
0000
0000
0000
0000
0000
0000
0000
0000
3FE0
0000
3FE0
ENDCHAR
STARTCHAR uni0348
ENCODING 840
SWIDTH 576 0
DWIDTH 12 0
BBX 12 24 0 -5
BITMAP
0000
0000
0000
0000
0000
0000
0000
0000
0000
0000
0000
0000
0000
0000
0000
0000
0000
0000
0000
0000
0000
18C0
18C0
18C0
ENDCHAR
STARTCHAR uni0349
ENCODING 841
SWIDTH 576 0
DWIDTH 12 0
BBX 12 24 0 -5
BITMAP
0000
0000
0000
0000
0000
0000
0000
0000
0000
0000
0000
0000
0000
0000
0000
0000
0000
0000
0000
0000
0000
0F80
0380
0380
ENDCHAR
STARTCHAR uni034A
ENCODING 842
SWIDTH 576 0
DWIDTH 12 0
BBX 12 24 0 -5
BITMAP
0380
0380
0380
1F20
3FE0
27C0
0C00
0C00
0C00
0000
0000
0000
0000
0000
0000
0000
0000
0000
0000
0000
0000
0000
0000
0000
ENDCHAR
STARTCHAR uni034B
ENCODING 843
SWIDTH 576 0
DWIDTH 12 0
BBX 12 24 0 -5
BITMAP
0380
0380
0000
0CC0
1B80
0000
0C00
0C00
0000
0000
0000
0000
0000
0000
0000
0000
0000
0000
0000
0000
0000
0000
0000
0000
ENDCHAR
STARTCHAR uni034C
ENCODING 844
SWIDTH 576 0
DWIDTH 12 0
BBX 12 24 0 -5
BITMAP
0CC0
0CC0
1B80
0000
0CC0
1B80
0000
0000
0000
0000
0000
0000
0000
0000
0000
0000
0000
0000
0000
0000
0000
0000
0000
0000
ENDCHAR
STARTCHAR uni034D
ENCODING 845
SWIDTH 576 0
DWIDTH 12 0
BBX 12 24 0 -5
BITMAP
0000
0000
0000
0000
0000
0000
0000
0000
0000
0000
0000
0000
0000
0000
0000
0000
0000
0000
0000
0000
0000
1040
3FE0
1040
ENDCHAR
STARTCHAR uni034E
ENCODING 846
SWIDTH 576 0
DWIDTH 12 0
BBX 12 24 0 -5
BITMAP
0000
0000
0000
0000
0000
0000
0000
0000
0000
0000
0000
0000
0000
0000
0000
0000
0000
0000
0000
0000
0400
0F00
1480
0400
ENDCHAR
STARTCHAR uni034F
ENCODING 847
SWIDTH 576 0
DWIDTH 12 0
BBX 12 24 0 -5
BITMAP
0000
0000
0000
0000
0000
0000
0000
0000
0000
0000
0000
0000
0000
0000
0000
0000
0000
0000
0000
0000
0000
0000
0000
0000
ENDCHAR
STARTCHAR uni0350
ENCODING 848
SWIDTH 576 0
DWIDTH 12 0
BBX 12 24 0 -5
BITMAP
0F00
0F00
03C0
0F00
0000
0000
0000
0000
0000
0000
0000
0000
0000
0000
0000
0000
0000
0000
0000
0000
0000
0000
0000
0000
ENDCHAR
STARTCHAR uni0351
ENCODING 849
SWIDTH 576 0
DWIDTH 12 0
BBX 12 24 0 -5
BITMAP
0380
0380
0700
0700
0380
0000
0000
0000
0000
0000
0000
0000
0000
0000
0000
0000
0000
0000
0000
0000
0000
0000
0000
0000
ENDCHAR
STARTCHAR uni0352
ENCODING 850
SWIDTH 576 0
DWIDTH 12 0
BBX 12 24 0 -5
BITMAP
1FC0
1FC0
3060
0700
0700
0000
0000
0000
0000
0000
0000
0000
0000
0000
0000
0000
0000
0000
0000
0000
0000
0000
0000
0000
ENDCHAR
STARTCHAR uni0353
ENCODING 851
SWIDTH 576 0
DWIDTH 12 0
BBX 12 24 0 -5
BITMAP
0000
0000
0000
0000
0000
0000
0000
0000
0000
0000
0000
0000
0000
0000
0000
0000
0000
0000
0000
0000
0880
0700
0700
0880
ENDCHAR
STARTCHAR uni0354
ENCODING 852
SWIDTH 576 0
DWIDTH 12 0
BBX 12 24 0 -5
BITMAP
0000
0000
0000
0000
0000
0000
0000
0000
0000
0000
0000
0000
0000
0000
0000
0000
0000
0000
0000
0000
0000
0780
1C00
0780
ENDCHAR
STARTCHAR uni0355
ENCODING 853
SWIDTH 576 0
DWIDTH 12 0
BBX 12 24 0 -5
BITMAP
0000
0000
0000
0000
0000
0000
0000
0000
0000
0000
0000
0000
0000
0000
0000
0000
0000
0000
0000
0000
0000
1C00
0780
1C00
ENDCHAR
STARTCHAR uni0356
ENCODING 854
SWIDTH 576 0
DWIDTH 12 0
BBX 12 24 0 -5
BITMAP
0000
0000
0000
0000
0000
0000
0000
0000
0000
0000
0000
0000
0000
0000
0000
0000
0000
0000
0000
0000
0080
3080
0F40
3340
ENDCHAR
STARTCHAR uni0357
ENCODING 855
SWIDTH 576 0
DWIDTH 12 0
BBX 12 24 0 -5
BITMAP
0700
0700
0380
0380
0700
0000
0000
0000
0000
0000
0000
0000
0000
0000
0000
0000
0000
0000
0000
0000
0000
0000
0000
0000
ENDCHAR
STARTCHAR uni0358
ENCODING 856
SWIDTH 576 0
DWIDTH 12 0
BBX 12 24 0 -5
BITMAP
0030
0030
0030
0000
0000
0000
0000
0000
0000
0000
0000
0000
0000
0000
0000
0000
0000
0000
0000
0000
0000
0000
0000
0000
ENDCHAR
STARTCHAR uni0359
ENCODING 857
SWIDTH 576 0
DWIDTH 12 0
BBX 12 24 0 -5
BITMAP
0000
0000
0000
0000
0000
0000
0000
0000
0000
0000
0000
0000
0000
0000
0000
0000
0000
0000
18C0
18C0
0F80
3FE0
0F80
18C0
ENDCHAR
STARTCHAR uni035A
ENCODING 858
SWIDTH 576 0
DWIDTH 12 0
BBX 12 24 0 -5
BITMAP
0000
0000
0000
0000
0000
0000
0000
0000
0000
0000
0000
0000
0000
0000
0000
0000
0000
0000
0000
0000
0000
0CC0
1320
0CC0
ENDCHAR
STARTCHAR uni035B
ENCODING 859
SWIDTH 576 0
DWIDTH 12 0
BBX 12 24 0 -5
BITMAP
0C00
0C00
1800
3FE0
00C0
0380
0000
0000
0000
0000
0000
0000
0000
0000
0000
0000
0000
0000
0000
0000
0000
0000
0000
0000
ENDCHAR
STARTCHAR uni035C
ENCODING 860
SWIDTH 576 0
DWIDTH 12 0
BBX 12 24 0 -5
BITMAP
0000
0000
0000
0000
0000
0000
0000
0000
0000
0000
0000
0000
0000
0000
0000
0000
0000
0000
0000
0000
0000
0000
1010
0FE0
ENDCHAR
STARTCHAR uni035D
ENCODING 861
SWIDTH 576 0
DWIDTH 12 0
BBX 12 24 0 -5
BITMAP
1010
1010
0FE0
0000
0000
0000
0000
0000
0000
0000
0000
0000
0000
0000
0000
0000
0000
0000
0000
0000
0000
0000
0000
0000
ENDCHAR
STARTCHAR uni035E
ENCODING 862
SWIDTH 576 0
DWIDTH 12 0
BBX 12 24 0 -5
BITMAP
0000
0000
07F0
0000
0000
0000
0000
0000
0000
0000
0000
0000
0000
0000
0000
0000
0000
0000
0000
0000
0000
0000
0000
0000
ENDCHAR
STARTCHAR uni035F
ENCODING 863
SWIDTH 576 0
DWIDTH 12 0
BBX 12 24 0 -5
BITMAP
0000
0000
0000
0000
0000
0000
0000
0000
0000
0000
0000
0000
0000
0000
0000
0000
0000
0000
0000
0000
0000
0000
07F0
0000
ENDCHAR
STARTCHAR uni0360
ENCODING 864
SWIDTH 576 0
DWIDTH 12 0
BBX 12 24 0 -5
BITMAP
0F10
0F10
10E0
0000
0000
0000
0000
0000
0000
0000
0000
0000
0000
0000
0000
0000
0000
0000
0000
0000
0000
0000
0000
0000
ENDCHAR
STARTCHAR uni0361
ENCODING 865
SWIDTH 576 0
DWIDTH 12 0
BBX 12 24 0 -5
BITMAP
0FE0
0FE0
1010
0000
0000
0000
0000
0000
0000
0000
0000
0000
0000
0000
0000
0000
0000
0000
0000
0000
0000
0000
0000
0000
ENDCHAR
STARTCHAR uni0362
ENCODING 866
SWIDTH 576 0
DWIDTH 12 0
BBX 12 24 0 -5
BITMAP
0000
0000
0000
0000
0000
0000
0000
0000
0000
0000
0000
0000
0000
0000
0000
0000
0000
0000
0000
0000
0000
0020
07F0
0020
ENDCHAR
STARTCHAR uni0363
ENCODING 867
SWIDTH 576 0
DWIDTH 12 0
BBX 12 24 0 -5
BITMAP
0000
0000
0700
0080
0780
0880
0780
0780
0000
0000
0000
0000
0000
0000
0000
0000
0000
0000
0000
0000
0000
0000
0000
0000
ENDCHAR
STARTCHAR uni0364
ENCODING 868
SWIDTH 576 0
DWIDTH 12 0
BBX 12 24 0 -5
BITMAP
0000
0000
0700
0880
0F80
0800
0700
0700
0000
0000
0000
0000
0000
0000
0000
0000
0000
0000
0000
0000
0000
0000
0000
0000
ENDCHAR
STARTCHAR uni0365
ENCODING 869
SWIDTH 576 0
DWIDTH 12 0
BBX 12 24 0 -5
BITMAP
0400
0400
0000
0C00
0400
0400
0F00
0F00
0000
0000
0000
0000
0000
0000
0000
0000
0000
0000
0000
0000
0000
0000
0000
0000
ENDCHAR
STARTCHAR uni0366
ENCODING 870
SWIDTH 576 0
DWIDTH 12 0
BBX 12 24 0 -5
BITMAP
0000
0000
0700
0880
0880
0700
0000
0000
0000
0000
0000
0000
0000
0000
0000
0000
0000
0000
0000
0000
0000
0000
0000
0000
ENDCHAR
STARTCHAR uni0367
ENCODING 871
SWIDTH 576 0
DWIDTH 12 0
BBX 12 24 0 -5
BITMAP
0000
0000
0880
0880
0880
0780
0000
0000
0000
0000
0000
0000
0000
0000
0000
0000
0000
0000
0000
0000
0000
0000
0000
0000
ENDCHAR
STARTCHAR uni0368
ENCODING 872
SWIDTH 576 0
DWIDTH 12 0
BBX 12 24 0 -5
BITMAP
0000
0000
0700
0800
0800
0700
0000
0000
0000
0000
0000
0000
0000
0000
0000
0000
0000
0000
0000
0000
0000
0000
0000
0000
ENDCHAR
STARTCHAR uni0369
ENCODING 873
SWIDTH 576 0
DWIDTH 12 0
BBX 12 24 0 -5
BITMAP
0080
0080
0080
0780
0880
0880
0780
0780
0000
0000
0000
0000
0000
0000
0000
0000
0000
0000
0000
0000
0000
0000
0000
0000
ENDCHAR
STARTCHAR uni036A
ENCODING 874
SWIDTH 576 0
DWIDTH 12 0
BBX 12 24 0 -5
BITMAP
0800
0800
0800
0F00
0880
0880
0880
0880
0000
0000
0000
0000
0000
0000
0000
0000
0000
0000
0000
0000
0000
0000
0000
0000
ENDCHAR
STARTCHAR uni036B
ENCODING 875
SWIDTH 576 0
DWIDTH 12 0
BBX 12 24 0 -5
BITMAP
0000
0000
0C80
0B40
0B40
0B40
0000
0000
0000
0000
0000
0000
0000
0000
0000
0000
0000
0000
0000
0000
0000
0000
0000
0000
ENDCHAR
STARTCHAR uni036C
ENCODING 876
SWIDTH 576 0
DWIDTH 12 0
BBX 12 24 0 -5
BITMAP
0000
0000
0B00
0C80
0800
0800
0000
0000
0000
0000
0000
0000
0000
0000
0000
0000
0000
0000
0000
0000
0000
0000
0000
0000
ENDCHAR
STARTCHAR uni036D
ENCODING 877
SWIDTH 576 0
DWIDTH 12 0
BBX 12 24 0 -5
BITMAP
0400
0400
0400
0F00
0400
0400
0380
0380
0000
0000
0000
0000
0000
0000
0000
0000
0000
0000
0000
0000
0000
0000
0000
0000
ENDCHAR
STARTCHAR uni036E
ENCODING 878
SWIDTH 576 0
DWIDTH 12 0
BBX 12 24 0 -5
BITMAP
0000
0000
0880
0880
0700
0700
0000
0000
0000
0000
0000
0000
0000
0000
0000
0000
0000
0000
0000
0000
0000
0000
0000
0000
ENDCHAR
STARTCHAR uni036F
ENCODING 879
SWIDTH 576 0
DWIDTH 12 0
BBX 12 24 0 -5
BITMAP
0000
0000
0880
0700
0700
0880
0000
0000
0000
0000
0000
0000
0000
0000
0000
0000
0000
0000
0000
0000
0000
0000
0000
0000
ENDCHAR
STARTCHAR uni0370
ENCODING 880
SWIDTH 576 0
DWIDTH 12 0
BBX 12 24 0 -5
BITMAP
0000
0000
0000
0000
3000
3000
3000
3000
3000
3000
3000
3F80
3000
3000
3000
3000
3000
3000
3000
3000
0000
0000
0000
0000
ENDCHAR
STARTCHAR uni0371
ENCODING 881
SWIDTH 576 0
DWIDTH 12 0
BBX 12 24 0 -5
BITMAP
0000
0000
0000
0000
0000
0000
0000
0000
0000
0000
3000
D800
1800
1800
1F80
1800
1800
1800
1800
1800
0000
0000
0000
0000
ENDCHAR
STARTCHAR uni0372
ENCODING 882
SWIDTH 576 0
DWIDTH 12 0
BBX 12 24 0 -5
BITMAP
0000
0000
0000
0000
3FE0
2720
2720
2720
2720
0700
0700
0700
0700
0700
0700
0700
0700
0700
0700
0700
0000
0000
0000
0000
ENDCHAR
STARTCHAR uni0373
ENCODING 883
SWIDTH 576 0
DWIDTH 12 0
BBX 12 24 0 -5
BITMAP
0000
0000
0000
0000
0FC0
1740
1740
1740
1740
0700
0700
0700
0700
0700
0700
0700
0700
0700
0700
0700
0000
0000
0000
0000
ENDCHAR
STARTCHAR uni0374
ENCODING 884
SWIDTH 576 0
DWIDTH 12 0
BBX 12 24 0 -5
BITMAP
0000
0000
0000
0000
0380
0700
0C00
0C00
0000
0000
0000
0000
0000
0000
0000
0000
0000
0000
0000
0000
0000
0000
0000
0000
ENDCHAR
STARTCHAR uni0375
ENCODING 885
SWIDTH 576 0
DWIDTH 12 0
BBX 12 24 0 -5
BITMAP
0000
0000
0000
0000
0000
0000
0000
0000
0000
0000
0000
0000
0000
0000
0000
0000
0000
0000
0000
0000
0380
0700
0C00
0000
ENDCHAR
STARTCHAR uni0376
ENCODING 886
SWIDTH 576 0
DWIDTH 12 0
BBX 12 24 0 -5
BITMAP
0000
0000
0000
0000
3060
30E0
30E0
30E0
33E0
33E0
3760
3760
3C60
3C60
3C60
3860
3860
3060
3060
3060
0000
0000
0000
0000
ENDCHAR
STARTCHAR uni0377
ENCODING 887
SWIDTH 576 0
DWIDTH 12 0
BBX 12 24 0 -5
BITMAP
0000
0000
0000
0000
0000
0000
0000
0000
0000
0000
3060
30E0
33E0
33E0
3360
3460
3C60
3860
3030
3030
0000
0000
0000
0000
ENDCHAR
STARTCHAR uni037A
ENCODING 890
SWIDTH 576 0
DWIDTH 12 0
BBX 12 24 0 -5
BITMAP
0000
0000
0000
0000
0000
0000
0000
0000
0000
0000
0000
0000
0000
0000
0000
0000
0000
0000
0000
0000
0000
0C00
0C00
0700
ENDCHAR
STARTCHAR uni037B
ENCODING 891
SWIDTH 576 0
DWIDTH 12 0
BBX 12 24 0 -5
BITMAP
0000
0000
0000
0000
0000
0000
0000
0000
0000
0000
1F80
30C0
0060
0060
0060
0060
0060
30C0
1F80
1F80
0000
0000
0000
0000
ENDCHAR
STARTCHAR uni037C
ENCODING 892
SWIDTH 576 0
DWIDTH 12 0
BBX 12 24 0 -5
BITMAP
0000
0000
0000
0000
0000
0000
0000
0000
0000
0000
0FC0
1860
3000
3000
3380
3380
3000
1860
0FC0
0FC0
0000
0000
0000
0000
ENDCHAR
STARTCHAR uni037D
ENCODING 893
SWIDTH 576 0
DWIDTH 12 0
BBX 12 24 0 -5
BITMAP
0000
0000
0000
0000
0000
0000
0000
0000
0000
0000
1F80
30C0
0060
0060
0C60
0C60
0060
30C0
1F80
1F80
0000
0000
0000
0000
ENDCHAR
STARTCHAR uni037E
ENCODING 894
SWIDTH 576 0
DWIDTH 12 0
BBX 12 24 0 -5
BITMAP
0000
0000
0000
0000
0000
0000
0000
0000
0000
0000
0780
0780
0000
0000
0000
0000
0000
0780
0780
0780
0F00
0000
0000
0000
ENDCHAR
STARTCHAR tonos
ENCODING 900
SWIDTH 576 0
DWIDTH 12 0
BBX 12 24 0 -5
BITMAP
0000
0000
0000
0000
0380
0700
0C00
0C00
0000
0000
0000
0000
0000
0000
0000
0000
0000
0000
0000
0000
0000
0000
0000
0000
ENDCHAR
STARTCHAR dieresistonos
ENCODING 901
SWIDTH 576 0
DWIDTH 12 0
BBX 12 24 0 -5
BITMAP
0000
0000
0000
0000
0380
3760
3C60
3C60
0000
0000
0000
0000
0000
0000
0000
0000
0000
0000
0000
0000
0000
0000
0000
0000
ENDCHAR
STARTCHAR Alphatonos
ENCODING 902
SWIDTH 576 0
DWIDTH 12 0
BBX 12 24 0 -5
BITMAP
0000
0000
0000
0000
1B80
37C0
2C60
2C60
0C60
0C60
0C60
0C60
0FE0
0FE0
0C60
0C60
0C60
0C60
0C60
0C60
0000
0000
0000
0000
ENDCHAR
STARTCHAR anoteleia
ENCODING 903
SWIDTH 576 0
DWIDTH 12 0
BBX 12 24 0 -5
BITMAP
0000
0000
0000
0000
0000
0000
0000
0000
0000
0000
0780
0780
0780
0780
0000
0000
0000
0000
0000
0000
0000
0000
0000
0000
ENDCHAR
STARTCHAR Epsilontonos
ENCODING 904
SWIDTH 576 0
DWIDTH 12 0
BBX 12 24 0 -5
BITMAP
0000
0000
0000
0000
3FE0
EC00
CC00
CC00
0C00
0C00
0C00
0FC0
0C00
0C00
0C00
0C00
0C00
0C00
0FE0
0FE0
0000
0000
0000
0000
ENDCHAR
STARTCHAR Etatonos
ENCODING 905
SWIDTH 576 0
DWIDTH 12 0
BBX 12 24 0 -5
BITMAP
0000
0000
0000
0000
3C60
EC60
CC60
CC60
0C60
0C60
0C60
0FE0
0C60
0C60
0C60
0C60
0C60
0C60
0C60
0C60
0000
0000
0000
0000
ENDCHAR
STARTCHAR Iotatonos
ENCODING 906
SWIDTH 576 0
DWIDTH 12 0
BBX 12 24 0 -5
BITMAP
0000
0000
0000
0000
3FE0
E380
C380
C380
0380
0380
0380
0380
0380
0380
0380
0380
0380
0380
0FE0
0FE0
0000
0000
0000
0000
ENDCHAR
STARTCHAR Omicrontonos
ENCODING 908
SWIDTH 576 0
DWIDTH 12 0
BBX 12 24 0 -5
BITMAP
0000
0000
0000
0000
3380
E7C0
CC60
CC60
0C60
0C60
0C60
0C60
0C60
0C60
0C60
0C60
0C60
07C0
0380
0380
0000
0000
0000
0000
ENDCHAR
STARTCHAR Upsilontonos
ENCODING 910
SWIDTH 576 0
DWIDTH 12 0
BBX 12 24 0 -5
BITMAP
0000
0000
0000
0000
3C60
EC60
CC60
CC60
0C60
0C60
07C0
07C0
0380
0380
0380
0380
0380
0380
0380
0380
0000
0000
0000
0000
ENDCHAR
STARTCHAR Omegatonos
ENCODING 911
SWIDTH 576 0
DWIDTH 12 0
BBX 12 24 0 -5
BITMAP
0000
0000
0000
0000
1B80
37C0
2C60
2C60
0C60
0C60
0C60
0C60
0C60
0C60
0C60
0C60
07C0
0380
0FE0
0FE0
0000
0000
0000
0000
ENDCHAR
STARTCHAR iotadieresistonos
ENCODING 912
SWIDTH 576 0
DWIDTH 12 0
BBX 12 24 0 -5
BITMAP
0000
0000
0000
0000
0380
3760
3C60
3C60
0000
0000
0700
0700
0700
0700
0700
0700
0700
0760
03C0
03C0
0000
0000
0000
0000
ENDCHAR
STARTCHAR Alpha
ENCODING 913
SWIDTH 576 0
DWIDTH 12 0
BBX 12 24 0 -5
BITMAP
0000
0000
0000
0000
0700
0F80
18C0
18C0
18C0
3060
3060
3060
3FE0
3FE0
3060
3060
3060
3060
3060
3060
0000
0000
0000
0000
ENDCHAR
STARTCHAR Beta
ENCODING 914
SWIDTH 576 0
DWIDTH 12 0
BBX 12 24 0 -5
BITMAP
0000
0000
0000
0000
3F00
3380
30C0
30C0
30C0
30C0
3380
3F80
30C0
30C0
3060
3060
3060
30C0
3F80
3F80
0000
0000
0000
0000
ENDCHAR
STARTCHAR Gamma
ENCODING 915
SWIDTH 576 0
DWIDTH 12 0
BBX 12 24 0 -5
BITMAP
0000
0000
0000
0000
3FE0
3000
3000
3000
3000
3000
3000
3000
3000
3000
3000
3000
3000
3000
3000
3000
0000
0000
0000
0000
ENDCHAR
STARTCHAR Delta
ENCODING 916
SWIDTH 576 0
DWIDTH 12 0
BBX 12 24 0 -5
BITMAP
0000
0000
0000
0000
0700
0700
0700
0700
0F80
0F80
0F80
18C0
18C0
18C0
18C0
3060
3060
3060
3FE0
3FE0
0000
0000
0000
0000
ENDCHAR
STARTCHAR Epsilon
ENCODING 917
SWIDTH 576 0
DWIDTH 12 0
BBX 12 24 0 -5
BITMAP
0000
0000
0000
0000
3FE0
3000
3000
3000
3000
3000
3000
3F80
3000
3000
3000
3000
3000
3000
3FE0
3FE0
0000
0000
0000
0000
ENDCHAR
STARTCHAR Zeta
ENCODING 918
SWIDTH 576 0
DWIDTH 12 0
BBX 12 24 0 -5
BITMAP
0000
0000
0000
0000
3FE0
0060
0060
0060
00C0
0380
0380
0700
0C00
0C00
0C00
1800
3000
3000
3FE0
3FE0
0000
0000
0000
0000
ENDCHAR
STARTCHAR Eta
ENCODING 919
SWIDTH 576 0
DWIDTH 12 0
BBX 12 24 0 -5
BITMAP
0000
0000
0000
0000
3060
3060
3060
3060
3060
3060
3060
3FE0
3060
3060
3060
3060
3060
3060
3060
3060
0000
0000
0000
0000
ENDCHAR
STARTCHAR Theta
ENCODING 920
SWIDTH 576 0
DWIDTH 12 0
BBX 12 24 0 -5
BITMAP
0000
0000
0000
0000
0F80
18C0
3060
3060
3060
3060
3060
3FE0
3060
3060
3060
3060
3060
18C0
0F80
0F80
0000
0000
0000
0000
ENDCHAR
STARTCHAR Iota
ENCODING 921
SWIDTH 576 0
DWIDTH 12 0
BBX 12 24 0 -5
BITMAP
0000
0000
0000
0000
3FE0
0700
0700
0700
0700
0700
0700
0700
0700
0700
0700
0700
0700
0700
3FE0
3FE0
0000
0000
0000
0000
ENDCHAR
STARTCHAR Kappa
ENCODING 922
SWIDTH 576 0
DWIDTH 12 0
BBX 12 24 0 -5
BITMAP
0000
0000
0000
0000
3060
3060
30C0
30C0
30C0
3380
3380
3F00
3380
3380
3380
30C0
30C0
3060
3060
3060
0000
0000
0000
0000
ENDCHAR
STARTCHAR Lambda
ENCODING 923
SWIDTH 576 0
DWIDTH 12 0
BBX 12 24 0 -5
BITMAP
0000
0000
0000
0000
0700
0700
0700
0700
0F80
0F80
0F80
18C0
18C0
18C0
18C0
3060
3060
3060
3060
3060
0000
0000
0000
0000
ENDCHAR
STARTCHAR Mu
ENCODING 924
SWIDTH 576 0
DWIDTH 12 0
BBX 12 24 0 -5
BITMAP
0000
0000
0000
0000
3060
3060
38E0
38E0
38E0
3FE0
3760
3760
3760
3760
3760
3060
3060
3060
3060
3060
0000
0000
0000
0000
ENDCHAR
STARTCHAR Nu
ENCODING 925
SWIDTH 576 0
DWIDTH 12 0
BBX 12 24 0 -5
BITMAP
0000
0000
0000
0000
3060
3860
3860
3860
3C60
3C60
3760
3760
33E0
33E0
33E0
30E0
30E0
3060
3060
3060
0000
0000
0000
0000
ENDCHAR
STARTCHAR Xi
ENCODING 926
SWIDTH 576 0
DWIDTH 12 0
BBX 12 24 0 -5
BITMAP
0000
0000
0000
0000
3FE0
0000
0000
0000
0000
0000
0000
1FC0
0000
0000
0000
0000
0000
0000
3FE0
3FE0
0000
0000
0000
0000
ENDCHAR
STARTCHAR Omicron
ENCODING 927
SWIDTH 576 0
DWIDTH 12 0
BBX 12 24 0 -5
BITMAP
0000
0000
0000
0000
0F80
18C0
3060
3060
3060
3060
3060
3060
3060
3060
3060
3060
3060
18C0
0F80
0F80
0000
0000
0000
0000
ENDCHAR
STARTCHAR Pi
ENCODING 928
SWIDTH 576 0
DWIDTH 12 0
BBX 12 24 0 -5
BITMAP
0000
0000
0000
0000
3FE0
18C0
18C0
18C0
18C0
18C0
18C0
18C0
18C0
18C0
18C0
18C0
18C0
18C0
18C0
18C0
0000
0000
0000
0000
ENDCHAR
STARTCHAR Rho
ENCODING 929
SWIDTH 576 0
DWIDTH 12 0
BBX 12 24 0 -5
BITMAP
0000
0000
0000
0000
3F80
30C0
3060
3060
3060
3060
3060
30C0
3F80
3F80
3000
3000
3000
3000
3000
3000
0000
0000
0000
0000
ENDCHAR
STARTCHAR Sigma
ENCODING 931
SWIDTH 576 0
DWIDTH 12 0
BBX 12 24 0 -5
BITMAP
0000
0000
0000
0000
3FE0
3000
1800
1800
0C00
0700
0380
0380
0700
0700
0C00
1800
3000
3000
3FE0
3FE0
0000
0000
0000
0000
ENDCHAR
STARTCHAR Tau
ENCODING 932
SWIDTH 576 0
DWIDTH 12 0
BBX 12 24 0 -5
BITMAP
0000
0000
0000
0000
3FE0
0700
0700
0700
0700
0700
0700
0700
0700
0700
0700
0700
0700
0700
0700
0700
0000
0000
0000
0000
ENDCHAR
STARTCHAR Upsilon
ENCODING 933
SWIDTH 576 0
DWIDTH 12 0
BBX 12 24 0 -5
BITMAP
0000
0000
0000
0000
3060
3060
18C0
18C0
18C0
0F80
0F80
0700
0700
0700
0700
0700
0700
0700
0700
0700
0000
0000
0000
0000
ENDCHAR
STARTCHAR Phi
ENCODING 934
SWIDTH 576 0
DWIDTH 12 0
BBX 12 24 0 -5
BITMAP
0000
0000
0000
0000
0700
0700
1FC0
1FC0
3760
3760
3760
3760
3760
3760
3760
3760
1FC0
0700
0700
0700
0000
0000
0000
0000
ENDCHAR
STARTCHAR Chi
ENCODING 935
SWIDTH 576 0
DWIDTH 12 0
BBX 12 24 0 -5
BITMAP
0000
0000
0000
0000
3060
3060
18C0
18C0
18C0
0F80
0F80
0700
0F80
0F80
0F80
18C0
18C0
3060
3060
3060
0000
0000
0000
0000
ENDCHAR
STARTCHAR Psi
ENCODING 936
SWIDTH 576 0
DWIDTH 12 0
BBX 12 24 0 -5
BITMAP
0000
0000
0000
0000
3760
3760
3760
3760
3760
3760
3760
3760
3760
3760
1FC0
0700
0700
0700
0700
0700
0000
0000
0000
0000
ENDCHAR
STARTCHAR Omega
ENCODING 937
SWIDTH 576 0
DWIDTH 12 0
BBX 12 24 0 -5
BITMAP
0000
0000
0000
0000
0F80
18C0
3060
3060
3060
3060
3060
3060
3060
3060
3060
3060
18C0
0880
38E0
38E0
0000
0000
0000
0000
ENDCHAR
STARTCHAR Iotadieresis
ENCODING 938
SWIDTH 576 0
DWIDTH 12 0
BBX 12 24 0 -5
BITMAP
0000
0000
3060
3060
0000
3FE0
0700
0700
0700
0700
0700
0700
0700
0700
0700
0700
0700
0700
3FE0
3FE0
0000
0000
0000
0000
ENDCHAR
STARTCHAR Upsilondieresis
ENCODING 939
SWIDTH 576 0
DWIDTH 12 0
BBX 12 24 0 -5
BITMAP
0000
0000
3060
3060
0000
3060
18C0
18C0
18C0
0F80
0F80
0700
0700
0700
0700
0700
0700
0700
0700
0700
0000
0000
0000
0000
ENDCHAR
STARTCHAR alphatonos
ENCODING 940
SWIDTH 576 0
DWIDTH 12 0
BBX 12 24 0 -5
BITMAP
0000
0000
0000
0000
00C0
0380
0700
0700
0000
0000
1F60
30E0
3060
3060
3060
3060
30E0
3360
1C60
1C60
0000
0000
0000
0000
ENDCHAR
STARTCHAR epsilontonos
ENCODING 941
SWIDTH 576 0
DWIDTH 12 0
BBX 12 24 0 -5
BITMAP
0000
0000
0000
0000
00C0
0380
0700
0700
0000
0000
1FC0
3060
3000
3000
1F80
3000
3000
3060
1FC0
1FC0
0000
0000
0000
0000
ENDCHAR
STARTCHAR etatonos
ENCODING 942
SWIDTH 576 0
DWIDTH 12 0
BBX 12 24 0 -5
BITMAP
0000
0000
0000
0000
00C0
0380
0700
0700
0000
0000
3780
38C0
3060
3060
3060
3060
3060
3060
3060
3060
0060
0060
0060
0060
ENDCHAR
STARTCHAR iotatonos
ENCODING 943
SWIDTH 576 0
DWIDTH 12 0
BBX 12 24 0 -5
BITMAP
0000
0000
0000
0000
0380
0700
0C00
0C00
0000
0000
0C00
0C00
0C00
0C00
0C00
0C00
0C00
0CC0
0780
0780
0000
0000
0000
0000
ENDCHAR
STARTCHAR upsilondieresistonos
ENCODING 944
SWIDTH 576 0
DWIDTH 12 0
BBX 12 24 0 -5
BITMAP
0000
0000
0000
0000
0380
3760
3C60
3C60
0000
0000
3060
3060
3060
3060
3060
3060
3060
18C0
0F80
0F80
0000
0000
0000
0000
ENDCHAR
STARTCHAR alpha
ENCODING 945
SWIDTH 576 0
DWIDTH 12 0
BBX 12 24 0 -5
BITMAP
0000
0000
0000
0000
0000
0000
0000
0000
0000
0000
1F60
30E0
3060
3060
3060
3060
30E0
3360
1C60
1C60
0000
0000
0000
0000
ENDCHAR
STARTCHAR beta
ENCODING 946
SWIDTH 576 0
DWIDTH 12 0
BBX 12 24 0 -5
BITMAP
0000
0000
0000
0000
0F00
1B80
30C0
30C0
30C0
3380
3F80
30C0
3060
3060
3060
3060
3060
3CC0
3780
3780
3000
3000
3000
3000
ENDCHAR
STARTCHAR gamma
ENCODING 947
SWIDTH 576 0
DWIDTH 12 0
BBX 12 24 0 -5
BITMAP
0000
0000
0000
0000
0000
0000
0000
0000
0000
0000
3060
3060
3060
3060
18C0
18C0
0F80
0F80
0700
0700
0700
0700
0700
0700
ENDCHAR
STARTCHAR delta
ENCODING 948
SWIDTH 576 0
DWIDTH 12 0
BBX 12 24 0 -5
BITMAP
0000
0000
0000
0000
1F80
30C0
1800
1800
0C00
0700
0F80
18C0
3060
3060
3060
3060
3060
18C0
0F80
0F80
0000
0000
0000
0000
ENDCHAR
STARTCHAR epsilon
ENCODING 949
SWIDTH 576 0
DWIDTH 12 0
BBX 12 24 0 -5
BITMAP
0000
0000
0000
0000
0000
0000
0000
0000
0000
0000
1FC0
3060
3000
3000
1F80
3000
3000
3060
1FC0
1FC0
0000
0000
0000
0000
ENDCHAR
STARTCHAR zeta
ENCODING 950
SWIDTH 576 0
DWIDTH 12 0
BBX 12 24 0 -5
BITMAP
0000
0000
0000
0000
3FE0
0700
0C00
0C00
1800
1800
3000
3000
3000
3000
3000
3000
3000
1800
0FC0
0FC0
0060
0060
07C0
0000
ENDCHAR
STARTCHAR eta
ENCODING 951
SWIDTH 576 0
DWIDTH 12 0
BBX 12 24 0 -5
BITMAP
0000
0000
0000
0000
0000
0000
0000
0000
0000
0000
3780
38C0
3060
3060
3060
3060
3060
3060
3060
3060
0060
0060
0060
0060
ENDCHAR
STARTCHAR theta
ENCODING 952
SWIDTH 576 0
DWIDTH 12 0
BBX 12 24 0 -5
BITMAP
0000
0000
0000
0000
0F00
1B80
30C0
30C0
30C0
30C0
30C0
3FC0
30C0
30C0
30C0
30C0
30C0
1B80
0F00
0F00
0000
0000
0000
0000
ENDCHAR
STARTCHAR iota
ENCODING 953
SWIDTH 576 0
DWIDTH 12 0
BBX 12 24 0 -5
BITMAP
0000
0000
0000
0000
0000
0000
0000
0000
0000
0000
0C00
0C00
0C00
0C00
0C00
0C00
0C00
0CC0
0780
0780
0000
0000
0000
0000
ENDCHAR
STARTCHAR kappa
ENCODING 954
SWIDTH 576 0
DWIDTH 12 0
BBX 12 24 0 -5
BITMAP
0000
0000
0000
0000
0000
0000
0000
0000
0000
0000
3060
30C0
3380
3380
3F00
3F00
3380
30C0
3060
3060
0000
0000
0000
0000
ENDCHAR
STARTCHAR lambda
ENCODING 955
SWIDTH 576 0
DWIDTH 12 0
BBX 12 24 0 -5
BITMAP
0000
0000
0000
0000
0F80
18C0
3060
3060
0060
0060
0F60
18E0
3060
3060
3060
3060
3060
3060
3060
3060
0000
0000
0000
0000
ENDCHAR
STARTCHAR mu
ENCODING 956
SWIDTH 576 0
DWIDTH 12 0
BBX 12 24 0 -5
BITMAP
0000
0000
0000
0000
0000
0000
0000
0000
0000
0000
3060
3060
3060
3060
3060
3060
3060
38E0
3F60
3F60
3000
3000
3000
3000
ENDCHAR
STARTCHAR nu
ENCODING 957
SWIDTH 576 0
DWIDTH 12 0
BBX 12 24 0 -5
BITMAP
0000
0000
0000
0000
0000
0000
0000
0000
0000
0000
3060
3060
18C0
18C0
18C0
0F80
0F80
0700
0700
0700
0000
0000
0000
0000
ENDCHAR
STARTCHAR xi
ENCODING 958
SWIDTH 576 0
DWIDTH 12 0
BBX 12 24 0 -5
BITMAP
0000
0000
0000
0000
3FE0
0700
0C00
0C00
1800
1800
0C00
07C0
0C00
0C00
1800
3000
3000
3000
1FC0
1FC0
0060
0060
07C0
0000
ENDCHAR
STARTCHAR omicron
ENCODING 959
SWIDTH 576 0
DWIDTH 12 0
BBX 12 24 0 -5
BITMAP
0000
0000
0000
0000
0000
0000
0000
0000
0000
0000
0F80
18C0
3060
3060
3060
3060
3060
18C0
0F80
0F80
0000
0000
0000
0000
ENDCHAR
STARTCHAR pi
ENCODING 960
SWIDTH 576 0
DWIDTH 12 0
BBX 12 24 0 -5
BITMAP
0000
0000
0000
0000
0000
0000
0000
0000
0000
0000
3FE0
18C0
18C0
18C0
18C0
18C0
18C0
18C0
18C0
18C0
0000
0000
0000
0000
ENDCHAR
STARTCHAR rho
ENCODING 961
SWIDTH 576 0
DWIDTH 12 0
BBX 12 24 0 -5
BITMAP
0000
0000
0000
0000
0000
0000
0000
0000
0000
0000
0F80
18C0
3060
3060
3060
3060
3060
38C0
3F80
3F80
3000
3000
3000
3000
ENDCHAR
STARTCHAR sigma1
ENCODING 962
SWIDTH 576 0
DWIDTH 12 0
BBX 12 24 0 -5
BITMAP
0000
0000
0000
0000
0000
0000
0000
0000
0000
0000
0FC0
1860
3000
3000
3000
3000
3000
1800
0FC0
0FC0
0060
0060
07C0
0000
ENDCHAR
STARTCHAR sigma
ENCODING 963
SWIDTH 576 0
DWIDTH 12 0
BBX 12 24 0 -5
BITMAP
0000
0000
0000
0000
0000
0000
0000
0000
0000
0000
0FE0
1B80
30C0
30C0
3060
3060
3060
18C0
0F80
0F80
0000
0000
0000
0000
ENDCHAR
STARTCHAR tau
ENCODING 964
SWIDTH 576 0
DWIDTH 12 0
BBX 12 24 0 -5
BITMAP
0000
0000
0000
0000
0000
0000
0000
0000
0000
0000
3FE0
0700
0700
0700
0700
0700
0700
0760
03C0
03C0
0000
0000
0000
0000
ENDCHAR
STARTCHAR upsilon
ENCODING 965
SWIDTH 576 0
DWIDTH 12 0
BBX 12 24 0 -5
BITMAP
0000
0000
0000
0000
0000
0000
0000
0000
0000
0000
3060
3060
3060
3060
3060
3060
3060
18C0
0F80
0F80
0000
0000
0000
0000
ENDCHAR
STARTCHAR phi
ENCODING 966
SWIDTH 576 0
DWIDTH 12 0
BBX 12 24 0 -5
BITMAP
0000
0000
0000
0000
0000
0000
0000
0000
0000
0000
1BC0
3760
3760
3760
3760
3760
3760
3760
1FC0
1FC0
0700
0700
0700
0700
ENDCHAR
STARTCHAR chi
ENCODING 967
SWIDTH 576 0
DWIDTH 12 0
BBX 12 24 0 -5
BITMAP
0000
0000
0000
0000
0000
0000
0000
0000
0000
0000
3060
3060
18C0
18C0
18C0
0F80
0700
0700
0F80
0F80
18C0
18C0
3060
3060
ENDCHAR
STARTCHAR psi
ENCODING 968
SWIDTH 576 0
DWIDTH 12 0
BBX 12 24 0 -5
BITMAP
0000
0000
0000
0000
0000
0000
0000
0000
0000
0000
3760
3760
3760
3760
3760
3760
3760
3760
1FC0
1FC0
0700
0700
0700
0700
ENDCHAR
STARTCHAR omega
ENCODING 969
SWIDTH 576 0
DWIDTH 12 0
BBX 12 24 0 -5
BITMAP
0000
0000
0000
0000
0000
0000
0000
0000
0000
0000
3060
3760
3760
3760
3760
3760
3760
3FE0
18C0
18C0
0000
0000
0000
0000
ENDCHAR
STARTCHAR iotadieresis
ENCODING 970
SWIDTH 576 0
DWIDTH 12 0
BBX 12 24 0 -5
BITMAP
0000
0000
0000
0000
0000
3060
3060
3060
0000
0000
0700
0700
0700
0700
0700
0700
0700
0760
03C0
03C0
0000
0000
0000
0000
ENDCHAR
STARTCHAR upsilondieresis
ENCODING 971
SWIDTH 576 0
DWIDTH 12 0
BBX 12 24 0 -5
BITMAP
0000
0000
0000
0000
0000
3060
3060
3060
0000
0000
3060
3060
3060
3060
3060
3060
3060
18C0
0F80
0F80
0000
0000
0000
0000
ENDCHAR
STARTCHAR omicrontonos
ENCODING 972
SWIDTH 576 0
DWIDTH 12 0
BBX 12 24 0 -5
BITMAP
0000
0000
0000
0000
00C0
0380
0700
0700
0000
0000
0F80
18C0
3060
3060
3060
3060
3060
18C0
0F80
0F80
0000
0000
0000
0000
ENDCHAR
STARTCHAR upsilontonos
ENCODING 973
SWIDTH 576 0
DWIDTH 12 0
BBX 12 24 0 -5
BITMAP
0000
0000
0000
0000
00C0
0380
0700
0700
0000
0000
3060
3060
3060
3060
3060
3060
3060
18C0
0F80
0F80
0000
0000
0000
0000
ENDCHAR
STARTCHAR omegatonos
ENCODING 974
SWIDTH 576 0
DWIDTH 12 0
BBX 12 24 0 -5
BITMAP
0000
0000
0000
0000
00C0
0380
0700
0700
0000
0000
3060
3760
3760
3760
3760
3760
3760
3FE0
18C0
18C0
0000
0000
0000
0000
ENDCHAR
STARTCHAR uni03CF
ENCODING 975
SWIDTH 576 0
DWIDTH 12 0
BBX 12 24 0 -5
BITMAP
0000
0000
0000
0000
3060
3060
30C0
30C0
30C0
3380
3380
3F00
3380
3380
3380
30C0
30C0
3060
30E0
30E0
03C0
0780
0700
0000
ENDCHAR
STARTCHAR uni03D0
ENCODING 976
SWIDTH 576 0
DWIDTH 12 0
BBX 12 24 0 -5
BITMAP
0000
0000
0000
0000
0F00
1B80
30C0
30C0
30C0
3380
3780
38C0
3060
3060
3060
3060
3060
18C0
0F80
0F80
0000
0000
0000
0000
ENDCHAR
STARTCHAR theta1
ENCODING 977
SWIDTH 576 0
DWIDTH 12 0
BBX 12 24 0 -5
BITMAP
0000
0000
0000
0000
1F00
3380
30C0
30C0
30C0
18C0
0FE0
E0C0
30C0
30C0
30C0
30C0
30C0
1B80
0F00
0F00
0000
0000
0000
0000
ENDCHAR
STARTCHAR Upsilon1
ENCODING 978
SWIDTH 576 0
DWIDTH 12 0
BBX 12 24 0 -5
BITMAP
0000
0000
0000
0000
3060
D8D0
0880
0880
0F80
0700
0700
0700
0700
0700
0700
0700
0700
0700
0700
0700
0000
0000
0000
0000
ENDCHAR
STARTCHAR uni03D3
ENCODING 979
SWIDTH 576 0
DWIDTH 12 0
BBX 12 24 0 -5
BITMAP
0000
0000
0000
0000
3060
D8D0
0880
0880
2F80
E700
C700
0700
0700
0700
0700
0700
0700
0700
0700
0700
0000
0000
0000
0000
ENDCHAR
STARTCHAR uni03D4
ENCODING 980
SWIDTH 576 0
DWIDTH 12 0
BBX 12 24 0 -5
BITMAP
0000
0000
0000
3060
3060
0000
3060
3060
D8D0
0880
0F80
0F80
0700
0700
0700
0700
0700
0700
0700
0700
0000
0000
0000
0000
ENDCHAR
STARTCHAR phi1
ENCODING 981
SWIDTH 576 0
DWIDTH 12 0
BBX 12 24 0 -5
BITMAP
0000
0000
0000
0000
0700
0700
0700
0700
0700
0700
1FC0
3760
3760
3760
3760
3760
3760
3760
1FC0
1FC0
0700
0700
0700
0700
ENDCHAR
STARTCHAR omega1
ENCODING 982
SWIDTH 576 0
DWIDTH 12 0
BBX 12 24 0 -5
BITMAP
0000
0000
0000
0000
0000
0000
0000
0000
0000
0000
FFF0
3060
3760
3760
3760
3760
3760
3FE0
18C0
18C0
0000
0000
0000
0000
ENDCHAR
STARTCHAR uni03D7
ENCODING 983
SWIDTH 576 0
DWIDTH 12 0
BBX 12 24 0 -5
BITMAP
0000
0000
0000
0000
1800
0C00
0700
0700
0000
0000
3020
1860
0CC0
0CC0
0F80
0F00
1B80
30E0
2060
2060
0060
00C0
0380
0F00
ENDCHAR
STARTCHAR uni03D8
ENCODING 984
SWIDTH 576 0
DWIDTH 12 0
BBX 12 24 0 -5
BITMAP
0000
0000
0000
0000
0F80
18C0
3060
3060
3060
3060
3060
3060
3060
3060
3060
3060
3060
18C0
0F80
0F80
0700
0700
0700
0000
ENDCHAR
STARTCHAR uni03D9
ENCODING 985
SWIDTH 576 0
DWIDTH 12 0
BBX 12 24 0 -5
BITMAP
0000
0000
0000
0000
0000
0000
0000
0000
0000
0000
0F80
18C0
3060
3060
3060
3060
3060
18C0
0F80
0F80
0700
0700
0700
0000
ENDCHAR
STARTCHAR uni03DA
ENCODING 986
SWIDTH 576 0
DWIDTH 12 0
BBX 12 24 0 -5
BITMAP
0000
0000
0000
0000
07C0
0C60
1800
1800
3000
3000
3000
3000
3000
3000
3000
3000
1800
0FC0
0060
0060
0060
0060
03C0
0000
ENDCHAR
STARTCHAR uni03DB
ENCODING 987
SWIDTH 576 0
DWIDTH 12 0
BBX 12 24 0 -5
BITMAP
0000
0000
0000
0000
0000
0000
0000
0000
0000
0060
0FC0
1800
3000
3000
3000
3000
3000
1800
0FC0
0FC0
0060
0060
03C0
0000
ENDCHAR
STARTCHAR uni03DC
ENCODING 988
SWIDTH 576 0
DWIDTH 12 0
BBX 12 24 0 -5
BITMAP
0000
0000
0000
0000
3FE0
3000
3000
3000
3000
3000
3000
3F80
3000
3000
3000
3000
3000
3000
3000
3000
0000
0000
0000
0000
ENDCHAR
STARTCHAR uni03DD
ENCODING 989
SWIDTH 576 0
DWIDTH 12 0
BBX 12 24 0 -5
BITMAP
0000
0000
0000
0000
0000
0000
0000
0000
0000
0000
1FE0
1800
1800
1800
1800
1FC0
1800
1800
1800
1800
1800
1800
1800
1800
ENDCHAR
STARTCHAR uni03DE
ENCODING 990
SWIDTH 576 0
DWIDTH 12 0
BBX 12 24 0 -5
BITMAP
0000
0000
0000
0000
E000
F000
3000
3000
3060
30E0
33E0
3760
3C60
3C60
3860
3060
0060
0070
0030
0030
0000
0000
0000
0000
ENDCHAR
STARTCHAR uni03DF
ENCODING 991
SWIDTH 576 0
DWIDTH 12 0
BBX 12 24 0 -5
BITMAP
0000
0000
0000
0000
0700
0700
0C00
0C00
0C00
1800
1800
3000
3000
3000
3FE0
0060
00C0
00C0
0380
0380
0380
0700
0700
0000
ENDCHAR
STARTCHAR uni03E0
ENCODING 992
SWIDTH 576 0
DWIDTH 12 0
BBX 12 24 0 -5
BITMAP
0000
0000
0000
0000
0700
0700
0700
0700
0F80
0F80
0F80
18C0
18C0
18C0
18C0
33E0
3760
3760
3760
3760
0000
0000
0000
0000
ENDCHAR
STARTCHAR uni03E1
ENCODING 993
SWIDTH 576 0
DWIDTH 12 0
BBX 12 24 0 -5
BITMAP
0000
0000
0000
0000
E000
3000
1800
1800
0C00
0700
0780
0F80
18C0
18C0
33C0
07C0
0C60
0860
0060
0060
0060
0060
0060
0000
ENDCHAR
STARTCHAR uni03E2
ENCODING 994
SWIDTH 576 0
DWIDTH 12 0
BBX 12 24 0 -5
BITMAP
0000
0000
0000
0000
ECE0
3760
3760
3760
3760
3760
3760
3760
3760
3760
3760
3760
1FE0
0060
1FC0
1FC0
3000
3000
0000
0000
ENDCHAR
STARTCHAR uni03E3
ENCODING 995
SWIDTH 576 0
DWIDTH 12 0
BBX 12 24 0 -5
BITMAP
0000
0000
0000
0000
0000
0000
0000
0000
0000
0000
3760
3760
3760
3760
3760
3760
1FE0
0060
1FC0
1FC0
3000
3000
0000
0000
ENDCHAR
STARTCHAR uni03E4
ENCODING 996
SWIDTH 576 0
DWIDTH 12 0
BBX 12 24 0 -5
BITMAP
0000
0000
0000
0000
0C60
1F60
3760
3760
3060
3060
30E0
1BE0
0F60
0F60
0060
0060
0060
0060
0060
0060
0000
0000
0000
0000
ENDCHAR
STARTCHAR uni03E5
ENCODING 997
SWIDTH 576 0
DWIDTH 12 0
BBX 12 24 0 -5
BITMAP
0000
0000
0000
0000
0000
0000
0000
0000
0000
0000
0C60
1F60
3760
3760
3060
18E0
0FE0
0060
0060
0060
0000
0000
0000
0000
ENDCHAR
STARTCHAR uni03E6
ENCODING 998
SWIDTH 576 0
DWIDTH 12 0
BBX 12 24 0 -5
BITMAP
0000
0000
0000
0000
3C00
1800
1800
1800
1800
1800
1B80
1CC0
1860
1860
1860
1860
1860
1860
3C60
3C60
00C0
1F80
3000
0000
ENDCHAR
STARTCHAR uni03E7
ENCODING 999
SWIDTH 576 0
DWIDTH 12 0
BBX 12 24 0 -5
BITMAP
0000
0000
0000
0000
0000
0000
0000
0000
0000
0700
1FC0
3760
1C60
1C60
0060
0060
1C60
3760
33C0
33C0
0000
0000
0000
0000
ENDCHAR
STARTCHAR uni03E8
ENCODING 1000
SWIDTH 576 0
DWIDTH 12 0
BBX 12 24 0 -5
BITMAP
0000
0000
0000
0000
0F80
18C0
3060
3060
3060
1860
00C0
0F80
1800
1800
30C0
3060
3060
18C0
0F80
0F80
0000
0000
0000
0000
ENDCHAR
STARTCHAR uni03E9
ENCODING 1001
SWIDTH 576 0
DWIDTH 12 0
BBX 12 24 0 -5
BITMAP
0000
0000
0000
0000
0000
0000
0000
0000
0000
0000
1FC0
3060
3060
3060
1860
00C0
0380
0F00
3800
3800
0F00
03E0
0000
0000
ENDCHAR
STARTCHAR uni03EA
ENCODING 1002
SWIDTH 576 0
DWIDTH 12 0
BBX 12 24 0 -5
BITMAP
0000
0000
0000
0000
F070
D8D0
18C0
18C0
18C0
0F80
0F80
0700
0F80
0F80
0F80
18C0
18C0
3060
3FE0
3FE0
0000
0000
0000
0000
ENDCHAR
STARTCHAR uni03EB
ENCODING 1003
SWIDTH 576 0
DWIDTH 12 0
BBX 12 24 0 -5
BITMAP
0000
0000
0000
0000
0000
0000
0000
0000
0000
0000
F070
D8D0
0F80
0F80
0700
0700
0F80
18C0
3FE0
3FE0
0000
0000
0000
0000
ENDCHAR
STARTCHAR uni03EC
ENCODING 1004
SWIDTH 576 0
DWIDTH 12 0
BBX 12 24 0 -5
BITMAP
0000
0000
0000
0060
0FC0
1800
3000
3000
33C0
3760
3060
3060
3060
3060
3060
3060
3060
18C0
0F80
0F80
0000
0000
0000
0000
ENDCHAR
STARTCHAR uni03ED
ENCODING 1005
SWIDTH 576 0
DWIDTH 12 0
BBX 12 24 0 -5
BITMAP
0000
0000
0000
0000
0000
0000
0000
0000
0000
0060
1FC0
3000
33C0
33C0
3760
3060
3060
3060
1FC0
1FC0
0000
0000
0000
0000
ENDCHAR
STARTCHAR uni03EE
ENCODING 1006
SWIDTH 576 0
DWIDTH 12 0
BBX 12 24 0 -5
BITMAP
0000
0000
0000
0000
0F80
0700
0700
0700
1FC0
3760
2720
1740
0700
0700
0700
0700
0700
0700
0F80
0F80
0000
0000
0000
0000
ENDCHAR
STARTCHAR uni03EF
ENCODING 1007
SWIDTH 576 0
DWIDTH 12 0
BBX 12 24 0 -5
BITMAP
0000
0000
0000
0000
0000
0000
0000
0000
0000
0000
0780
0720
1FC0
1FC0
2700
0700
0700
0700
0F00
0F00
0000
0000
0000
0000
ENDCHAR
STARTCHAR uni03F0
ENCODING 1008
SWIDTH 576 0
DWIDTH 12 0
BBX 12 24 0 -5
BITMAP
0000
0000
0000
0000
0000
0000
0000
0000
0000
0000
3020
1860
0CC0
0CC0
0F80
0F00
1B80
30C0
2060
2060
0000
0000
0000
0000
ENDCHAR
STARTCHAR uni03F1
ENCODING 1009
SWIDTH 576 0
DWIDTH 12 0
BBX 12 24 0 -5
BITMAP
0000
0000
0000
0000
0000
0000
0000
0000
0000
0000
0F80
18C0
3060
3060
3060
3060
3060
38C0
3F80
3F80
3000
3000
1800
0FC0
ENDCHAR
STARTCHAR uni03F2
ENCODING 1010
SWIDTH 576 0
DWIDTH 12 0
BBX 12 24 0 -5
BITMAP
0000
0000
0000
0000
0000
0000
0000
0000
0000
0000
0FC0
1820
3000
3000
3000
3000
3000
1820
0FC0
0FC0
0000
0000
0000
0000
ENDCHAR
STARTCHAR uni03F3
ENCODING 1011
SWIDTH 576 0
DWIDTH 12 0
BBX 12 24 0 -5
BITMAP
0000
0000
0000
0000
0000
0000
00C0
00C0
00C0
0000
07C0
00C0
00C0
00C0
00C0
00C0
00C0
00C0
00C0
00C0
30C0
30C0
30C0
1F80
ENDCHAR
STARTCHAR uni03F4
ENCODING 1012
SWIDTH 576 0
DWIDTH 12 0
BBX 12 24 0 -5
BITMAP
0000
0000
0000
0000
0F80
18C0
3060
3060
3060
3060
3060
3FE0
3060
3060
3060
3060
3060
18C0
0F80
0F80
0000
0000
0000
0000
ENDCHAR
STARTCHAR uni03F5
ENCODING 1013
SWIDTH 576 0
DWIDTH 12 0
BBX 12 24 0 -5
BITMAP
0000
0000
0000
0000
0000
0000
0000
0000
0000
0000
0FC0
1800
3000
3000
3F80
3000
3000
1800
0FC0
0FC0
0000
0000
0000
0000
ENDCHAR
STARTCHAR uni03F6
ENCODING 1014
SWIDTH 576 0
DWIDTH 12 0
BBX 12 24 0 -5
BITMAP
0000
0000
0000
0000
0000
0000
0000
0000
0000
0000
3F00
0380
00C0
00C0
00C0
1FC0
00C0
0380
3F00
3F00
0000
0000
0000
0000
ENDCHAR
STARTCHAR uni03F7
ENCODING 1015
SWIDTH 576 0
DWIDTH 12 0
BBX 12 24 0 -5
BITMAP
0000
0000
0000
0000
3000
3000
3F00
3F00
30C0
3060
3060
3060
3060
3060
3060
30C0
3F00
3000
3000
3000
0000
0000
0000
0000
ENDCHAR
STARTCHAR uni03F8
ENCODING 1016
SWIDTH 576 0
DWIDTH 12 0
BBX 12 24 0 -5
BITMAP
0000
0000
0000
0000
0000
3000
3000
3000
3000
3000
3F80
38C0
3060
3060
3060
3060
3060
38C0
3F80
3F80
3000
3000
3000
3000
ENDCHAR
STARTCHAR uni03F9
ENCODING 1017
SWIDTH 576 0
DWIDTH 12 0
BBX 12 24 0 -5
BITMAP
0000
0000
0000
0000
0F80
1840
3020
3020
3000
3000
3000
3000
3000
3000
3000
3000
3020
1840
0F80
0F80
0000
0000
0000
0000
ENDCHAR
STARTCHAR uni03FA
ENCODING 1018
SWIDTH 576 0
DWIDTH 12 0
BBX 12 24 0 -5
BITMAP
0000
0000
0000
0000
3060
38E0
3FE0
3FE0
3FE0
3760
3060
3060
3060
3060
3060
3060
3060
3060
3060
3060
0000
0000
0000
0000
ENDCHAR
STARTCHAR uni03FB
ENCODING 1019
SWIDTH 576 0
DWIDTH 12 0
BBX 12 24 0 -5
BITMAP
0000
0000
0000
0000
0000
0000
0000
0000
0000
0000
3060
38E0
38E0
38E0
3760
3760
3060
3060
3060
3060
3000
3000
3000
3000
ENDCHAR
STARTCHAR uni03FC
ENCODING 1020
SWIDTH 576 0
DWIDTH 12 0
BBX 12 24 0 -5
BITMAP
0000
0000
0000
0000
0000
0000
0000
0000
0000
0000
0F80
18C0
3060
3060
3060
3060
3060
38C0
3F80
3F80
3000
FF00
3000
3000
ENDCHAR
STARTCHAR uni03FD
ENCODING 1021
SWIDTH 576 0
DWIDTH 12 0
BBX 12 24 0 -5
BITMAP
0000
0000
0000
0000
0F80
18C0
3060
3060
0060
0060
0060
0060
0060
0060
0060
0060
3060
18C0
0F80
0F80
0000
0000
0000
0000
ENDCHAR
STARTCHAR uni03FE
ENCODING 1022
SWIDTH 576 0
DWIDTH 12 0
BBX 12 24 0 -5
BITMAP
0000
0000
0000
0000
0F80
18C0
3060
3060
3000
3000
3000
3380
3380
3380
3000
3000
3060
18C0
0F80
0F80
0000
0000
0000
0000
ENDCHAR
STARTCHAR uni03FF
ENCODING 1023
SWIDTH 576 0
DWIDTH 12 0
BBX 12 24 0 -5
BITMAP
0000
0000
0000
0000
0F80
18C0
3060
3060
0060
0060
0060
0C60
0C60
0C60
0060
0060
3060
18C0
0F80
0F80
0000
0000
0000
0000
ENDCHAR
STARTCHAR uni0400
ENCODING 1024
SWIDTH 576 0
DWIDTH 12 0
BBX 12 24 0 -5
BITMAP
1C00
1C00
0700
0000
3FE0
3000
3000
3000
3000
3000
3000
3F80
3000
3000
3000
3000
3000
3000
3FE0
3FE0
0000
0000
0000
0000
ENDCHAR
STARTCHAR afii10023
ENCODING 1025
SWIDTH 576 0
DWIDTH 12 0
BBX 12 24 0 -5
BITMAP
18C0
18C0
18C0
0000
3FE0
3000
3000
3000
3000
3000
3000
3F80
3000
3000
3000
3000
3000
3000
3FE0
3FE0
0000
0000
0000
0000
ENDCHAR
STARTCHAR afii10051
ENCODING 1026
SWIDTH 576 0
DWIDTH 12 0
BBX 12 24 0 -5
BITMAP
0000
0000
0000
0000
FFC0
0C00
0C00
0C00
0C00
0FC0
0C60
0C60
0C60
0C60
0C60
0C60
0C60
0C60
0C60
0C60
0060
00C0
0000
0000
ENDCHAR
STARTCHAR afii10052
ENCODING 1027
SWIDTH 576 0
DWIDTH 12 0
BBX 12 24 0 -5
BITMAP
0780
0780
0C00
0000
3FE0
3000
3000
3000
3000
3000
3000
3000
3000
3000
3000
3000
3000
3000
3000
3000
0000
0000
0000
0000
ENDCHAR
STARTCHAR afii10053
ENCODING 1028
SWIDTH 576 0
DWIDTH 12 0
BBX 12 24 0 -5
BITMAP
0000
0000
0000
0000
0F80
18C0
3060
3060
3000
3000
3000
3FC0
3000
3000
3000
3000
3060
18C0
0F80
0F80
0000
0000
0000
0000
ENDCHAR
STARTCHAR afii10054
ENCODING 1029
SWIDTH 576 0
DWIDTH 12 0
BBX 12 24 0 -5
BITMAP
0000
0000
0000
0000
0F80
18C0
3060
3060
3000
3000
1800
0F80
00C0
00C0
0060
0060
3060
18C0
0F80
0F80
0000
0000
0000
0000
ENDCHAR
STARTCHAR afii10055
ENCODING 1030
SWIDTH 576 0
DWIDTH 12 0
BBX 12 24 0 -5
BITMAP
0000
0000
0000
0000
3FE0
0700
0700
0700
0700
0700
0700
0700
0700
0700
0700
0700
0700
0700
3FE0
3FE0
0000
0000
0000
0000
ENDCHAR
STARTCHAR afii10056
ENCODING 1031
SWIDTH 576 0
DWIDTH 12 0
BBX 12 24 0 -5
BITMAP
18C0
18C0
18C0
0000
3FE0
0700
0700
0700
0700
0700
0700
0700
0700
0700
0700
0700
0700
0700
3FE0
3FE0
0000
0000
0000
0000
ENDCHAR
STARTCHAR afii10057
ENCODING 1032
SWIDTH 576 0
DWIDTH 12 0
BBX 12 24 0 -5
BITMAP
0000
0000
0000
0000
07E0
0060
0060
0060
0060
0060
0060
0060
0060
0060
0060
3060
3060
18C0
0F80
0F80
0000
0000
0000
0000
ENDCHAR
STARTCHAR afii10058
ENCODING 1033
SWIDTH 576 0
DWIDTH 12 0
BBX 12 24 0 -5
BITMAP
0000
0000
0000
0000
3F00
3700
3700
3700
3700
3700
37C0
3740
3760
3760
3760
3760
3760
3740
E7C0
E7C0
0000
0000
0000
0000
ENDCHAR
STARTCHAR afii10059
ENCODING 1034
SWIDTH 576 0
DWIDTH 12 0
BBX 12 24 0 -5
BITMAP
0000
0000
0000
0000
3700
3700
3700
3700
3700
3700
3700
3FC0
3740
3740
3760
3760
3760
3740
37C0
37C0
0000
0000
0000
0000
ENDCHAR
STARTCHAR afii10060
ENCODING 1035
SWIDTH 576 0
DWIDTH 12 0
BBX 12 24 0 -5
BITMAP
0000
0000
0000
0000
FFC0
0C00
0C00
0C00
0C00
0CC0
0F60
0C60
0C60
0C60
0C60
0C60
0C60
0C60
0C60
0C60
0000
0000
0000
0000
ENDCHAR
STARTCHAR afii10061
ENCODING 1036
SWIDTH 576 0
DWIDTH 12 0
BBX 12 24 0 -5
BITMAP
00C0
00C0
0380
0700
3060
3060
30C0
30C0
30C0
3380
3380
3F00
3380
3380
3380
30C0
30C0
3060
3060
3060
0000
0000
0000
0000
ENDCHAR
STARTCHAR uni040D
ENCODING 1037
SWIDTH 576 0
DWIDTH 12 0
BBX 12 24 0 -5
BITMAP
0C00
0C00
0700
0380
3060
3060
3060
3060
3060
30E0
33E0
37E0
3F60
3F60
3C60
3860
3060
3060
3060
3060
0000
0000
0000
0000
ENDCHAR
STARTCHAR afii10062
ENCODING 1038
SWIDTH 576 0
DWIDTH 12 0
BBX 12 24 0 -5
BITMAP
18C0
18C0
0F80
0000
3060
3060
3060
3060
3060
3060
3060
1FE0
0060
0060
0060
0060
0060
3060
1FC0
1FC0
0000
0000
0000
0000
ENDCHAR
STARTCHAR afii10145
ENCODING 1039
SWIDTH 576 0
DWIDTH 12 0
BBX 12 24 0 -5
BITMAP
0000
0000
0000
0000
3060
3060
3060
3060
3060
3060
3060
3060
3060
3060
3060
3060
3060
3060
3FE0
3FE0
0700
0700
0000
0000
ENDCHAR
STARTCHAR afii10017
ENCODING 1040
SWIDTH 576 0
DWIDTH 12 0
BBX 12 24 0 -5
BITMAP
0000
0000
0000
0000
0700
0F80
18C0
18C0
18C0
3060
3060
3060
3FE0
3FE0
3060
3060
3060
3060
3060
3060
0000
0000
0000
0000
ENDCHAR
STARTCHAR afii10018
ENCODING 1041
SWIDTH 576 0
DWIDTH 12 0
BBX 12 24 0 -5
BITMAP
0000
0000
0000
0000
3FC0
3000
3000
3000
3000
3000
3000
3F80
30C0
30C0
3060
3060
3060
30C0
3F80
3F80
0000
0000
0000
0000
ENDCHAR
ENDFONT
